<svg width="20" height="20" viewBox="0 0 20 20" fill="none" xmlns="http://www.w3.org/2000/svg">
<path fill-rule="evenodd" clip-rule="evenodd" d="M11.4151 1.75396L10.4166 2.6617L9.41807 1.75396C7.85602 0.333911 5.6724 1.60958 5.6089 3.33337H3.33325C1.95254 3.33337 0.833252 4.45266 0.833252 5.83337V7.40744C0.833252 8.07755 1.20791 8.66015 1.75918 8.9572V15.8334C1.75918 17.6743 3.25156 19.1667 5.09251 19.1667H14.9073C16.7483 19.1667 18.2407 17.6743 18.2407 15.8334V8.9572C18.7919 8.66015 19.1666 8.07755 19.1666 7.40744V5.83337C19.1666 4.45266 18.0473 3.33337 16.6666 3.33337H15.2243C15.1608 1.60958 12.9771 0.333911 11.4151 1.75396ZM6.68186 5.00004C6.67219 5.0002 6.66254 5.0002 6.65289 5.00004H3.33325C2.87301 5.00004 2.49992 5.37313 2.49992 5.83337V7.40744C2.49992 7.45858 2.54137 7.50004 2.59251 7.50004H17.4073C17.4585 7.50004 17.4999 7.45858 17.4999 7.40744V5.83337C17.4999 5.37313 17.1268 5.00004 16.6666 5.00004H14.1803C14.1706 5.0002 14.161 5.0002 14.1513 5.00004H6.68186ZM11.2499 9.1667H8.74992V11.4063C8.74992 11.435 8.75688 11.4485 8.76215 11.4565C8.76941 11.4675 8.7827 11.4805 8.80254 11.49C8.82238 11.4996 8.84081 11.5018 8.85396 11.5006C8.86349 11.4997 8.87838 11.4967 8.90076 11.4788C9.54337 10.9648 10.4565 10.9648 11.0991 11.4788C11.1215 11.4967 11.1363 11.4997 11.1459 11.5006C11.159 11.5018 11.1775 11.4996 11.1973 11.49C11.2171 11.4805 11.2304 11.4675 11.2377 11.4565C11.243 11.4485 11.2499 11.435 11.2499 11.4063V9.1667ZM7.08325 9.1667V11.4063C7.08325 12.8817 8.78986 13.7019 9.94192 12.7803C9.97583 12.7532 10.024 12.7532 10.0579 12.7803C11.21 13.7019 12.9166 12.8817 12.9166 11.4063V9.1667H16.574V15.8334C16.574 16.7538 15.8278 17.5 14.9073 17.5H5.09251C4.17204 17.5 3.42584 16.7538 3.42584 15.8334V9.1667H7.08325ZM8.29695 2.98719L8.67775 3.33337H7.29776C7.36781 2.91541 7.90604 2.63182 8.29695 2.98719ZM13.5354 3.33337C13.4654 2.91541 12.9271 2.63182 12.5362 2.98719L12.1554 3.33337H13.5354Z" fill="white"/>
</svg>
