<svg width="18" height="18" viewBox="0 0 18 18" fill="none" xmlns="http://www.w3.org/2000/svg">
<path d="M9 0C7.75781 0 6.5918 0.234375 5.50195 0.703125C4.40039 1.17188 3.44238 1.81348 2.62793 2.62793C1.81348 3.44238 1.17188 4.40039 0.703125 5.50195C0.234375 6.5918 0 7.75781 0 9C0 10.2422 0.234375 11.4082 0.703125 12.498C1.17188 13.5996 1.81348 14.5576 2.62793 15.3721C3.44238 16.1865 4.40039 16.8281 5.50195 17.2969C6.5918 17.7656 7.75781 18 9 18C10.2422 18 11.4082 17.7656 12.498 17.2969C13.5996 16.8281 14.5576 16.1865 15.3721 15.3721C16.1865 14.5576 16.8281 13.5996 17.2969 12.498C17.7656 11.4082 18 10.2422 18 9C18 7.75781 17.7656 6.5918 17.2969 5.50195C16.8281 4.40039 16.1865 3.44238 15.3721 2.62793C14.5576 1.81348 13.5996 1.17188 12.498 0.703125C11.4082 0.234375 10.2422 0 9 0ZM12.5156 4.20117C12.8672 4.20117 13.1689 4.32715 13.4209 4.5791C13.6729 4.83105 13.7988 5.13281 13.7988 5.48438C13.7988 5.83594 13.6729 6.1377 13.4209 6.38965C13.1689 6.6416 12.8672 6.76758 12.5156 6.76758C12.1641 6.76758 11.8623 6.6416 11.6104 6.38965C11.3584 6.1377 11.2324 5.83594 11.2324 5.48438C11.2324 5.12109 11.3584 4.81641 11.6104 4.57031C11.8623 4.32422 12.1641 4.20117 12.5156 4.20117ZM5.27344 4.20117C5.63672 4.20117 5.94141 4.32715 6.1875 4.5791C6.43359 4.83105 6.55664 5.13281 6.55664 5.48438C6.55664 5.83594 6.43359 6.1377 6.1875 6.38965C5.94141 6.6416 5.63672 6.76758 5.27344 6.76758C4.92188 6.76758 4.62012 6.6416 4.36816 6.38965C4.11621 6.1377 3.99023 5.83594 3.99023 5.48438C3.99023 5.13281 4.11621 4.83105 4.36816 4.5791C4.62012 4.32715 4.92188 4.20117 5.27344 4.20117ZM9 15.082C8.22656 15.082 7.50586 14.9414 6.83789 14.6602C6.16992 14.3672 5.58398 13.9688 5.08008 13.4648C4.57617 12.9609 4.17773 12.375 3.88477 11.707C3.5918 11.0273 3.44531 10.3066 3.44531 9.54492H14.5547C14.5547 10.3066 14.4082 11.0273 14.1152 11.707C13.8223 12.375 13.4238 12.9609 12.9199 13.4648C12.416 13.9688 11.8301 14.3672 11.1621 14.6602C10.4941 14.9414 9.77344 15.082 9 15.082Z" fill="#1FCE6E"/>
</svg>
