<svg width="20" height="20" viewBox="0 0 20 20" fill="none" xmlns="http://www.w3.org/2000/svg">
<path fill-rule="evenodd" clip-rule="evenodd" d="M11.9121 1.98733C10.7644 1.18391 9.23678 1.18391 8.08905 1.98733L2.35773 5.99925C1.39222 6.67511 0.855367 7.81058 0.945758 8.98567L1.53327 16.6234C1.64408 18.0638 2.94925 19.1108 4.37946 18.9065L7.02081 18.5292C8.25243 18.3532 9.16726 17.2984 9.16726 16.0543V14.9998C9.16726 14.5396 9.54035 14.1665 10.0006 14.1665C10.4608 14.1665 10.8339 14.5396 10.8339 14.9998V16.0543C10.8339 17.2984 11.7487 18.3532 12.9804 18.5292L15.6217 18.9065C17.0519 19.1108 18.3571 18.0639 18.4679 16.6234L19.0554 8.98568C19.1458 7.81059 18.609 6.67511 17.6434 5.99925L11.9121 1.98733ZM9.04482 3.35271C9.61868 2.95101 10.3825 2.95101 10.9564 3.35271L16.6877 7.36463C17.1704 7.70256 17.4389 8.2703 17.3937 8.85785L16.8061 16.4955C16.7692 16.9757 16.3342 17.3247 15.8574 17.2566L13.2161 16.8793C12.8055 16.8206 12.5006 16.469 12.5006 16.0543V14.9998C12.5006 13.6191 11.3813 12.4998 10.0006 12.4998C8.61988 12.4998 7.50059 13.6191 7.50059 14.9998V16.0543C7.50059 16.469 7.19565 16.8206 6.78511 16.8793L4.14376 17.2566C3.66703 17.3247 3.23197 16.9757 3.19503 16.4955L2.60752 8.85785C2.56232 8.2703 2.83075 7.70256 3.3135 7.36463L9.04482 3.35271Z" fill="white"/>
</svg>
