<svg width="123" height="58" viewBox="0 0 123 58" fill="none" xmlns="http://www.w3.org/2000/svg">
<path d="M-2.55927 6.49719C-2.32413 6.39998 -2.19978 6.38641 -2.13195 6.31406C-1.64812 5.80536 -1.07837 5.40518 -0.488279 5.03891C-0.0745339 4.78117 0.262338 4.44881 0.596951 4.10968C1.17574 3.52863 1.74323 3.49245 2.44185 3.93785C3.16307 4.39908 3.94535 4.76534 4.70049 5.17457C5.21597 5.05022 5.43754 5.47979 5.7812 5.71266C6.1972 5.99527 6.66069 6.28241 7.14226 6.38189C7.78662 6.51528 8.33376 6.76398 8.79724 7.20259C8.97585 7.3699 9.13637 7.44903 9.3896 7.4626C9.70612 7.48068 10.0498 7.54625 10.3256 7.69773C10.9835 8.06174 11.7161 8.28331 12.3129 8.77618C12.5255 8.95253 12.8465 9.02714 13.1314 9.08819C13.787 9.2261 14.2618 9.70089 14.8519 9.95863C15.5121 10.2503 16.1384 10.6143 16.7986 10.9105C17.5492 11.2451 18.0172 11.799 18.3495 12.5451C18.5892 13.0809 18.9012 13.5761 19.073 14.1526C19.3172 14.9688 19.4167 15.785 19.367 16.626C19.3579 16.7775 19.2991 17.0013 19.1906 17.0601C18.752 17.2953 18.5869 17.7972 18.1438 18.0436C17.8137 18.229 17.5334 18.5297 17.253 18.8123C16.6629 19.4069 15.9733 19.8998 15.3448 20.456C14.8723 20.8743 14.4337 21.331 13.9792 21.7696C13.6401 22.0974 13.3439 22.4682 12.8375 22.5767C12.6634 22.6129 12.4983 22.7508 12.3582 22.8752C11.6188 23.5421 10.8908 24.2181 10.1606 24.8941C9.32403 25.6674 8.49654 26.4497 7.65549 27.2184C7.43166 27.4218 7.16487 27.5778 6.93652 27.7768C6.64939 28.0255 6.52277 28.3511 6.53634 28.7377C6.5499 29.1695 6.56121 29.6059 6.53408 30.0377C6.49338 30.7092 6.28764 31.3988 6.39164 32.0409C6.6946 33.8971 6.45042 35.7533 6.53182 37.6072C6.54312 37.8717 6.66521 38.1837 6.37355 38.4098C6.3306 38.4415 6.33512 38.5952 6.37129 38.6585C6.67199 39.1604 6.50921 39.7098 6.53408 40.2366C6.56121 40.7838 6.54086 41.3332 6.54086 41.8826C6.54086 42.6626 6.51147 43.4448 6.5499 44.2226C6.5906 45.0614 6.69234 45.9002 6.77599 46.8136C6.30799 46.8136 5.91233 46.8136 5.51667 46.8136C3.95665 46.8136 2.39663 46.8158 0.836609 46.8091C0.714521 46.8091 0.594693 46.7345 0.472604 46.6938C0.522344 46.5988 0.556255 46.4903 0.621821 46.4089C1.282 45.604 1.73645 44.7177 1.68445 43.6438C1.65053 42.9655 1.94219 42.3257 1.87436 41.6339C1.8088 40.9759 1.77488 40.2909 1.88793 39.6465C1.9761 39.1469 2.10723 38.6427 2.01906 38.1566C1.71158 36.4496 1.90375 34.7358 1.86758 33.0266C1.83141 31.2948 1.8608 29.5606 1.8608 27.8265C1.8608 26.0924 1.85401 24.3606 1.86758 22.6265C1.86984 22.3303 1.74323 22.0115 2.02132 21.7311C2.10723 21.643 2.08689 21.3762 2.02584 21.2292C1.71158 20.456 1.90375 19.6556 1.86758 18.8711C1.83593 18.1793 1.88341 17.4829 1.85401 16.7911C1.82688 16.149 1.72288 15.5114 1.69349 14.8693C1.6641 14.2363 1.77941 13.5806 1.65958 12.9679C1.54653 12.3801 1.65731 11.7561 1.47644 11.227C1.26844 10.6211 1.43349 10.0445 1.33627 9.46802C1.28653 9.1741 1.11018 8.90957 1.14635 8.58401C1.1554 8.5094 0.908957 8.38957 0.764259 8.31722C-0.0474045 7.90799 -0.868112 7.51686 -1.67525 7.09407C-1.96691 6.94485 -2.22465 6.72781 -2.55927 6.49719ZM6.52503 21.8804C6.7986 21.7063 7.00887 21.6023 7.18296 21.4531C7.69844 21.0144 8.16645 20.5148 8.71359 20.1259C9.20194 19.7777 9.57951 19.3165 10.0475 18.9615C10.762 18.4212 11.4561 17.865 12.1004 17.2433C12.7742 16.5944 13.475 15.9749 14.1669 15.3464C14.2234 15.2966 14.3116 15.2831 14.3862 15.2537C14.5693 15.1768 14.5738 15.0411 14.445 14.9326C14.2799 14.7924 14.1646 14.6206 13.9159 14.5437C13.3281 14.3629 12.8262 13.974 12.2768 13.7027C10.5562 12.8526 8.86733 11.9301 7.08348 11.2089C6.92295 11.1433 6.74434 11.1253 6.56799 11.0823C6.43008 12.9792 6.71721 14.8083 6.37355 16.6192C6.30573 16.981 6.38938 17.3699 6.35999 17.7407C6.25147 19.1062 6.66521 20.4402 6.52503 21.8804Z" fill="#1E1E1E"/>
<path d="M63.7304 47.5617C63.4026 47.9732 63.0747 48.3847 62.7469 48.7939C62.5502 49.0404 62.2608 49.176 62.0664 49.4451C61.881 49.7051 61.5486 49.8543 61.2999 50.0736C61.0399 50.3019 60.8455 50.6614 60.5493 50.7767C60.1966 50.9146 60.2034 51.3442 59.7919 51.4369C59.4754 51.5093 59.2289 51.8665 58.935 52.0767C58.6049 52.3141 58.2635 52.5425 57.9154 52.7505C57.3592 53.0828 56.8324 53.4581 56.2672 53.7792C55.4894 54.2223 54.6619 54.5208 53.8593 54.8848C53.1562 55.2036 52.4101 55.4523 51.6617 55.6399C51.0987 55.7801 50.4815 55.6987 49.9208 55.8457C49.0481 56.0763 48.1731 55.9768 47.3004 55.9971C46.4051 56.0175 45.5075 56.0401 44.6145 55.9904C43.8254 55.9451 43.0409 55.7937 42.2767 55.5721C41.6346 55.3844 40.997 55.1719 40.364 54.9594C39.7264 54.7469 39.1408 54.4258 38.5417 54.1251C37.2281 53.4672 36.0411 52.6216 34.8135 51.8326C34.5309 51.6517 34.3206 51.3623 34.0448 51.1679C33.6875 50.9146 33.3348 50.6908 33.2376 50.2092C33.215 50.0962 32.9867 50.0261 32.8555 49.9311C32.4486 49.6418 31.9873 49.4518 31.6844 48.9974C31.4176 48.5972 31.0039 48.2943 30.6602 47.9438C29.9344 47.2068 29.2969 46.4109 28.7339 45.5382C28.2275 44.7514 27.6012 44.0415 27.0473 43.2864C26.5341 42.5855 26.0299 41.8823 25.3991 41.2764C25.1956 41.082 25.1165 40.7609 24.9582 40.5122C24.4337 39.6893 23.7735 38.9613 23.3417 38.0614C23.0975 37.5527 22.6001 37.1661 22.1728 36.6777C21.9422 36.8993 21.7409 37.0938 21.5375 37.2859C21.2413 37.5685 21.1079 37.9031 21.1102 38.3259C21.1237 40.1166 21.0242 41.9163 21.1508 43.6978C21.2232 44.7152 21.2616 45.7259 21.2933 46.7297C20.6715 47.0621 19.9887 47.0982 19.3851 46.9581C18.3066 46.7094 17.2304 46.9061 16.1136 46.7817C16.3736 46.3273 16.767 45.9474 16.8732 45.4206C16.8823 45.3709 16.9456 45.3302 16.9501 45.2805C17.0134 44.67 17.1468 44.0528 17.1061 43.4469C17.0541 42.6714 17.3616 41.9434 17.3028 41.1769C17.296 41.1001 17.3141 40.9893 17.3638 40.9463C17.7143 40.6456 17.7708 40.3653 17.3887 40.0352C17.2666 39.9312 17.2598 39.1851 17.296 38.9183C17.3186 38.7487 17.3005 38.5724 17.3005 38.3983C17.3005 36.4336 17.3118 34.4688 17.2937 32.5041C17.2892 32.0655 17.1626 31.6292 17.1355 31.1883C17.1061 30.7271 17.1287 30.2636 17.1287 29.8023C17.1287 29.3411 17.2214 28.8528 17.1106 28.4209C16.8144 27.2611 17.0247 26.0945 16.9591 24.9324C16.932 24.444 16.9207 24.4937 16.4369 24.2541C15.7654 23.9217 15.0442 23.7363 14.2822 23.4628C14.7864 22.8116 15.3313 22.2532 15.9259 21.7829C16.3261 21.4664 16.7127 21.1408 17.0541 20.7723C17.3955 20.406 17.7414 20.3947 18.1868 20.5462C19.1748 20.8808 20.1493 21.2561 21.1395 21.5794C22.539 22.0361 23.8911 22.6217 25.2906 23.0762C25.7925 23.2389 26.3283 23.3972 26.7828 23.6482C27.2259 23.8923 27.6871 24.1433 28.1031 24.444C28.6096 24.8103 28.9736 25.3031 29.2652 25.848C29.6518 26.5693 30.0452 27.2882 29.9751 28.1609C29.9593 28.3508 30.0904 28.5747 30.2058 28.751C30.3776 29.0156 30.3369 29.2077 30.1131 29.4112C29.2946 30.1618 28.4852 30.9237 27.669 31.6766C26.9388 32.3526 26.2017 33.0219 25.4353 33.725C25.632 34.3468 26.0547 34.8555 26.4278 35.3642C27.5718 36.9264 28.4829 38.6357 29.6157 40.2047C29.8734 40.562 30.1334 40.9169 30.3979 41.2674C31.0604 42.1491 31.7251 43.0309 32.3898 43.9104C32.4395 43.9759 32.4847 44.0483 32.5458 44.1048C33.6649 45.1946 34.506 46.5285 35.6658 47.5843C36.6945 48.5181 37.8227 49.3139 38.9554 50.112C39.9299 50.7993 41.0061 51.2945 42.0597 51.8326C42.6995 52.1581 43.4049 52.3435 44.0606 52.651C44.3952 52.8093 44.8021 52.8635 45.1774 52.8658C45.4714 52.8681 45.7155 52.9675 45.971 53.0602C46.3418 53.1936 46.7194 53.2434 47.115 53.2343C47.8657 53.2162 48.6185 53.2501 49.3692 53.223C49.9344 53.2027 50.4544 53.3609 50.9834 53.5192C51.3384 53.6255 51.6662 53.6503 51.9941 53.3338C52.4123 52.9314 53.0205 52.807 53.5541 52.7392C54.3228 52.642 55.0124 52.3119 55.7607 52.1785C56.179 52.1039 56.5905 51.9547 56.9816 51.7806C57.3727 51.6065 57.8001 51.4686 58.1505 51.2651C58.614 50.9938 59.1001 50.7451 59.5477 50.4398C60.1763 50.0125 60.8025 49.5875 61.4537 49.1918C62.1387 48.7758 62.7175 48.1902 63.3483 47.6815C63.4478 47.6002 63.5654 47.5391 63.6739 47.469C63.6829 47.5029 63.7055 47.5323 63.7304 47.5617ZM21.3521 31.9547C21.6008 31.5387 21.9987 31.3578 22.2926 31.0504C22.7516 30.5733 23.3213 30.2048 23.8323 29.7775C24.0516 29.5921 24.2076 29.3004 24.454 29.1829C25.0712 28.8844 25.4081 28.2988 25.901 27.8783C26.0253 27.7721 26.0163 27.6274 25.8196 27.5663C25.641 27.5098 25.4624 27.4533 25.286 27.3922C25.0577 27.3154 24.7525 27.304 24.6191 27.1458C24.2822 26.7524 23.8978 26.6416 23.4095 26.6868C23.267 26.7004 23.111 26.5828 22.9618 26.524C22.6634 26.4087 22.3559 26.1826 22.0688 26.2075C21.7749 26.2324 21.5827 25.8593 21.3023 26.0719C20.9745 26.3206 21.3091 26.6032 21.3001 26.87C21.2594 28.2536 21.282 29.6396 21.2775 31.0255C21.2775 31.1905 21.3023 31.4098 21.2119 31.5116C20.97 31.7829 21.3656 31.7512 21.3521 31.9547Z" fill="#1E1E1E"/>
<path d="M122.552 11.4391C122.616 12.6464 122.182 13.6322 121.596 14.5659C121.436 14.8214 121.205 15.0362 121.056 15.2962C120.904 15.5585 120.461 15.5087 120.445 15.8954C120.065 15.9361 119.733 16.1395 119.326 16.1328C117.045 16.1079 114.761 16.1214 112.48 16.1214C112.306 16.1214 112.134 16.1147 111.96 16.1237C111.598 16.1418 111.469 16.2707 111.465 16.6437C111.458 17.5096 111.463 18.3778 111.463 19.2438C111.463 19.8497 111.483 20.4579 111.458 21.0638C111.417 22.0812 111.325 23.0963 111.295 24.1115C111.266 25.1221 111.284 26.1327 111.293 27.1456C111.295 27.3536 111.191 27.5073 111.133 27.686C110.974 28.1585 111.268 28.6084 111.354 29.0628C111.393 29.2686 111.438 29.4879 111.463 29.7027C111.562 30.5279 111.304 31.3305 111.298 32.1445C111.277 34.8598 111.3 37.5751 111.282 40.2905C111.277 40.9416 111.535 41.5521 111.476 42.2122C111.42 42.843 111.352 43.5077 111.494 44.1114C111.641 44.7331 111.589 45.3413 111.644 45.954C111.668 46.2186 111.766 46.474 111.843 46.7793C109.616 46.7793 107.436 46.7793 105.22 46.7793C105.566 46.2954 105.948 45.8636 106.208 45.3707C106.459 44.8959 106.606 44.3601 106.606 43.8039C106.606 41.898 106.475 39.9785 106.642 38.0861C106.821 36.0536 106.74 34.0278 106.774 32.002C106.808 29.9514 106.774 27.9007 106.789 25.8478C106.792 25.5539 106.952 25.2577 106.943 24.9661C106.927 24.4393 106.932 23.8809 106.753 23.4016C106.595 22.9765 106.631 22.5763 106.611 22.1626C106.593 21.7873 106.611 21.412 106.606 21.0366C106.593 19.7864 106.342 18.5519 106.419 17.2949C106.437 16.9851 106.278 16.6663 106.188 16.2933C104.813 16.2933 103.405 16.3001 101.996 16.291C101.248 16.2865 100.479 16.4131 99.7829 15.9858C99.7219 15.9474 99.5772 15.9971 99.4935 16.0446C98.9011 16.3882 98.2704 16.5103 97.5876 16.4741C97.0404 16.4448 96.491 16.4674 95.858 16.4674C95.8896 16.282 95.9055 16.1056 95.9552 15.9383C96.0682 15.5449 96.1135 15.1199 96.2356 14.7513C96.4684 14.0482 96.7307 13.3247 97.2371 12.7414C97.4361 12.513 97.7504 12.3684 97.7911 12.0179C98.198 11.8845 98.5326 11.5929 99.0097 11.6019C100.482 11.629 101.956 11.6109 103.43 11.6132C103.678 11.6132 103.945 11.5544 104.137 11.785C104.506 11.4323 104.997 11.7059 105.419 11.5296C105.702 11.412 106.089 11.4323 106.392 11.516C106.55 11.5612 106.708 11.6087 106.869 11.6087C109.527 11.6132 112.184 11.611 114.843 11.611C116.107 11.2899 117.395 11.473 118.67 11.4436C119.939 11.4165 121.209 11.4391 122.552 11.4391Z" fill="#1E1E1E"/>
<path d="M70.5109 46.838C71.0942 45.9472 71.5713 45.1446 71.5848 44.1249C71.5939 43.4851 71.7951 42.8588 71.7544 42.2009C71.7137 41.5385 71.7001 40.867 71.7634 40.209C71.8019 39.8134 71.6029 39.4584 71.7228 39.0447C71.8313 38.6762 71.7454 38.2511 71.7454 37.8487C70.5019 37.7718 69.29 37.6949 68.0782 37.6271C67.7639 37.609 67.4474 37.6248 67.1286 37.6248C67.2236 37.0054 67.4225 36.4446 67.7526 35.9269C68.0872 35.4046 68.354 34.8349 68.7203 34.3375C69.082 33.8491 69.6699 33.7203 70.2441 33.6434C70.529 33.605 70.8207 33.6456 71.1101 33.6343C71.413 33.6208 71.5554 33.4738 71.569 33.1641C71.5803 32.9041 71.5554 32.6418 71.5758 32.3841C71.5961 32.1422 71.4854 31.8867 71.7069 31.6538C71.7951 31.5611 71.7861 31.3101 71.7363 31.1587C71.404 30.1254 71.6301 29.0651 71.5758 28.0205C71.5464 27.444 71.5713 26.8652 71.5713 26.2864C71.5713 25.9247 71.5622 25.5788 71.413 25.2261C71.2774 24.905 71.4356 24.541 71.2638 24.1589C71.11 23.8198 71.1168 23.3518 71.0761 22.9448C71.0038 22.201 70.8885 21.473 70.7099 20.7495C70.6782 20.6206 70.685 20.5053 70.893 20.4465C71.6007 20.2453 72.9029 20.2408 73.7146 20.4171C74.0718 20.494 74.4562 20.451 74.827 20.4556C75.5278 20.4646 75.5572 20.4872 75.5595 21.1768C75.5618 23.6615 75.5459 26.1485 75.5685 28.6332C75.5753 29.4472 75.6997 30.2611 75.7268 31.075C75.7562 31.9093 75.7336 32.7436 75.7336 33.6072C77.6305 33.6072 79.5002 33.6072 81.4559 33.6072C81.4559 33.302 81.4763 32.9651 81.4537 32.6305C81.3361 30.8851 81.6888 29.1578 81.6413 27.4123C81.5938 25.6511 81.6006 23.8853 81.6481 22.1241C81.6617 21.6041 81.8629 21.0863 81.786 20.4872C82.0189 20.4759 82.2382 20.4488 82.4552 20.4578C83.4794 20.5053 84.4765 20.1503 85.5052 20.2792C85.6476 20.2973 85.8195 20.234 85.9325 20.2928C86.0817 20.3742 86.2242 20.5189 86.301 20.6726C86.3598 20.7879 86.3621 20.9823 86.3033 21.0954C86.0433 21.6064 86.2513 22.1671 86.1202 22.6712C85.8941 23.5439 86.0184 24.4189 85.9551 25.2916C85.928 25.6737 85.7494 26.0309 85.781 26.4356C85.8104 26.8177 85.8489 27.2089 85.6318 27.5842C85.5436 27.7357 85.6024 27.9821 85.6205 28.1833C85.7245 29.3522 85.46 30.503 85.4464 31.6674C85.4329 32.8227 85.4555 33.9803 85.4351 35.1356C85.4306 35.3685 85.3492 35.6217 85.2339 35.8274C85.0191 36.2163 84.992 36.5532 85.313 36.8991C85.3967 36.9895 85.4351 37.1478 85.4374 37.2744C85.4487 37.9097 85.4306 38.5473 85.4464 39.1826C85.4622 39.7976 85.4396 40.4035 85.5866 41.0252C85.729 41.6266 85.6182 42.2891 85.6182 42.9244C85.6182 44.195 85.6182 45.4656 85.6182 46.7747C83.8932 46.7747 82.1772 46.7747 80.339 46.7747C80.7347 46.4808 80.9133 46.0919 81.3271 45.9382C81.3926 45.9133 81.4582 45.7596 81.4491 45.6759C81.3768 45.1062 81.5961 44.5681 81.6232 44.0119C81.6504 43.4647 81.6142 42.9131 81.6323 42.366C81.6549 41.7171 81.3768 41.1066 81.4401 40.4419C81.5057 39.784 81.474 39.1125 81.4491 38.4501C81.4265 37.8509 81.162 37.6271 80.5538 37.6248C79.9185 37.6203 79.2809 37.6022 78.6479 37.6316C78.2477 37.6497 77.8362 37.6271 77.5152 37.4349C76.8301 37.028 76.344 37.6407 75.7562 37.7062C75.5437 37.7288 75.555 38.0092 75.5572 38.2172C75.564 39.1125 75.5708 40.0101 75.5527 40.9054C75.5482 41.1745 75.6861 41.4819 75.3922 41.708C75.3492 41.7397 75.3718 41.8753 75.3877 41.959C75.4397 42.2258 75.503 42.4903 75.5572 42.7548C75.6138 43.0239 75.4284 43.3223 75.6838 43.5733C75.7449 43.6343 75.7291 43.7858 75.7291 43.8966C75.7313 44.706 75.7359 45.5154 75.7268 46.3248C75.7223 46.6504 75.5776 46.8358 75.2882 46.8086C74.203 46.7046 73.1426 47.0279 72.0641 46.985C71.5758 46.9646 71.0829 46.8923 70.5109 46.838Z" fill="#1E1E1E"/>
<path d="M43.102 25.6214C43.9136 25.6915 44.7411 25.6893 45.5347 25.8521C46.4504 26.0397 47.3299 26.3902 48.1212 26.9192C48.4603 27.1453 48.8153 27.351 49.1363 27.5997C49.3059 27.7331 49.4144 27.9411 49.5501 28.1152C49.6179 28.2034 49.6721 28.3074 49.7558 28.3752C50.9744 29.318 50.5833 28.9156 51.8087 30.6994C52.2224 31.3031 52.4892 31.9814 52.8578 32.6031C53.016 32.8699 52.9437 33.1502 53.0477 33.3922C53.2896 33.9642 53.3868 34.5497 53.3687 35.167C53.3597 35.5242 53.2715 35.904 53.5338 36.2228C53.5473 36.2409 53.536 36.2793 53.536 36.3087C53.536 36.424 53.5812 36.5665 53.5292 36.6501C53.172 37.238 53.4659 37.9072 53.2647 38.5312C53.059 39.1665 52.9708 39.8425 52.6701 40.453C52.4937 40.8124 52.331 41.181 52.1365 41.5314C51.9263 41.909 51.6843 42.2685 51.4583 42.637C51.4311 42.6822 51.4379 42.7523 51.404 42.7862C50.5765 43.5911 49.8508 44.5226 48.7881 45.0471C48.2636 45.3071 47.8295 45.7729 47.1897 45.7887C46.9975 46.0555 46.7149 45.9379 46.4752 45.9379C46.0999 45.9402 45.7608 45.9967 45.4872 46.277C45.1956 46.5777 44.8361 46.6659 44.4246 46.6433C43.9928 46.6207 43.5587 46.6297 43.1246 46.641C42.9347 46.6456 42.7583 46.6523 42.5593 46.7405C42.3355 46.84 42.0258 46.7541 41.7545 46.7315C41.6211 46.7202 41.4922 46.641 41.3611 46.6433C40.6082 46.6523 39.8644 46.5077 39.1951 46.2205C38.5621 45.9492 37.8182 45.8452 37.3367 45.2664C36.4685 45.0562 35.8784 44.4299 35.3652 43.7833C34.8723 43.1615 34.3591 42.5511 33.9091 41.8886C33.6152 41.4568 33.267 41.0634 33.154 40.5502C33.0839 40.2336 33.0138 39.8267 33.154 39.5803C33.3394 39.2524 33.1585 39.1055 32.9935 39.0376C32.4283 38.8025 32.3333 38.3458 32.1796 37.8167C31.906 36.8785 32.1208 35.9492 32.0326 35.0223C32.2903 34.7035 32.1886 34.3259 32.2089 33.9687C32.2157 33.8624 32.2203 33.7268 32.2836 33.6567C32.8307 33.053 33.0432 32.2888 33.2331 31.5382C33.4163 30.8147 33.769 30.2292 34.2958 29.7227C34.7547 29.2818 35.2272 28.8523 35.6365 28.3707C36.1565 27.7603 36.8483 27.3849 37.4701 26.9192C37.8295 26.6502 38.3156 26.6162 38.7181 26.3766C39.0753 26.1641 39.5275 26.0962 39.948 26.0126C40.988 25.8068 42.028 25.5988 43.102 25.6214ZM35.5958 36.2025C36.0321 36.6818 36.2989 37.2357 36.5024 37.7647C36.7353 38.3684 37.0834 38.9088 37.305 39.5102C37.6306 40.3964 38.3563 40.9797 39.0391 41.5427C39.3918 41.8344 39.7287 42.273 40.2713 42.3046C40.5178 42.689 40.9428 42.4041 41.2865 42.5759C41.707 42.7862 42.2496 42.7568 42.7402 42.8201C43.2489 42.8857 43.7486 42.802 44.2234 42.6415C45.035 42.3702 45.9213 42.2459 46.5498 41.5698C47.1196 41.4116 47.2892 40.8531 47.6328 40.471C47.9041 40.1703 48.1189 39.8131 48.3292 39.4649C48.8062 38.6782 49.0414 37.819 49.0255 36.8966C49.012 36.0804 49.1114 35.2574 48.856 34.457C48.7248 34.0478 48.5417 33.6318 48.5304 33.2158C48.5191 32.8315 48.3246 32.6302 48.0873 32.4426C47.8566 32.264 47.5763 32.1487 47.3185 32.0062C47.3231 31.5608 46.8686 31.5721 46.6516 31.3483C45.5731 30.2382 44.2053 29.8335 42.7018 29.8222C42.4079 29.8199 42.1162 29.9759 41.8223 29.9782C40.5155 29.9895 39.4597 30.5796 38.5191 31.4071C38.189 31.6988 37.929 32.0763 37.6577 32.4313C37.1988 33.0327 36.7217 33.677 36.5906 34.4028C36.4549 35.1398 36.2175 35.7277 35.5958 36.2025Z" fill="#1E1E1E"/>
<path d="M93.4251 33.6362C93.4251 34.2354 93.5269 34.7803 93.4048 35.2686C93.1086 36.4578 93.3347 37.6539 93.251 38.8431C93.606 40.0753 93.3234 41.3369 93.4568 42.655C93.6851 42.655 93.9338 42.655 94.1848 42.655C96.1495 42.655 98.1142 42.6346 100.079 42.664C101.065 42.6798 101.894 42.4244 102.568 41.5381C102.613 42.3023 102.828 42.9512 102.801 43.652C102.758 44.6853 102.79 45.723 102.79 46.815C101.815 46.815 100.866 46.8625 99.923 46.8037C98.7495 46.7314 97.6055 47.0027 96.4412 46.9914C95.2858 46.9801 94.1237 46.9213 92.9752 47.0117C92.2042 47.0728 91.4197 47.2288 90.6917 47.5498C90.3028 47.7217 89.9094 47.8777 89.4844 48.054C89.4075 47.2446 89.3125 46.4691 89.2673 45.6914C89.2334 45.0877 89.2402 44.4773 89.2673 43.8713C89.2809 43.5458 89.3962 43.227 89.4278 42.9014C89.4572 42.5872 89.4844 42.2571 89.4256 41.9496C89.1023 40.2471 89.3035 38.5288 89.2673 36.8196C89.2312 35.0877 89.2605 33.3536 89.2605 31.6195C89.2605 29.8854 89.2605 28.1536 89.2605 26.4194C89.2605 24.6853 89.2605 22.9535 89.2605 21.2194C89.2605 20.2924 89.5341 20.0075 90.3707 20.3082C90.9472 20.514 91.4943 20.4461 92.0414 20.419C92.2811 20.4077 92.5637 20.2585 92.8373 20.2856C93.1922 20.3195 93.5404 20.4032 93.8931 20.4507C94.2458 20.4981 94.5918 20.4778 94.9603 20.5863C95.3469 20.6994 95.8488 20.7627 96.2784 20.4801C96.4005 20.3987 96.613 20.4529 96.7848 20.4529C98.6636 20.4529 100.54 20.4529 102.419 20.4529C102.505 20.4529 102.593 20.4484 102.679 20.4529C102.98 20.4755 103.133 20.6157 103.133 20.9255C103.131 22.4244 103.12 23.9234 103.109 25.4201C103.109 25.4427 103.072 25.4631 103.032 25.5106C102.781 25.3568 102.532 25.1963 102.274 25.0539C101.994 24.8979 101.716 24.7034 101.413 24.6288C100.958 24.518 100.481 24.4525 100.016 24.4502C97.8497 24.4321 95.6815 24.4434 93.4975 24.4434C93.3302 25.3817 93.1764 26.3222 93.2601 27.2831C93.3008 27.7511 93.5088 28.201 93.4296 28.6849C93.407 28.8205 93.441 29.0014 93.3641 29.0873C93.1448 29.336 93.4522 29.431 93.511 29.4445C93.6987 29.4943 93.909 29.4717 94.1079 29.4717C96.3032 29.4717 98.4986 29.4717 100.694 29.4739C100.997 29.4739 101.282 29.4807 101.585 29.6299C101.985 29.8289 101.994 29.7701 101.836 30.1771C101.501 31.034 101.105 31.8524 100.547 32.594C100.273 32.958 99.9953 33.2225 99.5318 33.3762C99.048 33.5368 98.5868 33.643 98.0803 33.6408C96.5497 33.6272 95.0213 33.6362 93.4251 33.6362Z" fill="#1E1E1E"/>
<path d="M55.7854 24.5114C54.7658 24.1135 53.7461 23.7156 52.6609 23.2905C52.9277 22.9785 53.2374 22.6733 53.4771 22.3206C53.6466 22.0719 54.0016 22.09 54.1124 21.7328C54.1938 21.4705 54.4787 21.2625 54.6618 21.0161C54.9195 20.6679 55.3174 20.4147 55.6769 20.1524C55.7674 20.0869 55.9731 20.0869 56.0726 20.1434C56.6649 20.4848 57.3477 20.5458 57.974 20.7855C58.5754 21.0161 59.1632 21.267 59.7375 21.5474C60.2281 21.7893 60.7753 21.8232 61.2772 22.0131C62.6518 22.5331 64.0558 22.974 65.444 23.4624C66.4049 23.7992 67.1985 24.4346 67.7886 25.348C68.0983 25.8295 68.4329 26.2885 68.6206 26.8289C68.7698 27.2607 68.8602 27.7129 68.9733 28.156C69.014 28.312 69.0389 28.4748 69.0863 28.6285C69.2152 29.0332 69.1655 29.3588 68.8557 29.7025C68.546 30.0461 68.3357 30.4644 67.8767 30.6701C67.7321 30.7357 67.6348 30.8894 67.4336 30.8623C66.9837 30.8035 66.735 31.0138 66.527 31.4253C66.3303 31.8141 66.0432 32.2008 65.6972 32.4608C64.7341 33.1888 63.9925 34.1497 63.0723 34.9093C62.3669 35.4904 61.7316 36.137 61.0714 36.7587C60.9154 36.9057 60.6984 36.9916 60.5401 37.1363C60.4474 37.22 60.3954 37.3624 60.3547 37.489C60.2598 37.7694 60.0744 38.0158 60.1241 38.3504C60.2598 39.2593 59.8415 40.1614 59.9794 41.0454C60.2033 42.4969 60.0586 43.9461 60.1445 45.3931C60.1716 45.8521 60.3886 46.2997 60.2711 46.7949C58.5031 46.7949 56.7486 46.7949 54.9557 46.7949C55.218 46.4399 55.5006 46.1211 55.7086 45.7594C55.9957 45.2597 56.1698 44.7239 56.1495 44.1202C56.1178 43.0531 56.1246 41.9837 56.1472 40.9165C56.1585 40.3897 56.0455 39.8584 56.2942 39.3339C56.4049 39.0988 56.4208 38.6963 56.2874 38.4928C56.0884 38.1899 56.3755 38.0022 56.3213 37.7513C56.2829 37.5704 56.2761 37.3737 56.4479 37.1951C56.5135 37.1295 56.4547 36.8673 56.3755 36.7452C56.1495 36.397 56.1314 36.0239 56.1336 35.6283C56.1427 34.3871 56.102 33.1436 56.1449 31.9046C56.206 30.1614 55.8375 28.4364 55.9641 26.6932C55.6905 25.9878 55.8239 25.2462 55.7854 24.5114ZM60.3796 31.7237C60.8114 31.3778 61.2161 30.9934 61.6774 30.695C62.6224 30.08 63.4816 29.3701 64.2525 28.5539C64.8019 27.9706 64.7228 27.6428 63.9722 27.3963C63.4115 27.2132 62.8802 26.96 62.3308 26.7565C61.752 26.544 61.1574 26.3857 60.6215 26.0669C60.4633 25.9742 60.1829 26.0782 60.149 26.2478C60.0699 26.6525 59.8799 27.1002 59.9817 27.4596C60.2304 28.3369 60.0857 29.2096 60.1196 30.0823C60.1422 30.643 60.1151 31.1992 60.3796 31.7237Z" fill="#1E1E1E"/>
<path d="M30.253 22.1902C30.6464 21.5006 30.9448 20.8608 31.3518 20.3001C31.8944 19.5562 32.4845 18.8327 33.3956 18.4914C33.5449 18.4348 33.7212 18.3602 33.8614 18.3941C34.7341 18.5953 35.1659 18.6067 35.903 18.4122C36.0364 18.3783 36.1811 18.376 36.3212 18.376C40.2439 18.3738 44.1666 18.3738 48.1774 18.3738C48.1299 18.5773 48.1164 18.7604 48.0463 18.9164C47.6551 19.7891 47.255 20.6596 46.5202 21.3152C46.2737 22.1246 45.4983 22.1133 44.8901 22.3575C44.8155 22.3869 44.6821 22.3982 44.6368 22.3552C44.3181 22.041 43.9292 22.2377 43.5765 22.1902C42.9118 22.102 42.2222 22.353 41.562 22.0319C41.4399 21.9731 41.2071 22.1178 41.0375 22.1924C40.7911 22.301 40.5921 22.4796 40.2869 22.2377C40.1422 22.1224 39.8483 22.1902 39.6222 22.1902C36.735 22.1879 33.8501 22.1879 30.9629 22.1879C30.764 22.1902 30.565 22.1902 30.253 22.1902Z" fill="#1E1E1E"/>
<path d="M28.7791 3.39525C28.6525 3.01994 28.6751 2.55871 28.9939 2.2874C29.394 1.94601 29.801 1.53453 30.416 1.55035C31.0807 1.56844 31.7703 1.43957 32.4033 1.57974C33.484 1.82166 34.5579 1.71314 35.6319 1.70861C36.2966 1.70635 36.9613 1.49383 37.6418 1.55261C37.834 1.56844 38.0013 1.57974 38.1935 1.69505C38.3902 1.81488 38.553 1.80583 38.3698 2.0794C38.2681 2.22862 38.2884 2.47732 38.1686 2.59489C37.9651 2.79385 37.9357 3.17368 37.5763 3.20533C37.1557 3.2415 36.6741 3.39977 36.3214 3.25507C35.7449 3.01994 35.2498 3.11489 34.7185 3.28446C34.6665 3.30029 34.6032 3.28672 34.4856 3.28672C34.4856 6.96973 34.4856 10.6527 34.4856 14.3493C33.7485 14.3493 33.0703 14.3493 32.349 14.3493C32.4847 13.9243 32.6407 13.5512 32.7153 13.1601C32.7741 12.8526 32.7266 12.527 32.7266 12.2082C32.7266 9.95412 32.7334 7.7 32.7198 5.44588C32.7176 4.94849 32.8397 4.433 32.5661 3.94917C32.5118 3.85421 32.6317 3.65977 32.6882 3.44273C31.7657 3.59647 30.8772 3.16011 29.9367 3.2822C29.5614 3.3342 29.1815 3.35681 28.7791 3.39525Z" fill="#1E1E1E"/>
<path d="M35.485 11.0912C35.5732 10.9442 35.6682 10.8583 35.6659 10.7746C35.6591 10.4152 35.684 10.1665 36.1226 10.0014C36.6404 9.80698 36.8212 8.71949 36.6788 8.19948C36.6585 8.12487 36.5386 8.05931 36.5477 7.99826C36.6743 6.95146 36.2786 5.92728 36.3804 4.84657C36.819 4.84657 37.2192 4.83752 37.6193 4.84882C37.9381 4.85787 38.0964 4.99804 38.0986 5.29648C38.1077 6.5965 38.1167 7.89878 38.0941 9.1988C38.0851 9.68715 38.0444 9.69394 38.4581 9.70072C39.0053 9.70976 39.5547 9.70298 40.1832 9.70298C40.1832 9.4475 40.1719 9.19654 40.1855 8.94784C40.2578 7.5913 40.3347 6.23476 40.4093 4.86239C40.8931 4.86239 41.3747 4.86239 41.9173 4.86239C41.9173 5.41405 42.0123 5.97475 41.8992 6.4925C41.6324 7.71113 41.7817 8.93428 41.7523 10.1529C41.7229 11.367 41.7455 12.5811 41.7455 13.7952C41.7455 13.9105 41.7726 14.0349 41.7387 14.1411C41.6731 14.3469 41.707 14.6069 41.2843 14.4147C40.9496 14.2632 40.4907 14.383 40.0272 14.383C40.0882 14.2497 40.1606 14.1524 40.1787 14.0439C40.2035 13.9037 40.1855 13.7568 40.1855 13.6121C40.1855 12.9474 40.1674 12.2827 40.1922 11.618C40.2103 11.107 40.2352 11.098 39.8531 11.0912C39.3331 11.0821 38.8108 11.0663 38.2931 11.1025C38.1371 11.1138 37.7414 11.1658 38.0896 11.5072C38.0941 12.4002 38.1122 13.2956 38.0919 14.1886C38.0873 14.3423 38.0376 14.7312 37.6872 14.4057C37.6532 14.3763 37.5538 14.3627 37.5289 14.3876C37.3752 14.539 37.1129 14.6634 37.0066 14.5413C36.7918 14.2949 36.672 14.5978 36.5296 14.5481C36.4572 14.5232 36.3691 14.3333 36.3781 14.3265C36.6178 14.1253 36.5138 13.854 36.5454 13.6098C36.6336 12.9722 36.7647 12.3392 36.7195 11.6858C36.6856 11.1997 36.611 11.1047 36.1181 11.0912C35.9237 11.0867 35.7292 11.0912 35.485 11.0912Z" fill="#1E1E1E"/>
<path d="M44.7186 9.70523C44.7186 10.7972 44.7186 11.8576 44.7186 12.9293C45.779 13.3769 46.8438 13.1961 47.9472 12.8027C47.9472 13.3905 47.9472 13.9512 47.9472 14.5616C47.1491 14.5616 46.3464 14.5571 45.5461 14.5616C44.748 14.5662 43.9341 14.4531 43.1337 15.041C43.1337 13.9942 43.1653 13.1056 43.1111 12.2216C43.0953 11.982 43.5248 11.9096 43.249 11.618C43.1382 11.5004 43.1382 11.254 43.1382 11.0663C43.1314 9.02018 43.1337 6.9718 43.1337 4.84882C43.4751 4.84882 43.812 4.84882 44.1511 4.84882C45.3629 4.84882 46.5748 4.85108 47.7866 4.84656C47.9607 4.84656 48.1099 4.84882 48.2456 5.00482C48.4039 5.18795 48.2388 5.28517 48.2139 5.43213C48.1529 5.78935 48.1936 6.1624 48.1936 6.56032C47.6125 6.26188 47.0292 6.45632 46.4708 6.27319C45.953 6.10362 45.3358 6.23701 44.7299 6.23701C44.7299 6.85424 44.7299 7.45337 44.7299 8.11582C45.1956 8.13391 45.7405 8.03895 46.1882 8.20399C46.672 8.3826 47.1423 8.20174 47.5967 8.35548C47.4113 8.58157 47.5018 8.89357 47.2825 9.14227C46.8868 9.59219 46.3555 9.59671 45.8603 9.69167C45.4963 9.75949 45.1165 9.70523 44.7186 9.70523Z" fill="#1E1E1E"/>
<path d="M65.7947 52.6601C65.7156 52.6058 65.6229 52.5651 65.5189 52.538C65.4985 52.5335 65.4782 52.5312 65.4579 52.5267C65.485 52.5199 65.5144 52.5154 65.5392 52.5041C65.6523 52.4611 65.7405 52.3955 65.8038 52.3096C65.8671 52.2237 65.8987 52.122 65.8987 52.0021C65.8987 51.8552 65.8671 51.7354 65.8038 51.6427C65.7405 51.55 65.6523 51.4799 65.5392 51.4324C65.4262 51.3872 65.2928 51.3623 65.1391 51.3623H64.4811V53.9194H65.1752C65.3403 53.9194 65.4895 53.8923 65.6184 53.838C65.7495 53.7837 65.8512 53.7001 65.9281 53.5893C66.005 53.4785 66.0434 53.3383 66.0434 53.171C66.0434 53.0535 66.0208 52.954 65.9779 52.8681C65.9349 52.7844 65.8739 52.7143 65.7947 52.6601ZM65.1368 51.6381C65.2657 51.6381 65.3742 51.672 65.4579 51.7376C65.5438 51.8054 65.5867 51.8981 65.5867 52.0202C65.5867 52.1016 65.5664 52.1694 65.5279 52.226C65.4895 52.2825 65.4352 52.3255 65.3674 52.3548C65.2996 52.3842 65.2227 52.3978 65.1368 52.3978H64.7886V51.6381H65.1368ZM65.6613 53.422C65.6139 53.4943 65.5483 53.5509 65.4646 53.5893C65.381 53.6277 65.2838 53.6481 65.1752 53.6481H64.7909V52.6691H65.1752C65.2589 52.6691 65.3335 52.6804 65.4013 52.7008C65.4692 52.7211 65.5279 52.7528 65.5777 52.7935C65.6274 52.8342 65.6658 52.8862 65.693 52.9472C65.7201 53.0082 65.7337 53.0783 65.7337 53.1552C65.7337 53.2592 65.7088 53.3496 65.6613 53.422Z" fill="#1E1E1E"/>
<path d="M67.1401 52.5496L66.4821 51.3649H66.1362L66.9863 52.8232V53.9242H67.2983V52.8186L68.1484 51.3649H67.8025L67.1401 52.5496Z" fill="#1E1E1E"/>
<path d="M70.6893 51.3285C70.5107 51.3285 70.3456 51.3601 70.1896 51.4257C70.0359 51.4913 69.9002 51.5817 69.7827 51.6993C69.6651 51.8168 69.5747 51.957 69.5091 52.1175C69.4435 52.2781 69.4096 52.4544 69.4096 52.6443C69.4096 52.8343 69.4435 53.0106 69.5091 53.1711C69.5747 53.3316 69.6651 53.4718 69.7827 53.5894C69.9002 53.707 70.0359 53.7997 70.1896 53.863C70.3434 53.9285 70.5107 53.9602 70.6893 53.9602C70.8769 53.9602 71.0329 53.9376 71.1618 53.8901C71.2884 53.8426 71.406 53.7725 71.5122 53.6776V53.2683C71.4535 53.343 71.3834 53.4108 71.2997 53.4673C71.2161 53.5238 71.1256 53.569 71.0239 53.6007C70.9222 53.6323 70.8114 53.6482 70.6893 53.6482C70.522 53.6482 70.366 53.6052 70.2213 53.5193C70.0766 53.4334 69.9613 53.3158 69.8731 53.1643C69.7849 53.0129 69.7397 52.8388 69.7397 52.6421C69.7397 52.4431 69.7849 52.2668 69.8731 52.1175C69.9613 51.9683 70.0788 51.8508 70.2213 51.7648C70.366 51.6789 70.522 51.636 70.6893 51.636C70.8114 51.636 70.9222 51.6518 71.0239 51.6835C71.1256 51.7151 71.2161 51.7603 71.2997 51.8168C71.3834 51.8734 71.4535 51.9412 71.5122 52.0158V51.6066C71.406 51.5116 71.2884 51.4415 71.1618 51.3941C71.0329 51.3511 70.8769 51.3285 70.6893 51.3285Z" fill="#1E1E1E"/>
<path d="M73.7755 52.3891H72.3692V51.3649H72.0594V53.9242H72.3692V52.6807H73.7755V53.9242H74.0875V51.3649H73.7755V52.3891Z" fill="#1E1E1E"/>
<path d="M74.3973 53.924H74.7432L75.0688 53.1575H76.0997L76.4253 53.924H76.7735L75.5865 51.238L74.3973 53.924ZM75.9777 52.8636H75.1954L75.5865 51.9434L75.9777 52.8636Z" fill="#1E1E1E"/>
<path d="M77.393 51.3649H77.0833V53.9219H77.393V51.3649Z" fill="#1E1E1E"/>
<path d="M79.916 53.2683L77.9784 51.238V53.924H78.2904V52.018L80.2257 54.0506V51.3646H79.916V53.2683Z" fill="#1E1E1E"/>
<path d="M83.0451 52.8068C83.1763 52.7457 83.278 52.6553 83.3549 52.54C83.4317 52.4247 83.4702 52.289 83.4702 52.133C83.4702 51.9748 83.4317 51.8391 83.3549 51.7238C83.278 51.6085 83.174 51.5203 83.0451 51.4593C82.914 51.3982 82.767 51.3666 82.602 51.3666H82.2176H82.0797H81.9079V53.9237H82.2176V52.8995H82.5296L83.2418 53.9237H83.6262L82.862 52.8701C82.9253 52.8542 82.9886 52.8339 83.0451 52.8068ZM82.2176 51.6379H82.602C82.7105 51.6379 82.8077 51.6582 82.8914 51.6967C82.975 51.7351 83.0406 51.7916 83.0881 51.864C83.1356 51.9363 83.1604 52.0268 83.1604 52.1308C83.1604 52.2348 83.1378 52.3252 83.0881 52.3975C83.0406 52.4699 82.975 52.5264 82.8914 52.5649C82.8077 52.6033 82.7105 52.6236 82.602 52.6236H82.2176V51.6379Z" fill="#1E1E1E"/>
<path d="M84.1261 51.3649H83.9543V53.9242H84.1261H84.264H85.4171V53.6303H84.264V52.6807H85.3425V52.3891H84.264V51.6565H85.4171V51.3649H84.264H84.1261Z" fill="#1E1E1E"/>
<path d="M85.6905 53.924H86.0364L86.362 53.1575H87.3929L87.7185 53.924H88.0667L86.8797 51.238L85.6905 53.924ZM87.2686 52.8636H86.4863L86.8775 51.9434L87.2686 52.8636Z" fill="#1E1E1E"/>
<path d="M89.3985 51.3285C89.2198 51.3285 89.0548 51.3601 88.8988 51.4257C88.745 51.4913 88.6094 51.5817 88.4918 51.6993C88.3743 51.8168 88.2838 51.957 88.2183 52.1175C88.1527 52.2781 88.1188 52.4544 88.1188 52.6443C88.1188 52.8343 88.1527 53.0106 88.2183 53.1711C88.2838 53.3316 88.3743 53.4718 88.4918 53.5894C88.6094 53.707 88.745 53.7997 88.8988 53.863C89.0525 53.9285 89.2198 53.9602 89.3985 53.9602C89.5861 53.9602 89.7421 53.9376 89.871 53.8901C89.9976 53.8426 90.1151 53.7725 90.2214 53.6776V53.2683C90.1626 53.343 90.0925 53.4108 90.0089 53.4673C89.9252 53.5238 89.8348 53.569 89.7331 53.6007C89.6313 53.6323 89.5205 53.6482 89.3985 53.6482C89.2311 53.6482 89.0751 53.6052 88.9304 53.5193C88.7857 53.4334 88.6704 53.3158 88.5823 53.1643C88.4941 53.0129 88.4489 52.8388 88.4489 52.6421C88.4489 52.4431 88.4941 52.2668 88.5823 52.1175C88.6704 51.9683 88.788 51.8508 88.9304 51.7648C89.0751 51.6789 89.2311 51.636 89.3985 51.636C89.5205 51.636 89.6313 51.6518 89.7331 51.6835C89.8348 51.7151 89.9252 51.7603 90.0089 51.8168C90.0925 51.8734 90.1626 51.9412 90.2214 52.0158V51.6066C90.1151 51.5116 89.9976 51.4415 89.871 51.3941C89.7444 51.3511 89.5861 51.3285 89.3985 51.3285Z" fill="#1E1E1E"/>
<path d="M90.4047 51.6565H91.0626V53.9242H91.3723V51.6565H92.0303V51.3649H90.4047V51.6565Z" fill="#1E1E1E"/>
<path d="M92.6698 51.3649H92.3601V53.9219H92.6698V51.3649Z" fill="#1E1E1E"/>
<path d="M95.3333 51.7061C95.2157 51.5885 95.08 51.4958 94.9218 51.428C94.7635 51.3601 94.5917 51.3285 94.404 51.3285C94.2186 51.3285 94.0468 51.3624 93.8885 51.428C93.7303 51.4958 93.5924 51.5885 93.4748 51.7061C93.3572 51.8236 93.2668 51.9638 93.2035 52.1221C93.1379 52.2826 93.1063 52.4544 93.1063 52.6421C93.1063 52.8275 93.1379 52.9993 93.2035 53.1621C93.269 53.3226 93.3595 53.4628 93.4748 53.5803C93.5924 53.6979 93.7303 53.7906 93.8885 53.8584C94.0468 53.9263 94.2186 53.9579 94.404 53.9579C94.5917 53.9579 94.7635 53.924 94.9218 53.8584C95.0778 53.7906 95.2157 53.6979 95.3333 53.5803C95.4508 53.4628 95.5413 53.3226 95.6046 53.1621C95.6701 53.0016 95.7018 52.8275 95.7018 52.6421C95.7018 52.4544 95.6701 52.2803 95.6046 52.1221C95.5413 51.9638 95.4508 51.8236 95.3333 51.7061ZM95.2473 53.1598C95.1637 53.3113 95.0484 53.4311 94.9037 53.517C94.759 53.6052 94.5917 53.6482 94.404 53.6482C94.2186 53.6482 94.0536 53.6052 93.9066 53.517C93.7597 53.4289 93.6444 53.309 93.5607 53.1598C93.4771 53.0083 93.4341 52.8365 93.4341 52.6443C93.4341 52.4522 93.4771 52.2803 93.5607 52.1289C93.6444 51.9774 93.7597 51.8575 93.9066 51.7716C94.0536 51.6835 94.2186 51.6405 94.404 51.6405C94.5917 51.6405 94.759 51.6835 94.9037 51.7716C95.0484 51.8598 95.1637 51.9796 95.2473 52.1289C95.331 52.2803 95.374 52.4522 95.374 52.6443C95.374 52.8365 95.3333 53.0083 95.2473 53.1598Z" fill="#1E1E1E"/>
<path d="M98.0778 53.2683L96.1425 51.238V53.924H96.4522V52.018L98.3898 54.0506V51.3646H98.0778V53.2683Z" fill="#1E1E1E"/>
<path d="M100.298 52.7125C100.232 52.6537 100.162 52.6039 100.088 52.5655C100.013 52.5271 99.9408 52.4954 99.873 52.4705C99.7237 52.4185 99.6062 52.3665 99.5203 52.3145C99.4344 52.2625 99.3733 52.206 99.3349 52.1472C99.2987 52.0885 99.2806 52.0229 99.2806 51.9528C99.2806 51.8691 99.3123 51.7945 99.3756 51.729C99.4389 51.6611 99.5406 51.6295 99.6785 51.6295C99.778 51.6295 99.8639 51.6498 99.9318 51.6883C100.002 51.7267 100.061 51.7765 100.108 51.8375C100.158 51.8985 100.196 51.9596 100.228 52.0229L100.495 51.8692C100.454 51.7787 100.395 51.6928 100.323 51.6114C100.251 51.53 100.162 51.4622 100.058 51.4102C99.9544 51.3582 99.8345 51.3311 99.6944 51.3311C99.5497 51.3311 99.423 51.3604 99.31 51.417C99.197 51.4735 99.1111 51.5526 99.0477 51.6521C98.9844 51.7516 98.9528 51.8646 98.9528 51.9912C98.9528 52.1088 98.9754 52.206 99.0206 52.2874C99.0658 52.3688 99.1246 52.4344 99.1947 52.4909C99.2648 52.5452 99.3394 52.5904 99.4185 52.6265C99.4954 52.6627 99.5677 52.6899 99.631 52.7125C99.7283 52.7464 99.821 52.7848 99.9069 52.8278C99.9928 52.8707 100.063 52.925 100.117 52.9951C100.171 53.0629 100.199 53.1556 100.199 53.2686C100.199 53.3862 100.158 53.4812 100.074 53.558C99.9905 53.6327 99.882 53.6711 99.7464 53.6711C99.6446 53.6711 99.5519 53.6485 99.4728 53.6055C99.3914 53.5626 99.319 53.5015 99.2557 53.4224C99.1902 53.3455 99.1291 53.2551 99.0703 53.1511L98.8217 53.3184C98.8782 53.4314 98.9505 53.5354 99.0387 53.6349C99.1269 53.7344 99.2309 53.8135 99.3484 53.8723C99.466 53.9311 99.5949 53.9627 99.7351 53.9627C99.8368 53.9627 99.9363 53.9447 100.029 53.9107C100.122 53.8768 100.208 53.8271 100.282 53.7638C100.357 53.7005 100.416 53.6236 100.459 53.5332C100.502 53.4427 100.522 53.341 100.522 53.2302C100.522 53.1126 100.502 53.0132 100.461 52.9295C100.416 52.8436 100.364 52.7712 100.298 52.7125Z" fill="#1E1E1E"/>
<path d="M101.799 53.924H102.145L102.469 53.1575H103.5L103.825 53.924H104.173L102.986 51.238L101.799 53.924ZM103.377 52.8636H102.595L102.986 51.9434L103.377 52.8636Z" fill="#1E1E1E"/>
<path d="M104.657 51.3649H104.486V53.9242H104.795V52.6807H105.763V52.3891H104.795V51.6565H105.801V51.3649H104.795H104.657Z" fill="#1E1E1E"/>
<path d="M107.449 52.8068C107.58 52.7457 107.682 52.6553 107.759 52.54C107.836 52.4247 107.874 52.289 107.874 52.133C107.874 51.9748 107.836 51.8391 107.759 51.7238C107.682 51.6085 107.578 51.5203 107.449 51.4593C107.318 51.3982 107.171 51.3666 107.006 51.3666H106.622H106.484H106.312V53.9237H106.622V52.8995H106.934L107.646 53.9237H108.03L107.266 52.8701C107.329 52.8542 107.393 52.8339 107.449 52.8068ZM106.622 51.6379H107.006C107.115 51.6379 107.212 51.6582 107.296 51.6967C107.379 51.7351 107.445 51.7916 107.492 51.864C107.54 51.9363 107.565 52.0268 107.565 52.1308C107.565 52.2348 107.542 52.3252 107.492 52.3975C107.445 52.4699 107.379 52.5264 107.296 52.5649C107.212 52.6033 107.115 52.6236 107.006 52.6236H106.622V51.6379Z" fill="#1E1E1E"/>
<path d="M108.668 51.3649H108.359V53.9219H108.668V51.3649Z" fill="#1E1E1E"/>
<path d="M110.386 51.3285C110.208 51.3285 110.043 51.3601 109.887 51.4257C109.733 51.4913 109.597 51.5817 109.48 51.6993C109.362 51.8168 109.272 51.957 109.206 52.1175C109.141 52.2781 109.107 52.4544 109.107 52.6443C109.107 52.8343 109.141 53.0106 109.206 53.1711C109.272 53.3316 109.362 53.4718 109.48 53.5894C109.597 53.707 109.733 53.7997 109.887 53.863C110.04 53.9285 110.208 53.9602 110.386 53.9602C110.574 53.9602 110.73 53.9376 110.859 53.8901C110.985 53.8426 111.103 53.7725 111.209 53.6776V53.2683C111.15 53.343 111.08 53.4108 110.997 53.4673C110.913 53.5238 110.823 53.569 110.721 53.6007C110.619 53.6323 110.508 53.6482 110.386 53.6482C110.219 53.6482 110.063 53.6052 109.918 53.5193C109.774 53.4334 109.658 53.3158 109.57 53.1643C109.482 53.0129 109.437 52.8388 109.437 52.6421C109.437 52.4431 109.482 52.2668 109.57 52.1175C109.658 51.9683 109.776 51.8508 109.918 51.7648C110.063 51.6789 110.219 51.636 110.386 51.636C110.508 51.636 110.619 51.6518 110.721 51.6835C110.823 51.7151 110.913 51.7603 110.997 51.8168C111.08 51.8734 111.15 51.9412 111.209 52.0158V51.6066C111.103 51.5116 110.985 51.4415 110.859 51.3941C110.732 51.3511 110.574 51.3285 110.386 51.3285Z" fill="#1E1E1E"/>
<path d="M113.456 53.924H113.805L112.618 51.238L111.431 53.924H111.774L112.098 53.1575H113.131L113.456 53.924ZM113.007 52.8636H112.224L112.615 51.9434L113.007 52.8636Z" fill="#1E1E1E"/>
</svg>
