<svg width="115" height="68" viewBox="0 0 115 68" fill="none" xmlns="http://www.w3.org/2000/svg">
<path d="M8.85086 16.7274C9.03371 16.6518 9.13041 16.6412 9.18316 16.585C9.55941 16.1894 10.0025 15.8782 10.4614 15.5934C10.7831 15.3929 11.0451 15.1345 11.3053 14.8707C11.7554 14.4189 12.1967 14.3908 12.74 14.7371C13.3008 15.0958 13.9092 15.3806 14.4964 15.6989C14.8973 15.6022 15.0696 15.9362 15.3368 16.1173C15.6603 16.3371 16.0207 16.5604 16.3952 16.6377C16.8963 16.7415 17.3218 16.9349 17.6822 17.2759C17.8211 17.4061 17.946 17.4676 18.1429 17.4781C18.389 17.4922 18.6563 17.5432 18.8708 17.661C19.3824 17.9441 19.952 18.1164 20.4162 18.4996C20.5815 18.6368 20.8311 18.6948 21.0527 18.7423C21.5625 18.8495 21.9318 19.2187 22.3907 19.4192C22.904 19.646 23.3911 19.929 23.9044 20.1594C24.4882 20.4196 24.8521 20.8503 25.1106 21.4305C25.2969 21.8472 25.5396 22.2323 25.6732 22.6806C25.8631 23.3153 25.9404 23.95 25.9017 24.6041C25.8947 24.7219 25.849 24.8959 25.7646 24.9416C25.4235 25.1245 25.2952 25.5148 24.9506 25.7064C24.6939 25.8506 24.4759 26.0845 24.2578 26.3042C23.799 26.7666 23.2627 27.1499 22.7739 27.5824C22.4065 27.9077 22.0654 28.2629 21.712 28.6039C21.4483 28.8589 21.2179 29.1472 20.8241 29.2316C20.6887 29.2597 20.5604 29.367 20.4514 29.4637C19.8764 29.9824 19.3103 30.5081 18.7424 31.0338C18.0919 31.635 17.4484 32.2434 16.7943 32.8412C16.6203 32.9994 16.4128 33.1207 16.2352 33.2754C16.012 33.4688 15.9135 33.722 15.924 34.0227C15.9346 34.3585 15.9434 34.6978 15.9223 35.0336C15.8906 35.5558 15.7306 36.0921 15.8115 36.5914C16.0471 38.0349 15.8572 39.4783 15.9205 40.92C15.9293 41.1257 16.0243 41.3684 15.7975 41.5442C15.764 41.5688 15.7676 41.6884 15.7957 41.7376C16.0295 42.1279 15.9029 42.5551 15.9223 42.9648C15.9434 43.3903 15.9276 43.8175 15.9276 44.2448C15.9276 44.8513 15.9047 45.4597 15.9346 46.0645C15.9662 46.7168 16.0454 47.3691 16.1104 48.0794C15.7465 48.0794 15.4388 48.0794 15.1311 48.0794C13.918 48.0794 12.7048 48.0811 11.4917 48.0759C11.3967 48.0759 11.3035 48.0178 11.2086 47.9862C11.2473 47.9123 11.2736 47.8279 11.3246 47.7646C11.838 47.1387 12.1914 46.4495 12.151 45.6144C12.1246 45.0869 12.3514 44.5894 12.2987 44.0514C12.2477 43.5397 12.2213 43.007 12.3092 42.5059C12.3778 42.1174 12.4798 41.7253 12.4112 41.3473C12.1721 40.0198 12.3215 38.6871 12.2934 37.3579C12.2653 36.0112 12.2881 34.6626 12.2881 33.3141C12.2881 31.9656 12.2828 30.6188 12.2934 29.2703C12.2951 29.04 12.1967 28.7921 12.4129 28.574C12.4798 28.5055 12.4639 28.298 12.4165 28.1837C12.1721 27.5824 12.3215 26.96 12.2934 26.3499C12.2688 25.8119 12.3057 25.2704 12.2828 24.7324C12.2617 24.2331 12.1809 23.7373 12.158 23.238C12.1352 22.7457 12.2248 22.2358 12.1316 21.7593C12.0437 21.3022 12.1299 20.8169 11.9892 20.4055C11.8275 19.9343 11.9558 19.486 11.8802 19.0377C11.8415 18.8091 11.7044 18.6034 11.7325 18.3502C11.7396 18.2922 11.5479 18.199 11.4354 18.1427C10.8042 17.8245 10.166 17.5203 9.53831 17.1916C9.3115 17.0755 9.11107 16.9067 8.85086 16.7274ZM15.9153 28.6901C16.128 28.5547 16.2915 28.4738 16.4269 28.3578C16.8278 28.0167 17.1917 27.6281 17.6172 27.3257C17.9969 27.055 18.2906 26.6963 18.6545 26.4203C19.2101 26.0001 19.7499 25.5676 20.2509 25.0841C20.7749 24.5795 21.3199 24.0977 21.8579 23.6089C21.9019 23.5703 21.9704 23.5597 22.0285 23.5368C22.1709 23.4771 22.1744 23.3716 22.0742 23.2872C21.9458 23.1782 21.8562 23.0446 21.6628 22.9848C21.2056 22.8441 20.8153 22.5417 20.3881 22.3307C19.0501 21.6697 17.7367 20.9523 16.3495 20.3915C16.2247 20.3405 16.0858 20.3264 15.9487 20.293C15.8414 21.7681 16.0647 23.1905 15.7975 24.5988C15.7447 24.8801 15.8098 25.1825 15.7869 25.4709C15.7025 26.5328 16.0243 27.5701 15.9153 28.6901Z" fill="black"/>
<path d="M60.4009 48.6614C60.1459 48.9813 59.891 49.3013 59.6361 49.6196C59.4831 49.8112 59.2581 49.9167 59.1068 50.1259C58.9627 50.3281 58.7042 50.4442 58.5108 50.6147C58.3086 50.7923 58.1574 51.0718 57.9271 51.1615C57.6528 51.2687 57.6581 51.6028 57.3381 51.6749C57.092 51.7312 56.9003 52.0089 56.6718 52.1725C56.4151 52.3571 56.1496 52.5346 55.8788 52.6964C55.4463 52.9548 55.0366 53.2467 54.5971 53.4964C53.9923 53.841 53.3488 54.0731 52.7246 54.3561C52.1778 54.604 51.5976 54.7974 51.0157 54.9434C50.5779 55.0524 50.0979 54.9891 49.6619 55.1034C48.9832 55.2827 48.3028 55.2053 47.6241 55.2211C46.9279 55.237 46.2299 55.2546 45.5354 55.2159C44.9218 55.1807 44.3117 55.0629 43.7174 54.8906C43.2181 54.7447 42.7223 54.5794 42.23 54.4141C41.7342 54.2489 41.2788 53.9992 40.8129 53.7654C39.7914 53.2537 38.8684 52.5962 37.9137 51.9826C37.6939 51.8419 37.5304 51.6169 37.3159 51.4657C37.0381 51.2687 36.7638 51.0947 36.6882 50.7202C36.6706 50.6323 36.4931 50.5778 36.3911 50.5039C36.0746 50.2789 35.7159 50.1312 35.4803 49.7778C35.2729 49.4666 34.9511 49.231 34.6839 48.9585C34.1195 48.3853 33.6237 47.7664 33.1859 47.0878C32.7921 46.4759 32.3051 45.9239 31.8743 45.3366C31.4752 44.7916 31.0831 44.2448 30.5926 43.7736C30.4344 43.6224 30.3728 43.3727 30.2497 43.1793C29.8418 42.5394 29.3285 41.9732 28.9926 41.2735C28.8028 40.8779 28.416 40.5772 28.0837 40.1975C27.9043 40.3698 27.7478 40.521 27.5896 40.6704C27.3593 40.8902 27.2556 41.1504 27.2573 41.4792C27.2679 42.8716 27.1905 44.2712 27.289 45.6566C27.3452 46.4478 27.3751 47.2337 27.3997 48.0143C26.9162 48.2728 26.3852 48.3009 25.9158 48.1919C25.0772 47.9985 24.2403 48.1515 23.3717 48.0548C23.5739 47.7014 23.8798 47.406 23.9625 46.9964C23.9695 46.9577 24.0187 46.926 24.0222 46.8873C24.0715 46.4126 24.1752 45.9327 24.1436 45.4615C24.1031 44.8584 24.3422 44.2923 24.2965 43.6962C24.2912 43.6365 24.3053 43.5503 24.344 43.5169C24.6165 43.2831 24.6605 43.065 24.3633 42.8084C24.2684 42.7275 24.2631 42.1473 24.2912 41.9398C24.3088 41.808 24.2948 41.6708 24.2948 41.5354C24.2948 40.0076 24.3036 38.4797 24.2895 36.9518C24.286 36.6107 24.1875 36.2714 24.1664 35.9286C24.1436 35.5699 24.1611 35.2095 24.1611 34.8508C24.1611 34.4921 24.2332 34.1124 24.1471 33.7766C23.9168 32.8746 24.0803 31.9674 24.0293 31.0637C24.0082 30.6839 23.9994 30.7226 23.6231 30.5362C23.101 30.2778 22.5401 30.1336 21.9476 29.9209C22.3397 29.4145 22.7634 28.9802 23.2258 28.6145C23.537 28.3684 23.8376 28.1152 24.1031 27.8286C24.3686 27.5438 24.6376 27.535 24.984 27.6528C25.7523 27.913 26.5101 28.2049 27.2802 28.4563C28.3685 28.8114 29.4199 29.2668 30.5082 29.6202C30.8985 29.7468 31.3152 29.8699 31.6686 30.065C32.0132 30.2549 32.3719 30.4501 32.6954 30.6839C33.0892 30.9687 33.3723 31.352 33.5991 31.7757C33.8997 32.3366 34.2057 32.8957 34.1512 33.5744C34.1389 33.7221 34.2408 33.8961 34.3305 34.0333C34.4641 34.239 34.4325 34.3884 34.2584 34.5466C33.6219 35.1304 32.9925 35.7229 32.3578 36.3083C31.7899 36.834 31.2167 37.3545 30.6207 37.9013C30.7737 38.3848 31.1025 38.7804 31.3926 39.1759C32.2822 40.3909 32.9908 41.72 33.8716 42.9402C34.072 43.218 34.2742 43.494 34.4799 43.7666C34.9951 44.4523 35.512 45.138 36.0289 45.8219C36.0676 45.8729 36.1027 45.9291 36.1502 45.9731C37.0205 46.8205 37.6746 47.8579 38.5765 48.6789C39.3765 49.4051 40.2538 50.024 41.1347 50.6446C41.8925 51.1791 42.7293 51.5641 43.5487 51.9826C44.0462 52.2358 44.5948 52.3799 45.1047 52.619C45.3649 52.7421 45.6813 52.7843 45.9732 52.7861C46.2018 52.7878 46.3916 52.8652 46.5903 52.9373C46.8787 53.041 47.1723 53.0797 47.48 53.0726C48.0637 53.0586 48.6492 53.085 49.2329 53.0639C49.6724 53.048 50.0768 53.1711 50.4882 53.2942C50.7643 53.3768 51.0192 53.3962 51.2741 53.15C51.5994 52.837 52.0723 52.7403 52.4873 52.6876C53.0851 52.612 53.6213 52.3553 54.2033 52.2516C54.5285 52.1936 54.8485 52.0775 55.1527 51.9421C55.4569 51.8068 55.7892 51.6995 56.0617 51.5413C56.4221 51.3303 56.8001 51.1369 57.1482 50.8995C57.637 50.5672 58.124 50.2367 58.6304 49.929C59.1631 49.6055 59.6132 49.1501 60.1037 48.7545C60.1811 48.6912 60.2725 48.6438 60.3569 48.5893C60.3639 48.6156 60.3815 48.6385 60.4009 48.6614ZM27.4454 36.5246C27.6388 36.2011 27.9483 36.0604 28.1768 35.8213C28.5338 35.4503 28.9768 35.1638 29.3742 34.8315C29.5447 34.6873 29.666 34.4605 29.8577 34.3691C30.3377 34.137 30.5996 33.6816 30.9829 33.3546C31.0796 33.272 31.0726 33.1594 30.9196 33.112C30.7807 33.068 30.6418 33.0241 30.5047 32.9766C30.3271 32.9168 30.0897 32.908 29.986 32.7849C29.724 32.479 29.4252 32.3929 29.0454 32.428C28.9346 32.4386 28.8133 32.3472 28.6973 32.3014C28.4652 32.2118 28.2261 32.036 28.0028 32.0553C27.7742 32.0746 27.6248 31.7845 27.4068 31.9498C27.1518 32.1432 27.412 32.363 27.405 32.5704C27.3733 33.6465 27.3909 34.7242 27.3874 35.802C27.3874 35.9303 27.4068 36.1009 27.3364 36.18C27.1483 36.391 27.456 36.3664 27.4454 36.5246Z" fill="black"/>
<path d="M106.144 20.5706C106.193 21.5094 105.855 22.276 105.4 23.0021C105.275 23.2008 105.096 23.3678 104.98 23.57C104.862 23.774 104.517 23.7353 104.505 24.0359C104.21 24.0676 103.951 24.2258 103.635 24.2206C101.861 24.2012 100.085 24.2118 98.311 24.2118C98.1756 24.2118 98.042 24.2065 97.9066 24.2135C97.6253 24.2276 97.5251 24.3278 97.5216 24.6179C97.5163 25.2913 97.5198 25.9664 97.5198 26.6398C97.5198 27.111 97.5356 27.584 97.5163 28.0552C97.4847 28.8463 97.4126 29.6358 97.3897 30.4252C97.3669 31.2111 97.3809 31.997 97.388 32.7847C97.3897 32.9464 97.3088 33.066 97.2631 33.2049C97.1401 33.5723 97.3686 33.9222 97.4354 34.2756C97.4653 34.4356 97.5005 34.6062 97.5198 34.7732C97.5972 35.4149 97.3968 36.0391 97.3915 36.672C97.3757 38.7836 97.3932 40.8952 97.3792 43.0068C97.3757 43.5131 97.5761 43.9878 97.5304 44.5012C97.4864 44.9918 97.4337 45.5087 97.5444 45.9781C97.6587 46.4616 97.6183 46.9346 97.6605 47.411C97.6798 47.6167 97.7554 47.8154 97.8152 48.0528C96.0834 48.0528 94.3885 48.0528 92.6655 48.0528C92.9345 47.6765 93.2316 47.3407 93.4338 46.9574C93.629 46.5882 93.7432 46.1715 93.7432 45.739C93.7432 44.2568 93.6413 42.7641 93.7714 41.2925C93.9103 39.7119 93.847 38.1366 93.8734 36.5613C93.8997 34.9666 93.8734 33.3719 93.8857 31.7755C93.8874 31.5469 94.0122 31.3166 94.0052 31.0898C93.9929 30.6801 93.9964 30.2459 93.8575 29.8731C93.7345 29.5426 93.7626 29.2314 93.7468 28.9096C93.7327 28.6178 93.7468 28.3259 93.7432 28.0341C93.7327 27.0618 93.5375 26.1018 93.5973 25.1243C93.6114 24.8834 93.4883 24.6355 93.418 24.3454C92.349 24.3454 91.2537 24.3507 90.1583 24.3436C89.5763 24.3401 88.9786 24.4386 88.437 24.1063C88.3896 24.0764 88.277 24.1151 88.212 24.152C87.7513 24.4192 87.2608 24.5142 86.7298 24.486C86.3044 24.4632 85.8771 24.4808 85.3848 24.4808C85.4094 24.3366 85.4218 24.1995 85.4604 24.0694C85.5483 23.7634 85.5835 23.4329 85.6785 23.1463C85.8595 22.5995 86.0635 22.0369 86.4573 21.5833C86.612 21.4057 86.8564 21.2932 86.8881 21.0207C87.2046 20.9169 87.4648 20.6901 87.8357 20.6972C88.9803 20.7182 90.1267 20.7042 91.273 20.7059C91.4664 20.7059 91.6739 20.6602 91.8233 20.8396C92.1099 20.5653 92.4914 20.778 92.8202 20.6409C93.04 20.5495 93.3406 20.5653 93.5762 20.6303C93.6993 20.6655 93.8224 20.7024 93.9472 20.7024C96.0148 20.7059 98.0807 20.7042 100.148 20.7042C101.131 20.4545 102.133 20.5969 103.125 20.5741C104.111 20.553 105.099 20.5706 106.144 20.5706Z" fill="black"/>
<path d="M65.6738 48.0985C66.1274 47.4058 66.4984 46.7816 66.509 45.9887C66.516 45.4911 66.6725 45.0041 66.6408 44.4925C66.6092 43.9773 66.5986 43.4551 66.6479 42.9435C66.6777 42.6358 66.523 42.3598 66.6162 42.038C66.7006 41.7514 66.6338 41.4209 66.6338 41.1079C65.6668 41.0482 64.7244 40.9884 63.782 40.9356C63.5376 40.9216 63.2915 40.9339 63.0436 40.9339C63.1174 40.4521 63.2721 40.0161 63.5288 39.6135C63.7891 39.2073 63.9965 38.7643 64.2813 38.3775C64.5627 37.9977 65.0198 37.8975 65.4664 37.8377C65.6879 37.8078 65.9147 37.8395 66.1397 37.8307C66.3753 37.8201 66.4861 37.7059 66.4967 37.465C66.5054 37.2628 66.4861 37.0588 66.5019 36.8584C66.5178 36.6703 66.4316 36.4716 66.6039 36.2905C66.6725 36.2184 66.6654 36.0233 66.6268 35.9055C66.3683 35.102 66.5441 34.2774 66.5019 33.4651C66.4791 33.0168 66.4984 32.5667 66.4984 32.1166C66.4984 31.8353 66.4914 31.5663 66.3753 31.292C66.2699 31.0423 66.3929 30.7593 66.2593 30.4621C66.1397 30.1984 66.145 29.8345 66.1134 29.518C66.0571 28.9395 65.9674 28.3734 65.8285 27.8108C65.8039 27.7106 65.8092 27.6209 65.971 27.5752C66.5213 27.4187 67.534 27.4152 68.1652 27.5523C68.443 27.6121 68.7419 27.5787 69.0302 27.5822C69.5752 27.5893 69.5981 27.6068 69.5999 28.1431C69.6016 30.0753 69.5893 32.0093 69.6069 33.9416C69.6122 34.5745 69.7089 35.2075 69.73 35.8404C69.7528 36.4892 69.7352 37.138 69.7352 37.8096C71.2104 37.8096 72.6644 37.8096 74.1852 37.8096C74.1852 37.5722 74.201 37.3103 74.1834 37.05C74.092 35.6927 74.3663 34.3495 74.3294 32.9922C74.2925 31.6225 74.2977 30.2494 74.3346 28.8798C74.3452 28.4754 74.5017 28.0728 74.4419 27.6068C74.623 27.598 74.7935 27.5769 74.9623 27.584C75.7588 27.6209 76.5341 27.3449 77.3341 27.4451C77.4449 27.4591 77.5785 27.4099 77.6664 27.4556C77.7825 27.5189 77.8932 27.6314 77.953 27.751C77.9987 27.8407 78.0005 27.9919 77.9548 28.0798C77.7526 28.4771 77.9143 28.9132 77.8123 29.3052C77.6365 29.9839 77.7332 30.6643 77.684 31.343C77.6629 31.6401 77.524 31.9179 77.5486 32.2326C77.5715 32.5298 77.6014 32.8339 77.4326 33.1258C77.364 33.2436 77.4097 33.4352 77.4238 33.5917C77.5047 34.5007 77.2989 35.3956 77.2884 36.3011C77.2778 37.1995 77.2954 38.0997 77.2796 38.9981C77.2761 39.1792 77.2128 39.3761 77.1231 39.5361C76.9561 39.8385 76.935 40.1005 77.1847 40.3695C77.2497 40.4398 77.2796 40.5629 77.2814 40.6614C77.2902 41.1554 77.2761 41.6512 77.2884 42.1453C77.3007 42.6235 77.2831 43.0947 77.3974 43.5782C77.5082 44.0459 77.422 44.561 77.422 45.0551C77.422 46.0432 77.422 47.0313 77.422 48.0493C76.0805 48.0493 74.7461 48.0493 73.3167 48.0493C73.6243 47.8207 73.7632 47.5183 74.085 47.3987C74.136 47.3794 74.187 47.2598 74.1799 47.1948C74.1237 46.7517 74.2942 46.3333 74.3153 45.9008C74.3364 45.4753 74.3083 45.0463 74.3223 44.6208C74.3399 44.1162 74.1237 43.6415 74.1729 43.1246C74.2239 42.613 74.1993 42.0908 74.1799 41.5756C74.1623 41.1097 73.9566 40.9356 73.4837 40.9339C72.9896 40.9304 72.4938 40.9163 72.0015 40.9392C71.6903 40.9532 71.3703 40.9356 71.1207 40.7862C70.588 40.4697 70.2099 40.9462 69.7528 40.9972C69.5875 41.0148 69.5963 41.2328 69.5981 41.3945C69.6034 42.0908 69.6086 42.7888 69.5946 43.485C69.5911 43.6942 69.6983 43.9334 69.4697 44.1092C69.4363 44.1338 69.4539 44.2393 69.4662 44.3043C69.5067 44.5118 69.5559 44.7175 69.5981 44.9232C69.6421 45.1324 69.4979 45.3645 69.6966 45.5597C69.744 45.6071 69.7317 45.7249 69.7317 45.8111C69.7335 46.4405 69.737 47.07 69.73 47.6994C69.7264 47.9526 69.6139 48.0967 69.3889 48.0756C68.5449 47.9948 67.7204 48.2462 66.8817 48.2128C66.5019 48.197 66.1186 48.1407 65.6738 48.0985Z" fill="black"/>
<path d="M44.3593 31.5995C44.9905 31.654 45.634 31.6523 46.2511 31.7789C46.9632 31.9248 47.6471 32.1973 48.2625 32.6087C48.5262 32.7845 48.8022 32.9445 49.0519 33.1379C49.1838 33.2417 49.2681 33.4034 49.3736 33.5388C49.4264 33.6074 49.4686 33.6882 49.5336 33.741C50.4813 34.4742 50.1771 34.1612 51.1301 35.5484C51.4518 36.0178 51.6593 36.5453 51.9459 37.0288C52.0689 37.2363 52.0127 37.4543 52.0935 37.6424C52.2817 38.0872 52.3573 38.5426 52.3432 39.0226C52.3362 39.3004 52.2676 39.5958 52.4716 39.8437C52.4821 39.8577 52.4733 39.8876 52.4733 39.9105C52.4733 40.0001 52.5085 40.1109 52.468 40.176C52.1902 40.6331 52.4188 41.1535 52.2623 41.6388C52.1023 42.1328 52.0338 42.6585 51.7999 43.1332C51.6628 43.4128 51.5362 43.6994 51.385 43.9719C51.2215 44.2655 51.0334 44.545 50.8575 44.8316C50.8364 44.8668 50.8417 44.9213 50.8153 44.9477C50.1719 45.5736 49.6075 46.298 48.7811 46.7059C48.3732 46.908 48.0357 47.2702 47.5381 47.2825C47.3886 47.49 47.1689 47.3986 46.9825 47.3986C46.6906 47.4003 46.4269 47.4443 46.2142 47.6623C45.9874 47.8961 45.7078 47.9647 45.3878 47.9471C45.052 47.9296 44.7144 47.9366 44.3769 47.9454C44.2292 47.9489 44.092 47.9542 43.9373 48.0227C43.7633 48.1001 43.5224 48.0333 43.3114 48.0157C43.2077 48.0069 43.1075 47.9454 43.0055 47.9471C42.42 47.9542 41.8416 47.8416 41.3211 47.6184C40.8289 47.4074 40.2504 47.3265 39.8759 46.8764C39.2008 46.7129 38.7419 46.2259 38.3428 45.723C37.9595 45.2395 37.5604 44.7648 37.2105 44.2497C36.9819 43.9139 36.7112 43.6079 36.6233 43.2088C36.5688 42.9627 36.5143 42.6462 36.6233 42.4546C36.7674 42.1996 36.6268 42.0853 36.4984 42.0326C36.0589 41.8497 35.985 41.4946 35.8655 41.0832C35.6528 40.3535 35.8198 39.6309 35.7512 38.9101C35.9516 38.6622 35.8725 38.3685 35.8883 38.0907C35.8936 38.0081 35.8971 37.9026 35.9464 37.8481C36.3718 37.3787 36.5371 36.7844 36.6848 36.2007C36.8272 35.6381 37.1015 35.1827 37.5112 34.7889C37.8681 34.446 38.2355 34.112 38.5538 33.7375C38.9581 33.2628 39.4961 32.9709 39.9796 32.6087C40.2592 32.3995 40.6372 32.3731 40.9502 32.1868C41.228 32.0215 41.5796 31.9687 41.9066 31.9037C42.7154 31.7437 43.5241 31.5819 44.3593 31.5995ZM38.5221 39.8278C38.8614 40.2006 39.0689 40.6313 39.2271 41.0427C39.4082 41.5122 39.679 41.9324 39.8513 42.4001C40.1045 43.0893 40.6689 43.5429 41.1998 43.9807C41.4741 44.2075 41.7361 44.5486 42.158 44.5732C42.3497 44.8721 42.6802 44.6505 42.9475 44.7842C43.2745 44.9477 43.6965 44.9248 44.078 44.974C44.4736 45.025 44.8621 44.96 45.2313 44.8351C45.8625 44.6242 46.5517 44.5275 47.0405 44.0018C47.4836 43.8787 47.6154 43.4444 47.8827 43.1473C48.0937 42.9135 48.2607 42.6357 48.4242 42.3649C48.7952 41.753 48.978 41.0849 48.9657 40.3676C48.9552 39.7329 49.0325 39.0929 48.8339 38.4705C48.7319 38.1523 48.5895 37.8288 48.5807 37.5053C48.5719 37.2064 48.4207 37.0499 48.2361 36.904C48.0568 36.7651 47.8387 36.6754 47.6383 36.5646C47.6418 36.2183 47.2884 36.2271 47.1196 36.053C46.281 35.1897 45.2173 34.875 44.0481 34.8662C43.8195 34.8645 43.5927 34.9858 43.3642 34.9875C42.3479 34.9963 41.5268 35.4552 40.7954 36.0987C40.5387 36.3255 40.3366 36.6191 40.1256 36.8952C39.7687 37.3629 39.3977 37.8639 39.2957 38.4283C39.1902 39.0015 39.0056 39.4586 38.5221 39.8278Z" fill="black"/>
<path d="M83.493 37.8324C83.493 38.2984 83.5721 38.7221 83.4772 39.1018C83.2468 40.0267 83.4227 40.9567 83.3576 41.8815C83.6336 42.8398 83.4139 43.8208 83.5176 44.8458C83.6952 44.8458 83.8886 44.8458 84.0837 44.8458C85.6116 44.8458 87.1395 44.83 88.6673 44.8529C89.4339 44.8652 90.0792 44.6665 90.6031 43.9773C90.6383 44.5716 90.8053 45.0762 90.7842 45.6212C90.7508 46.4247 90.7754 47.2317 90.7754 48.0809C90.0176 48.0809 89.2792 48.1178 88.546 48.0721C87.6335 48.0158 86.7439 48.2268 85.8384 48.218C84.94 48.2093 84.0363 48.1635 83.1431 48.2339C82.5436 48.2813 81.9335 48.4027 81.3673 48.6523C81.0649 48.7859 80.759 48.9072 80.4285 49.0444C80.3687 48.415 80.2948 47.8119 80.2597 47.2071C80.2333 46.7376 80.2386 46.2629 80.2597 45.7917C80.2702 45.5386 80.3599 45.2907 80.3845 45.0375C80.4074 44.7931 80.4285 44.5364 80.3828 44.2973C80.1313 42.9734 80.2878 41.6371 80.2597 40.308C80.2316 38.9612 80.2544 37.6127 80.2544 36.2641C80.2544 34.9156 80.2544 33.5688 80.2544 32.2203C80.2544 30.8718 80.2544 29.525 80.2544 28.1765C80.2544 27.4556 80.4671 27.2341 81.1177 27.4679C81.566 27.6279 81.9915 27.5752 82.417 27.5541C82.6033 27.5453 82.8231 27.4293 83.0359 27.4504C83.3119 27.4767 83.5826 27.5418 83.8569 27.5787C84.1312 27.6156 84.4002 27.5998 84.6868 27.6842C84.9874 27.7721 85.3778 27.8213 85.7118 27.6016C85.8068 27.5383 85.972 27.5805 86.1057 27.5805C87.5667 27.5805 89.026 27.5805 90.487 27.5805C90.5539 27.5805 90.6224 27.5769 90.6892 27.5805C90.9231 27.598 91.0426 27.707 91.0426 27.9479C91.0409 29.1136 91.0321 30.2793 91.0233 31.4432C91.0233 31.4608 90.9952 31.4766 90.9635 31.5135C90.7684 31.394 90.575 31.2691 90.3745 31.1584C90.1565 31.0371 89.9402 30.8858 89.7047 30.8278C89.3513 30.7417 88.9803 30.6907 88.6181 30.6889C86.9338 30.6749 85.2476 30.6837 83.5492 30.6837C83.4191 31.4133 83.2996 32.1447 83.3646 32.8919C83.3963 33.2559 83.558 33.6058 83.4965 33.982C83.4789 34.0875 83.5053 34.2282 83.4455 34.295C83.275 34.4884 83.5141 34.5622 83.5598 34.5728C83.7057 34.6114 83.8692 34.5939 84.024 34.5939C85.7312 34.5939 87.4384 34.5939 89.1455 34.5956C89.3811 34.5956 89.6027 34.6009 89.8383 34.7169C90.1495 34.8717 90.1565 34.8259 90.0334 35.1424C89.7732 35.8088 89.4655 36.4452 89.0313 37.0219C88.8185 37.305 88.6023 37.5107 88.2418 37.6302C87.8656 37.7551 87.5069 37.8377 87.1131 37.836C85.9228 37.8254 84.7343 37.8324 83.493 37.8324Z" fill="black"/>
<path d="M54.2227 30.7366C53.4297 30.4271 52.6368 30.1177 51.7929 29.7871C52.0003 29.5445 52.2412 29.3072 52.4276 29.0329C52.5594 28.8395 52.8355 28.8535 52.9216 28.5758C52.9849 28.3718 53.2064 28.2101 53.3489 28.0184C53.5493 27.7476 53.8587 27.5507 54.1383 27.3468C54.2086 27.2958 54.3686 27.2958 54.446 27.3398C54.9066 27.6052 55.4376 27.6527 55.9246 27.8391C56.3923 28.0184 56.8494 28.2136 57.296 28.4316C57.6775 28.6197 58.103 28.6461 58.4933 28.7938C59.5623 29.1982 60.6541 29.541 61.7336 29.9208C62.4809 30.1827 63.098 30.6768 63.5569 31.3871C63.7978 31.7616 64.058 32.1185 64.2039 32.5387C64.3199 32.8745 64.3903 33.2262 64.4782 33.5708C64.5098 33.6921 64.5292 33.8187 64.5661 33.9382C64.6663 34.2529 64.6276 34.5061 64.3867 34.7734C64.1459 35.0406 63.9824 35.3659 63.6255 35.5259C63.5129 35.5769 63.4373 35.6964 63.2808 35.6753C62.931 35.6296 62.7376 35.7931 62.5758 36.1131C62.4229 36.4155 62.1996 36.7162 61.9306 36.9183C61.1816 37.4845 60.6049 38.2317 59.8893 38.8225C59.3408 39.2743 58.8467 39.7772 58.3333 40.2607C58.212 40.3749 58.0432 40.4418 57.9201 40.5543C57.8481 40.6193 57.8076 40.7301 57.776 40.8286C57.7021 41.0466 57.558 41.2382 57.5966 41.4984C57.7021 42.2052 57.3769 42.9067 57.4841 43.5942C57.6582 44.7229 57.5456 45.8499 57.6125 46.9752C57.6336 47.3321 57.8023 47.6802 57.7109 48.0652C56.336 48.0652 54.9717 48.0652 53.5774 48.0652C53.7814 47.7892 54.0011 47.5413 54.1629 47.26C54.3862 46.8714 54.5216 46.4547 54.5057 45.9853C54.4811 45.1554 54.4864 44.3238 54.504 43.494C54.5128 43.0843 54.4249 42.6711 54.6183 42.2632C54.7044 42.0804 54.7167 41.7674 54.613 41.6092C54.4583 41.3736 54.6816 41.2277 54.6394 41.0325C54.6095 40.8918 54.6042 40.7389 54.7378 40.6C54.7888 40.549 54.7431 40.3451 54.6816 40.2501C54.5057 39.9793 54.4917 39.6892 54.4934 39.3816C54.5005 38.4163 54.4688 37.4493 54.5022 36.4858C54.5497 35.1303 54.2631 33.7888 54.3616 32.4332C54.1488 31.8847 54.2526 31.308 54.2227 30.7366ZM57.7953 36.3452C58.1311 36.0762 58.4458 35.7773 58.8045 35.5452C59.5394 35.067 60.2075 34.5149 60.8071 33.8802C61.2343 33.4266 61.1728 33.1717 60.5891 32.98C60.153 32.8376 59.7399 32.6407 59.3126 32.4824C58.8625 32.3172 58.4001 32.1941 57.9834 31.9462C57.8604 31.8741 57.6423 31.955 57.616 32.0869C57.5544 32.4016 57.4068 32.7497 57.4859 33.0292C57.6793 33.7114 57.5667 34.3901 57.5931 35.0687C57.6107 35.5048 57.5896 35.9373 57.7953 36.3452Z" fill="black"/>
<path d="M34.3674 28.9309C34.6733 28.3946 34.9054 27.8971 35.2219 27.4611C35.6438 26.8826 36.1027 26.32 36.8113 26.0545C36.9273 26.0105 37.0645 25.9525 37.1735 25.9789C37.8521 26.1354 38.1879 26.1442 38.7611 25.993C38.8648 25.9666 38.9774 25.9648 39.0864 25.9648C42.1368 25.9631 45.1873 25.9631 48.3063 25.9631C48.2694 26.1213 48.2588 26.2637 48.2043 26.385C47.9002 27.0637 47.589 27.7406 47.0176 28.2505C46.8259 28.8799 46.2229 28.8711 45.7499 29.061C45.6919 29.0839 45.5881 29.0926 45.553 29.0592C45.3051 28.8149 45.0027 28.9678 44.7284 28.9309C44.2115 28.8623 43.6752 29.0575 43.1619 28.8078C43.0669 28.7621 42.8858 28.8746 42.754 28.9327C42.5623 29.017 42.4076 29.1559 42.1702 28.9678C42.0577 28.8781 41.8291 28.9309 41.6533 28.9309C39.4081 28.9291 37.1647 28.9291 34.9195 28.9291C34.7648 28.9309 34.61 28.9309 34.3674 28.9309Z" fill="black"/>
<path d="M33.2211 14.3151C33.1226 14.0232 33.1402 13.6646 33.3881 13.4536C33.6993 13.1881 34.0158 12.8681 34.494 12.8804C35.0109 12.8945 35.5472 12.7943 36.0395 12.9033C36.8799 13.0914 37.715 13.007 38.5502 13.0035C39.0671 13.0017 39.584 12.8365 40.1132 12.8822C40.2626 12.8945 40.3927 12.9033 40.5422 12.9929C40.6951 13.0861 40.8217 13.0791 40.6793 13.2918C40.6002 13.4079 40.616 13.6013 40.5228 13.6927C40.3646 13.8474 40.3417 14.1428 40.0622 14.1674C39.7352 14.1955 39.3607 14.3186 39.0864 14.2061C38.6381 14.0232 38.253 14.0971 37.8398 14.229C37.7994 14.2413 37.7502 14.2307 37.6588 14.2307C37.6588 17.0948 37.6588 19.9589 37.6588 22.8335C37.0856 22.8335 36.5581 22.8335 35.9973 22.8335C36.1028 22.503 36.2241 22.2129 36.2821 21.9087C36.3278 21.6696 36.2909 21.4164 36.2909 21.1685C36.2909 19.4156 36.2962 17.6627 36.2856 15.9098C36.2839 15.523 36.3788 15.1221 36.1661 14.7459C36.1239 14.672 36.217 14.5208 36.261 14.352C35.5437 14.4716 34.8527 14.1323 34.1213 14.2272C33.8294 14.2676 33.5341 14.2852 33.2211 14.3151Z" fill="black"/>
<path d="M38.4359 20.2999C38.5045 20.1856 38.5783 20.1188 38.5766 20.0537C38.5713 19.7742 38.5906 19.5808 38.9317 19.4524C39.3344 19.3012 39.475 18.4555 39.3643 18.0512C39.3484 17.9931 39.2552 17.9421 39.2623 17.8947C39.3607 17.0806 39.0531 16.2842 39.1322 15.4438C39.4733 15.4438 39.7845 15.4367 40.0957 15.4455C40.3436 15.4526 40.4666 15.5616 40.4684 15.7936C40.4754 16.8046 40.4825 17.8173 40.4649 18.8283C40.4578 19.208 40.4262 19.2133 40.7479 19.2186C41.1734 19.2256 41.6007 19.2203 42.0894 19.2203C42.0894 19.0217 42.0806 18.8265 42.0912 18.6331C42.1475 17.5782 42.2072 16.5233 42.2653 15.4561C42.6415 15.4561 43.016 15.4561 43.438 15.4561C43.438 15.8851 43.5118 16.3211 43.4239 16.7237C43.2164 17.6714 43.3325 18.6226 43.3096 19.5702C43.2868 20.5144 43.3043 21.4585 43.3043 22.4027C43.3043 22.4923 43.3254 22.589 43.2991 22.6717C43.2481 22.8317 43.2745 23.0339 42.9457 22.8844C42.6855 22.7666 42.3286 22.8598 41.9681 22.8598C42.0156 22.7561 42.0719 22.6805 42.0859 22.5961C42.1053 22.4871 42.0912 22.3728 42.0912 22.2603C42.0912 21.7433 42.0771 21.2264 42.0965 20.7095C42.1105 20.3122 42.1299 20.3051 41.8327 20.2999C41.4284 20.2928 41.0222 20.2805 40.6196 20.3087C40.4983 20.3175 40.1906 20.3579 40.4614 20.6234C40.4649 21.3179 40.4789 22.0141 40.4631 22.7086C40.4596 22.8281 40.4209 23.1306 40.1484 22.8774C40.122 22.8545 40.0447 22.844 40.0253 22.8633C39.9058 22.9811 39.7018 23.0778 39.6192 22.9829C39.4522 22.7912 39.359 23.0268 39.2482 22.9881C39.1919 22.9688 39.1234 22.8211 39.1304 22.8158C39.3168 22.6594 39.2359 22.4484 39.2605 22.2585C39.3291 21.7627 39.4311 21.2704 39.3959 20.7623C39.3695 20.3843 39.3115 20.3104 38.9282 20.2999C38.777 20.2964 38.6258 20.2999 38.4359 20.2999Z" fill="black"/>
<path d="M45.6165 19.222C45.6165 20.0712 45.6165 20.8958 45.6165 21.7292C46.4411 22.0773 47.2692 21.9366 48.1272 21.6307C48.1272 22.0878 48.1272 22.5239 48.1272 22.9986C47.5065 22.9986 46.8824 22.9951 46.26 22.9986C45.6393 23.0021 45.0064 22.9142 44.384 23.3713C44.384 22.5573 44.4086 21.8663 44.3664 21.1789C44.3541 20.9925 44.6881 20.9362 44.4736 20.7094C44.3875 20.618 44.3875 20.4264 44.3875 20.2804C44.3822 18.6893 44.384 17.0964 44.384 15.4454C44.6495 15.4454 44.9114 15.4454 45.1752 15.4454C46.1175 15.4454 47.0599 15.4472 48.0023 15.4437C48.1377 15.4437 48.2537 15.4454 48.3592 15.5667C48.4823 15.7092 48.354 15.7848 48.3346 15.899C48.2871 16.1768 48.3188 16.4669 48.3188 16.7764C47.8669 16.5443 47.4133 16.6955 46.9791 16.5531C46.5764 16.4212 46.0964 16.5249 45.6253 16.5249C45.6253 17.0049 45.6253 17.4709 45.6253 17.986C45.9874 18.0001 46.4112 17.9262 46.7593 18.0546C47.1355 18.1935 47.5012 18.0528 47.8546 18.1724C47.7105 18.3482 47.7808 18.5908 47.6102 18.7842C47.3026 19.1341 46.8894 19.1376 46.5043 19.2115C46.2213 19.2642 45.9259 19.222 45.6165 19.222Z" fill="black"/>
<path d="M62.0062 52.626C61.9446 52.5838 61.8725 52.5521 61.7917 52.531C61.7758 52.5275 61.76 52.5257 61.7442 52.5222C61.7653 52.517 61.7881 52.5134 61.8075 52.5046C61.8954 52.4712 61.964 52.4203 62.0132 52.3534C62.0624 52.2866 62.087 52.2075 62.087 52.1143C62.087 52 62.0624 51.9069 62.0132 51.8348C61.964 51.7627 61.8954 51.7082 61.8075 51.6713C61.7196 51.6361 61.6158 51.6168 61.4963 51.6168H60.9846V53.6053H61.5244C61.6528 53.6053 61.7688 53.5842 61.869 53.542C61.971 53.4998 62.0501 53.4347 62.1099 53.3486C62.1697 53.2624 62.1996 53.1534 62.1996 53.0233C62.1996 52.9319 62.182 52.8545 62.1486 52.7877C62.1152 52.7227 62.0677 52.6682 62.0062 52.626ZM61.4945 51.8313C61.5947 51.8313 61.6791 51.8576 61.7442 51.9086C61.811 51.9614 61.8444 52.0335 61.8444 52.1284C61.8444 52.1917 61.8286 52.2444 61.7987 52.2884C61.7688 52.3323 61.7266 52.3657 61.6739 52.3886C61.6211 52.4115 61.5613 52.422 61.4945 52.422H61.2238V51.8313H61.4945ZM61.9024 53.2185C61.8655 53.2747 61.8145 53.3187 61.7495 53.3486C61.6844 53.3785 61.6088 53.3943 61.5244 53.3943H61.2255V52.633H61.5244C61.5895 52.633 61.6475 52.6418 61.7002 52.6576C61.753 52.6734 61.7987 52.698 61.8374 52.7297C61.8761 52.7613 61.9059 52.8018 61.927 52.8493C61.9481 52.8967 61.9587 52.9512 61.9587 53.011C61.9587 53.0919 61.9393 53.1622 61.9024 53.2185Z" fill="black"/>
<path d="M63.0524 52.5395L62.5407 51.6182H62.2717L62.9328 52.7523V53.6085H63.1754V52.7487L63.8365 51.6182H63.5675L63.0524 52.5395Z" fill="black"/>
<path d="M65.8125 51.5903C65.6736 51.5903 65.5453 51.6149 65.4239 51.6659C65.3044 51.7169 65.1989 51.7872 65.1075 51.8786C65.016 51.97 64.9457 52.079 64.8947 52.2039C64.8437 52.3287 64.8174 52.4658 64.8174 52.6135C64.8174 52.7612 64.8437 52.8984 64.8947 53.0232C64.9457 53.148 65.016 53.257 65.1075 53.3485C65.1989 53.4399 65.3044 53.512 65.4239 53.5612C65.5435 53.6122 65.6736 53.6368 65.8125 53.6368C65.9584 53.6368 66.0797 53.6192 66.18 53.5823C66.2784 53.5454 66.3698 53.4909 66.4525 53.417V53.0988C66.4068 53.1568 66.3523 53.2096 66.2872 53.2535C66.2222 53.2975 66.1518 53.3326 66.0727 53.3572C65.9936 53.3819 65.9074 53.3942 65.8125 53.3942C65.6824 53.3942 65.5611 53.3608 65.4486 53.294C65.336 53.2271 65.2464 53.1357 65.1778 53.0179C65.1092 52.9001 65.0741 52.7647 65.0741 52.6118C65.0741 52.4571 65.1092 52.3199 65.1778 52.2039C65.2464 52.0878 65.3378 51.9964 65.4486 51.9296C65.5611 51.8628 65.6824 51.8294 65.8125 51.8294C65.9074 51.8294 65.9936 51.8417 66.0727 51.8663C66.1518 51.8909 66.2222 51.9261 66.2872 51.97C66.3523 52.014 66.4068 52.0667 66.4525 52.1248V51.8065C66.3698 51.7327 66.2784 51.6782 66.18 51.6413C66.0797 51.6079 65.9584 51.5903 65.8125 51.5903Z" fill="black"/>
<path d="M68.2124 52.4147H67.1188V51.6182H66.8779V53.6085H67.1188V52.6415H68.2124V53.6085H68.455V51.6182H68.2124V52.4147Z" fill="black"/>
<path d="M68.696 53.6087H68.965L69.2181 53.0127H70.0199L70.273 53.6087H70.5438L69.6208 51.52L68.696 53.6087ZM69.9249 52.7841H69.3166L69.6208 52.0685L69.9249 52.7841Z" fill="black"/>
<path d="M71.0255 51.6182H70.7847V53.6067H71.0255V51.6182Z" fill="black"/>
<path d="M72.9877 53.0988L71.4809 51.52V53.6087H71.7235V52.1265L73.2285 53.7071V51.6184H72.9877V53.0988Z" fill="black"/>
<path d="M75.4209 52.7401C75.5229 52.6926 75.602 52.6223 75.6618 52.5326C75.7216 52.4429 75.7515 52.3375 75.7515 52.2161C75.7515 52.0931 75.7216 51.9876 75.6618 51.8979C75.602 51.8082 75.5211 51.7397 75.4209 51.6922C75.319 51.6447 75.2047 51.6201 75.0763 51.6201H74.7774H74.6702H74.5366V53.6086H74.7774V52.8122H75.0201L75.5739 53.6086H75.8728L75.2785 52.7893C75.3277 52.777 75.377 52.7612 75.4209 52.7401ZM74.7774 51.8311H75.0763C75.1607 51.8311 75.2363 51.8469 75.3014 51.8768C75.3664 51.9067 75.4174 51.9507 75.4543 52.0069C75.4913 52.0632 75.5106 52.1335 75.5106 52.2144C75.5106 52.2953 75.493 52.3656 75.4543 52.4218C75.4174 52.4781 75.3664 52.5221 75.3014 52.552C75.2363 52.5818 75.1607 52.5977 75.0763 52.5977H74.7774V51.8311Z" fill="black"/>
<path d="M76.2615 51.6182H76.1279V53.6085H76.2615H76.3687H77.2654V53.3799H76.3687V52.6415H77.2074V52.4147H76.3687V51.845H77.2654V51.6182H76.3687H76.2615Z" fill="black"/>
<path d="M77.4781 53.6087H77.7471L78.0003 53.0127H78.802L79.0552 53.6087H79.326L78.4029 51.52L77.4781 53.6087ZM78.7053 52.7841H78.097L78.4012 52.0685L78.7053 52.7841Z" fill="black"/>
<path d="M80.3616 51.5903C80.2227 51.5903 80.0944 51.6149 79.9731 51.6659C79.8535 51.7169 79.748 51.7872 79.6566 51.8786C79.5652 51.97 79.4948 52.079 79.4438 52.2039C79.3929 52.3287 79.3665 52.4658 79.3665 52.6135C79.3665 52.7612 79.3929 52.8984 79.4438 53.0232C79.4948 53.148 79.5652 53.257 79.6566 53.3485C79.748 53.4399 79.8535 53.512 79.9731 53.5612C80.0926 53.6122 80.2227 53.6368 80.3616 53.6368C80.5076 53.6368 80.6289 53.6192 80.7291 53.5823C80.8275 53.5454 80.919 53.4909 81.0016 53.417V53.0988C80.9559 53.1568 80.9014 53.2096 80.8363 53.2535C80.7713 53.2975 80.701 53.3326 80.6218 53.3572C80.5427 53.3819 80.4566 53.3942 80.3616 53.3942C80.2315 53.3942 80.1102 53.3608 79.9977 53.294C79.8852 53.2271 79.7955 53.1357 79.7269 53.0179C79.6583 52.9001 79.6232 52.7647 79.6232 52.6118C79.6232 52.4571 79.6583 52.3199 79.7269 52.2039C79.7955 52.0878 79.8869 51.9964 79.9977 51.9296C80.1102 51.8628 80.2315 51.8294 80.3616 51.8294C80.4566 51.8294 80.5427 51.8417 80.6218 51.8663C80.701 51.8909 80.7713 51.9261 80.8363 51.97C80.9014 52.014 80.9559 52.0667 81.0016 52.1248V51.8065C80.919 51.7327 80.8275 51.6782 80.7291 51.6413C80.6306 51.6079 80.5076 51.5903 80.3616 51.5903Z" fill="black"/>
<path d="M81.1441 51.845H81.6557V53.6085H81.8966V51.845H82.4082V51.6182H81.1441V51.845Z" fill="black"/>
<path d="M82.9055 51.6182H82.6647V53.6067H82.9055V51.6182Z" fill="black"/>
<path d="M84.9768 51.8839C84.8854 51.7925 84.7799 51.7204 84.6568 51.6676C84.5338 51.6149 84.4001 51.5903 84.2542 51.5903C84.11 51.5903 83.9764 51.6166 83.8533 51.6676C83.7303 51.7204 83.623 51.7925 83.5316 51.8839C83.4402 51.9753 83.3698 52.0843 83.3206 52.2074C83.2696 52.3322 83.245 52.4658 83.245 52.6118C83.245 52.7559 83.2696 52.8896 83.3206 53.0162C83.3716 53.141 83.4419 53.25 83.5316 53.3414C83.623 53.4328 83.7303 53.5049 83.8533 53.5577C83.9764 53.6104 84.11 53.635 84.2542 53.635C84.4001 53.635 84.5338 53.6087 84.6568 53.5577C84.7781 53.5049 84.8854 53.4328 84.9768 53.3414C85.0682 53.25 85.1386 53.141 85.1878 53.0162C85.2388 52.8913 85.2634 52.7559 85.2634 52.6118C85.2634 52.4658 85.2388 52.3305 85.1878 52.2074C85.1386 52.0843 85.0682 51.9753 84.9768 51.8839ZM84.91 53.0144C84.8449 53.1322 84.7553 53.2254 84.6428 53.2922C84.5302 53.3608 84.4001 53.3942 84.2542 53.3942C84.11 53.3942 83.9817 53.3608 83.8674 53.2922C83.7531 53.2236 83.6634 53.1304 83.5984 53.0144C83.5333 52.8966 83.4999 52.763 83.4999 52.6135C83.4999 52.4641 83.5333 52.3305 83.5984 52.2127C83.6634 52.0949 83.7531 52.0017 83.8674 51.9349C83.9817 51.8663 84.11 51.8329 84.2542 51.8329C84.4001 51.8329 84.5302 51.8663 84.6428 51.9349C84.7553 52.0034 84.8449 52.0966 84.91 52.2127C84.9751 52.3305 85.0085 52.4641 85.0085 52.6135C85.0085 52.763 84.9768 52.8966 84.91 53.0144Z" fill="black"/>
<path d="M87.1111 53.0988L85.606 51.52V53.6087H85.8469V52.1265L87.3537 53.7071V51.6184H87.1111V53.0988Z" fill="black"/>
<path d="M88.8377 52.6664C88.7867 52.6206 88.7322 52.582 88.6742 52.5521C88.6162 52.5222 88.5599 52.4976 88.5072 52.4782C88.3911 52.4378 88.2997 52.3974 88.2329 52.3569C88.1661 52.3165 88.1186 52.2725 88.0887 52.2268C88.0606 52.1811 88.0465 52.1301 88.0465 52.0756C88.0465 52.0106 88.0712 51.9525 88.1204 51.9015C88.1696 51.8488 88.2487 51.8242 88.356 51.8242C88.4333 51.8242 88.5002 51.84 88.5529 51.8699C88.6074 51.8998 88.6531 51.9385 88.69 51.9859C88.7287 52.0334 88.7586 52.0809 88.7832 52.1301L88.9907 52.0106C88.959 51.9402 88.9133 51.8734 88.8571 51.8101C88.8008 51.7468 88.7322 51.6941 88.6514 51.6536C88.5705 51.6132 88.4773 51.5921 88.3683 51.5921C88.2558 51.5921 88.1573 51.615 88.0694 51.6589C87.9815 51.7029 87.9147 51.7644 87.8655 51.8418C87.8162 51.9191 87.7916 52.007 87.7916 52.1055C87.7916 52.1969 87.8092 52.2725 87.8444 52.3358C87.8795 52.3991 87.9252 52.4501 87.9797 52.4941C88.0342 52.5362 88.0923 52.5714 88.1538 52.5995C88.2136 52.6277 88.2698 52.6488 88.3191 52.6664C88.3947 52.6927 88.4668 52.7226 88.5336 52.756C88.6004 52.7894 88.6549 52.8316 88.6971 52.8861C88.7393 52.9389 88.7604 53.011 88.7604 53.0989C88.7604 53.1903 88.7287 53.2641 88.6637 53.3239C88.5986 53.3819 88.5142 53.4118 88.4087 53.4118C88.3296 53.4118 88.2575 53.3942 88.196 53.3608C88.1327 53.3274 88.0764 53.28 88.0272 53.2184C87.9762 53.1586 87.9287 53.0883 87.883 53.0074L87.6896 53.1375C87.7336 53.2255 87.7898 53.3063 87.8584 53.3837C87.927 53.4611 88.0079 53.5226 88.0993 53.5683C88.1907 53.614 88.2909 53.6386 88.3999 53.6386C88.4791 53.6386 88.5564 53.6246 88.6285 53.5982C88.7006 53.5718 88.7674 53.5331 88.8254 53.4839C88.8834 53.4347 88.9292 53.3749 88.9626 53.3046C88.996 53.2342 89.0118 53.1551 89.0118 53.069C89.0118 52.9776 88.996 52.9002 88.9643 52.8351C88.9292 52.7683 88.8887 52.7121 88.8377 52.6664Z" fill="black"/>
<path d="M90.0052 53.6087H90.2742L90.5256 53.0127H91.3274L91.5805 53.6087H91.8513L90.9283 51.52L90.0052 53.6087ZM91.2324 52.7841H90.6241L90.9283 52.0685L91.2324 52.7841Z" fill="black"/>
<path d="M92.2276 51.6182H92.094V53.6085H92.3348V52.6415H93.0873V52.4147H92.3348V51.845H93.1172V51.6182H92.3348H92.2276Z" fill="black"/>
<path d="M94.3988 52.7401C94.5008 52.6926 94.5799 52.6223 94.6397 52.5326C94.6995 52.4429 94.7294 52.3375 94.7294 52.2161C94.7294 52.0931 94.6995 51.9876 94.6397 51.8979C94.5799 51.8082 94.4991 51.7397 94.3988 51.6922C94.2969 51.6447 94.1826 51.6201 94.0542 51.6201H93.7554H93.6481H93.5145V53.6086H93.7554V52.8122H93.998L94.5518 53.6086H94.8507L94.2564 52.7893C94.3057 52.777 94.3549 52.7612 94.3988 52.7401ZM93.7554 51.8311H94.0542C94.1386 51.8311 94.2142 51.8469 94.2793 51.8768C94.3443 51.9067 94.3953 51.9507 94.4322 52.0069C94.4692 52.0632 94.4885 52.1335 94.4885 52.2144C94.4885 52.2953 94.4709 52.3656 94.4322 52.4218C94.3953 52.4781 94.3443 52.5221 94.2793 52.552C94.2142 52.5818 94.1386 52.5977 94.0542 52.5977H93.7554V51.8311Z" fill="black"/>
<path d="M95.3468 51.6182H95.1059V53.6067H95.3468V51.6182Z" fill="black"/>
<path d="M96.6827 51.5903C96.5438 51.5903 96.4155 51.6149 96.2942 51.6659C96.1746 51.7169 96.0691 51.7872 95.9777 51.8786C95.8863 51.97 95.8159 52.079 95.765 52.2039C95.714 52.3287 95.6876 52.4658 95.6876 52.6135C95.6876 52.7612 95.714 52.8984 95.765 53.0232C95.8159 53.148 95.8863 53.257 95.9777 53.3485C96.0691 53.4399 96.1746 53.512 96.2942 53.5612C96.4137 53.6122 96.5438 53.6368 96.6827 53.6368C96.8286 53.6368 96.95 53.6192 97.0502 53.5823C97.1486 53.5454 97.2401 53.4909 97.3227 53.417V53.0988C97.277 53.1568 97.2225 53.2096 97.1574 53.2535C97.0924 53.2975 97.0221 53.3326 96.9429 53.3572C96.8638 53.3819 96.7777 53.3942 96.6827 53.3942C96.5526 53.3942 96.4313 53.3608 96.3188 53.294C96.2063 53.2271 96.1166 53.1357 96.048 53.0179C95.9794 52.9001 95.9443 52.7647 95.9443 52.6118C95.9443 52.4571 95.9794 52.3199 96.048 52.2039C96.1166 52.0878 96.208 51.9964 96.3188 51.9296C96.4313 51.8628 96.5526 51.8294 96.6827 51.8294C96.7777 51.8294 96.8638 51.8417 96.9429 51.8663C97.0221 51.8909 97.0924 51.9261 97.1574 51.97C97.2225 52.014 97.277 52.0667 97.3227 52.1248V51.8065C97.2401 51.7327 97.1486 51.6782 97.0502 51.6413C96.9517 51.6079 96.8286 51.5903 96.6827 51.5903Z" fill="black"/>
<path d="M99.0703 53.6087H99.3411L98.418 51.52L97.495 53.6087H97.7622L98.0137 53.0127H98.8172L99.0703 53.6087ZM98.7205 52.7841H98.1121L98.4163 52.0685L98.7205 52.7841Z" fill="black"/>
</svg>
