<svg width="1295" height="587" viewBox="0 0 1295 587" fill="none" xmlns="http://www.w3.org/2000/svg">
<path d="M6.59985 61.5041C9.00873 60.5081 10.2826 60.3691 10.9775 59.6279C15.9342 54.4164 21.7711 50.3167 27.8165 46.5644C32.0552 43.9239 35.5063 40.5191 38.9343 37.0448C44.8638 31.0921 50.6776 30.7215 57.8347 35.2844C65.2235 40.0095 73.2376 43.7618 80.9738 47.9542C86.2548 46.6803 88.5247 51.0811 92.0453 53.4668C96.3072 56.3621 101.055 59.3037 105.989 60.3228C112.59 61.6894 118.195 64.2372 122.944 68.7307C124.774 70.4447 126.418 71.2554 129.012 71.3944C132.255 71.5797 135.776 72.2514 138.601 73.8033C145.342 77.5324 152.846 79.8023 158.961 84.8517C161.138 86.6583 164.427 87.4226 167.346 88.048C174.063 89.4609 178.927 94.325 184.972 96.9655C191.736 99.9534 198.152 103.683 204.915 106.717C212.605 110.145 217.399 115.82 220.804 123.463C223.259 128.953 226.456 134.025 228.216 139.931C230.718 148.293 231.737 156.655 231.227 165.271C231.135 166.823 230.532 169.116 229.421 169.718C224.927 172.127 223.236 177.269 218.696 179.794C215.315 181.693 212.443 184.773 209.571 187.669C203.525 193.76 196.461 198.81 190.022 204.508C185.181 208.793 180.687 213.472 176.032 217.965C172.557 221.324 169.523 225.122 164.335 226.234C162.551 226.604 160.86 228.017 159.424 229.291C151.85 236.124 144.392 243.05 136.911 249.975C128.341 257.897 119.863 265.911 111.247 273.786C108.954 275.871 106.221 277.469 103.881 279.507C100.94 282.055 99.6425 285.39 99.7815 289.351C99.9205 293.775 100.036 298.245 99.7584 302.669C99.3415 309.548 97.2337 316.613 98.2991 323.191C101.403 342.207 98.9013 361.223 99.7352 380.216C99.851 382.926 101.102 386.123 98.1138 388.439C97.6738 388.763 97.7201 390.338 98.0907 390.987C101.171 396.129 99.5036 401.757 99.7584 407.154C100.036 412.759 99.8279 418.388 99.8279 424.016C99.8279 432.007 99.5267 440.021 99.9205 447.989C100.337 456.582 101.38 465.176 102.237 474.533C97.4421 474.533 93.3888 474.533 89.3354 474.533C73.3534 474.533 57.3715 474.556 41.3895 474.487C40.1388 474.487 38.9112 473.722 37.6604 473.305C38.17 472.333 38.5174 471.221 39.1891 470.387C45.9525 462.141 50.6081 453.062 50.0754 442.06C49.7279 435.111 52.7159 428.556 52.021 421.468C51.3493 414.728 51.0019 407.71 52.16 401.109C53.0633 395.99 54.4067 390.825 53.5034 385.845C50.3533 368.357 52.3221 350.8 51.9515 333.29C51.5809 315.547 51.882 297.782 51.882 280.017C51.882 262.251 51.8125 244.509 51.9515 226.743C51.9747 223.709 50.6776 220.443 53.5265 217.571C54.4067 216.668 54.1982 213.935 53.5729 212.429C50.3533 204.508 52.3221 196.308 51.9515 188.271C51.6272 181.183 52.1137 174.049 51.8125 166.962C51.5346 160.384 50.4691 153.852 50.168 147.274C49.8669 140.788 51.0482 134.071 49.8206 127.794C48.6625 121.772 49.7974 115.379 47.9444 109.96C45.8135 103.752 47.5044 97.8457 46.5084 91.9393C45.9988 88.9282 44.1922 86.2182 44.5628 82.8828C44.6554 82.1185 42.1307 80.8909 40.6483 80.1497C32.3331 75.9573 23.9252 71.9503 15.6563 67.6189C12.6684 66.0902 10.0279 63.8667 6.59985 61.5041ZM99.6657 219.1C102.468 217.316 104.622 216.251 106.406 214.722C111.687 210.229 116.482 205.11 122.087 201.126C127.09 197.559 130.958 192.834 135.752 189.197C143.072 183.662 150.183 177.964 156.784 171.594C163.686 164.947 170.866 158.6 177.954 152.161C178.533 151.652 179.436 151.513 180.201 151.211C182.077 150.424 182.123 149.034 180.803 147.922C179.112 146.486 177.931 144.726 175.383 143.938C169.361 142.086 164.219 138.102 158.59 135.322C140.964 126.613 123.662 117.163 105.387 109.774C103.742 109.102 101.912 108.917 100.106 108.477C98.6929 127.91 101.634 146.648 98.1138 165.201C97.419 168.907 98.276 172.891 97.9749 176.69C96.8631 190.68 101.102 204.346 99.6657 219.1Z" fill="white" fill-opacity="0.1"/>
<path d="M685.717 482.192C682.358 486.408 679 490.623 675.641 494.815C673.626 497.34 670.661 498.73 668.669 501.486C666.77 504.15 663.365 505.679 660.817 507.925C658.154 510.265 656.162 513.947 653.128 515.129C649.514 516.542 649.584 520.942 645.368 521.892C642.125 522.633 639.601 526.293 636.59 528.447C633.208 530.879 629.711 533.218 626.144 535.349C620.446 538.754 615.049 542.599 609.258 545.888C601.29 550.428 592.813 553.485 584.591 557.215C577.387 560.48 569.743 563.028 562.077 564.951C556.309 566.387 549.986 565.553 544.242 567.058C535.301 569.421 526.337 568.402 517.397 568.61C508.225 568.819 499.029 569.05 489.88 568.541C481.797 568.078 473.759 566.526 465.93 564.256C459.352 562.333 452.821 560.156 446.335 557.979C439.803 555.802 433.804 552.513 427.666 549.432C414.209 542.692 402.049 534.029 389.472 525.945C386.577 524.093 384.423 521.128 381.597 519.136C377.937 516.542 374.324 514.249 373.328 509.315C373.096 508.157 370.757 507.439 369.413 506.466C365.244 503.501 360.519 501.556 357.415 496.9C354.682 492.8 350.443 489.697 346.923 486.106C339.488 478.556 332.956 470.402 327.189 461.462C322 453.401 315.584 446.128 309.91 438.392C304.652 431.212 299.487 424.008 293.024 417.801C290.94 415.809 290.129 412.52 288.508 409.972C283.134 401.541 276.371 394.083 271.947 384.864C269.445 379.653 264.349 375.692 259.972 370.689C257.609 372.959 255.548 374.951 253.463 376.92C250.429 379.815 249.062 383.243 249.086 387.574C249.225 405.919 248.205 424.356 249.502 442.608C250.244 453.031 250.637 463.384 250.962 473.668C244.592 477.073 237.597 477.444 231.413 476.008C220.364 473.46 209.339 475.475 197.897 474.201C200.561 469.545 204.591 465.654 205.679 460.257C205.772 459.748 206.421 459.331 206.467 458.821C207.116 452.568 208.482 446.244 208.065 440.037C207.532 432.092 210.683 424.634 210.08 416.782C210.011 415.994 210.196 414.859 210.706 414.419C214.296 411.339 214.875 408.467 210.96 405.085C209.71 404.019 209.64 396.376 210.011 393.643C210.242 391.906 210.057 390.099 210.057 388.315C210.057 368.187 210.173 348.059 209.988 327.931C209.941 323.438 208.644 318.968 208.366 314.451C208.065 309.726 208.297 304.978 208.297 300.253C208.297 295.528 209.246 290.524 208.112 286.1C205.077 274.218 207.231 262.267 206.56 250.361C206.282 245.358 206.166 245.868 201.209 243.413C194.33 240.008 186.941 238.108 179.136 235.306C184.301 228.635 189.883 222.914 195.975 218.096C200.074 214.853 204.035 211.518 207.532 207.743C211.03 203.99 214.574 203.875 219.137 205.426C229.259 208.854 239.242 212.699 249.387 216.012C263.724 220.69 277.575 226.689 291.912 231.345C297.055 233.013 302.544 234.634 307.2 237.205C311.739 239.707 316.464 242.278 320.726 245.358C325.915 249.11 329.644 254.16 332.632 259.742C336.592 267.131 340.623 274.496 339.905 283.437C339.743 285.382 341.086 287.676 342.267 289.482C344.028 292.192 343.611 294.161 341.318 296.246C332.933 303.935 324.641 311.741 316.279 319.454C308.798 326.38 301.247 333.236 293.395 340.439C295.41 346.809 299.741 352.02 303.563 357.232C315.283 373.237 324.618 390.747 336.222 406.822C338.862 410.482 341.526 414.118 344.236 417.708C351.023 426.742 357.832 435.775 364.642 444.785C365.152 445.457 365.615 446.198 366.24 446.777C377.705 457.941 386.322 471.607 398.204 482.424C408.743 491.99 420.301 500.143 431.905 508.319C441.888 515.36 452.913 520.433 463.707 525.945C470.262 529.281 477.488 531.18 484.205 534.33C487.633 535.952 491.803 536.507 495.648 536.531C498.659 536.554 501.16 537.573 503.777 538.523C507.576 539.889 511.444 540.399 515.498 540.306C523.187 540.121 530.9 540.468 538.59 540.19C544.381 539.982 549.708 541.603 555.128 543.225C558.765 544.313 562.123 544.568 565.482 541.325C569.767 537.202 575.997 535.928 581.464 535.234C589.339 534.238 596.403 530.856 604.07 529.489C608.355 528.725 612.57 527.196 616.578 525.413C620.585 523.629 624.962 522.216 628.552 520.132C633.301 517.352 638.281 514.804 642.867 511.678C649.306 507.3 655.722 502.945 662.392 498.892C669.411 494.63 675.34 488.631 681.802 483.42C682.822 482.586 684.026 481.96 685.138 481.242C685.23 481.59 685.462 481.891 685.717 482.192ZM251.564 322.303C254.112 318.041 258.188 316.188 261.199 313.038C265.901 308.151 271.738 304.375 276.973 299.998C279.22 298.099 280.818 295.111 283.342 293.906C289.666 290.849 293.117 284.85 298.166 280.542C299.44 279.453 299.348 277.971 297.332 277.345C295.503 276.766 293.673 276.187 291.866 275.562C289.527 274.774 286.4 274.658 285.033 273.037C281.582 269.007 277.645 267.872 272.642 268.335C271.182 268.474 269.584 267.27 268.055 266.667C264.998 265.486 261.848 263.17 258.906 263.425C255.895 263.679 253.926 259.858 251.054 262.035C247.696 264.583 251.124 267.478 251.031 270.211C250.614 284.387 250.846 298.585 250.8 312.783C250.8 314.474 251.054 316.721 250.128 317.763C247.649 320.543 251.703 320.218 251.564 322.303Z" fill="white" fill-opacity="0.1"/>
<path d="M1288.33 112.128C1288.98 124.496 1284.53 134.595 1278.53 144.161C1276.89 146.778 1274.53 148.979 1273 151.642C1271.45 154.329 1266.91 153.82 1266.74 157.78C1262.85 158.197 1259.45 160.282 1255.28 160.212C1231.91 159.958 1208.51 160.097 1185.14 160.097C1183.36 160.097 1181.6 160.027 1179.82 160.12C1176.11 160.305 1174.79 161.625 1174.74 165.447C1174.67 174.318 1174.72 183.213 1174.72 192.084C1174.72 198.291 1174.93 204.522 1174.67 210.729C1174.26 221.152 1173.31 231.552 1173.01 241.952C1172.7 252.305 1172.89 262.659 1172.98 273.036C1173.01 275.167 1171.94 276.742 1171.34 278.571C1169.72 283.412 1172.73 288.022 1173.61 292.677C1174 294.785 1174.46 297.032 1174.72 299.232C1175.74 307.686 1173.1 315.909 1173.03 324.247C1172.82 352.065 1173.05 379.883 1172.87 407.701C1172.82 414.372 1175.46 420.625 1174.86 427.389C1174.28 433.851 1173.58 440.661 1175.04 446.845C1176.55 453.215 1176.02 459.445 1176.57 465.722C1176.83 468.432 1177.82 471.05 1178.61 474.176C1155.8 474.176 1133.47 474.176 1110.77 474.176C1114.31 469.22 1118.23 464.796 1120.89 459.746C1123.46 454.882 1124.97 449.393 1124.97 443.695C1124.97 424.169 1123.62 404.504 1125.34 385.118C1127.17 364.295 1126.33 343.541 1126.68 322.788C1127.03 301.78 1126.68 280.772 1126.84 259.741C1126.87 256.729 1128.51 253.695 1128.42 250.707C1128.26 245.31 1128.3 239.589 1126.47 234.679C1124.85 230.325 1125.22 226.225 1125.01 221.986C1124.83 218.141 1125.01 214.296 1124.97 210.451C1124.83 197.643 1122.26 184.996 1123.04 172.118C1123.23 168.945 1121.61 165.679 1120.68 161.857C1106.6 161.857 1092.17 161.926 1077.74 161.834C1070.07 161.787 1062.2 163.085 1055.06 158.707C1054.44 158.313 1052.96 158.823 1052.1 159.309C1046.03 162.83 1039.57 164.081 1032.57 163.71C1026.97 163.409 1021.34 163.64 1014.85 163.64C1015.18 161.741 1015.34 159.934 1015.85 158.22C1017.01 154.19 1017.47 149.836 1018.72 146.06C1021.11 138.857 1023.79 131.445 1028.98 125.469C1031.02 123.13 1034.24 121.647 1034.66 118.057C1038.83 116.691 1042.25 113.703 1047.14 113.795C1062.22 114.073 1077.32 113.888 1092.42 113.911C1094.97 113.911 1097.71 113.309 1099.67 115.671C1103.45 112.058 1108.48 114.861 1112.81 113.054C1115.7 111.85 1119.66 112.058 1122.77 112.915C1124.39 113.378 1126.01 113.865 1127.65 113.865C1154.89 113.911 1182.11 113.888 1209.35 113.888C1222.29 110.599 1235.5 112.475 1248.56 112.174C1261.55 111.896 1274.57 112.128 1288.33 112.128Z" fill="white" fill-opacity="0.1"/>
<path d="M755.181 474.779C761.157 465.653 766.044 457.43 766.183 446.984C766.276 440.429 768.337 434.013 767.92 427.273C767.504 420.486 767.365 413.607 768.013 406.867C768.407 402.814 766.369 399.177 767.596 394.938C768.708 391.163 767.828 386.808 767.828 382.686C755.089 381.898 742.674 381.11 730.259 380.416C727.039 380.23 723.796 380.393 720.531 380.393C721.503 374.046 723.542 368.302 726.923 362.998C730.351 357.647 733.085 351.81 736.837 346.715C740.543 341.712 746.565 340.391 752.448 339.604C755.367 339.21 758.355 339.627 761.319 339.511C764.423 339.372 765.882 337.867 766.021 334.693C766.137 332.03 765.882 329.343 766.091 326.702C766.299 324.224 765.164 321.607 767.434 319.221C768.337 318.271 768.245 315.7 767.735 314.148C764.33 303.563 766.647 292.7 766.091 281.999C765.79 276.093 766.044 270.163 766.044 264.234C766.044 260.528 765.952 256.984 764.423 253.371C763.033 250.082 764.655 246.353 762.894 242.438C761.319 238.964 761.389 234.169 760.972 230C760.231 222.38 759.049 214.921 757.22 207.51C756.895 206.189 756.965 205.008 759.096 204.406C766.345 202.344 779.687 202.298 788.002 204.105C791.662 204.892 795.599 204.452 799.398 204.498C806.578 204.591 806.879 204.823 806.903 211.887C806.926 237.343 806.764 262.821 806.995 288.276C807.065 296.615 808.339 304.953 808.617 313.292C808.918 321.838 808.686 330.385 808.686 339.233C828.119 339.233 847.274 339.233 867.31 339.233C867.31 336.106 867.518 332.655 867.287 329.227C866.082 311.346 869.695 293.65 869.209 275.769C868.723 257.725 868.792 239.636 869.278 221.592C869.417 216.265 871.479 210.961 870.691 204.823C873.077 204.707 875.324 204.429 877.547 204.522C888.04 205.008 898.254 201.372 908.793 202.692C910.252 202.877 912.013 202.229 913.171 202.831C914.7 203.665 916.159 205.147 916.946 206.722C917.549 207.903 917.572 209.895 916.97 211.053C914.306 216.288 916.437 222.032 915.093 227.197C912.777 236.138 914.051 245.102 913.402 254.042C913.125 257.957 911.295 261.617 911.619 265.763C911.92 269.677 912.314 273.684 910.09 277.529C909.187 279.081 909.789 281.606 909.975 283.667C911.04 295.642 908.33 307.431 908.191 319.36C908.052 331.196 908.284 343.055 908.075 354.891C908.029 357.277 907.195 359.871 906.014 361.979C903.813 365.962 903.535 369.414 906.824 372.957C907.681 373.884 908.075 375.505 908.098 376.802C908.214 383.311 908.029 389.843 908.191 396.351C908.353 402.651 908.122 408.859 909.627 415.228C911.086 421.39 909.951 428.176 909.951 434.685C909.951 447.702 909.951 460.719 909.951 474.13C892.279 474.13 874.698 474.13 855.867 474.13C859.921 471.119 861.751 467.135 865.989 465.56C866.661 465.305 867.333 463.73 867.24 462.873C866.499 457.036 868.746 451.524 869.024 445.826C869.302 440.221 868.931 434.569 869.116 428.964C869.348 422.316 866.499 416.062 867.147 409.253C867.819 402.512 867.495 395.633 867.24 388.847C867.009 382.709 864.299 380.416 858.068 380.393C851.559 380.346 845.028 380.161 838.542 380.462C834.442 380.647 830.227 380.416 826.938 378.447C819.92 374.278 814.94 380.555 808.918 381.226C806.74 381.458 806.856 384.33 806.879 386.461C806.949 395.633 807.018 404.829 806.833 414.001C806.787 416.757 808.2 419.907 805.189 422.223C804.748 422.548 804.98 423.937 805.142 424.794C805.675 427.528 806.323 430.238 806.879 432.948C807.458 435.704 805.559 438.761 808.176 441.332C808.802 441.958 808.64 443.51 808.64 444.645C808.663 452.937 808.709 461.229 808.617 469.521C808.57 472.856 807.088 474.755 804.123 474.477C793.005 473.412 782.142 476.724 771.094 476.284C766.091 476.076 761.041 475.335 755.181 474.779Z" fill="white" fill-opacity="0.1"/>
<path d="M474.385 257.422C482.701 258.14 491.178 258.117 499.308 259.785C508.688 261.707 517.699 265.297 525.805 270.717C529.28 273.034 532.916 275.141 536.205 277.689C537.942 279.056 539.054 281.187 540.444 282.97C541.139 283.873 541.695 284.939 542.552 285.634C555.036 295.292 551.029 291.17 563.583 309.445C567.822 315.629 570.555 322.577 574.33 328.947C575.952 331.68 575.21 334.552 576.276 337.031C578.754 342.891 579.75 348.89 579.565 355.213C579.472 358.873 578.569 362.764 581.256 366.03C581.395 366.215 581.279 366.609 581.279 366.91C581.279 368.091 581.742 369.55 581.209 370.407C577.55 376.43 580.561 383.286 578.499 389.678C576.392 396.187 575.488 403.113 572.408 409.366C570.601 413.049 568.933 416.825 566.942 420.415C564.787 424.283 562.309 427.966 559.993 431.741C559.715 432.204 559.784 432.922 559.437 433.27C550.96 441.516 543.525 451.058 532.638 456.432C527.265 459.096 522.817 463.867 516.263 464.029C514.294 466.762 511.398 465.558 508.943 465.558C505.098 465.581 501.624 466.16 498.821 469.032C495.833 472.113 492.151 473.016 487.935 472.785C483.511 472.553 479.064 472.646 474.617 472.761C472.671 472.808 470.865 472.877 468.826 473.781C466.533 474.8 463.36 473.92 460.581 473.688C459.214 473.572 457.894 472.761 456.55 472.785C448.837 472.877 441.217 471.395 434.361 468.453C427.875 465.674 420.255 464.608 415.322 458.679C406.427 456.525 400.382 450.109 395.124 443.484C390.075 437.115 384.817 430.861 380.208 424.074C377.197 419.65 373.63 415.62 372.471 410.362C371.753 407.12 371.035 402.95 372.471 400.426C374.371 397.067 372.518 395.562 370.827 394.867C365.036 392.458 364.064 387.779 362.489 382.359C359.686 372.747 361.886 363.227 360.983 353.731C363.623 350.465 362.581 346.597 362.79 342.937C362.859 341.848 362.905 340.459 363.554 339.741C369.159 333.556 371.336 325.728 373.282 318.038C375.158 310.626 378.772 304.627 384.168 299.438C388.87 294.922 393.711 290.521 397.904 285.587C403.231 279.334 410.319 275.489 416.688 270.717C420.371 267.961 425.351 267.614 429.474 265.158C433.133 262.981 437.766 262.286 442.074 261.429C452.729 259.321 463.383 257.19 474.385 257.422ZM397.487 365.821C401.957 370.732 404.69 376.407 406.775 381.827C409.16 388.011 412.727 393.547 414.997 399.708C418.333 408.787 425.768 414.763 432.763 420.531C436.376 423.519 439.827 428.012 445.386 428.336C447.911 432.274 452.265 429.355 455.786 431.116C460.094 433.27 465.653 432.969 470.679 433.617C475.891 434.289 481.01 433.432 485.874 431.787C494.189 429.008 503.269 427.734 509.708 420.809C515.545 419.187 517.282 413.466 520.802 409.552C523.582 406.471 525.782 402.811 527.936 399.245C532.824 391.184 535.232 382.382 535.07 372.932C534.931 364.571 535.95 356.14 533.333 347.94C531.99 343.748 530.114 339.486 529.998 335.224C529.882 331.287 527.89 329.225 525.458 327.303C523.095 325.473 520.223 324.292 517.583 322.832C517.629 318.269 512.973 318.385 510.75 316.092C499.702 304.719 485.688 300.573 470.285 300.458C467.274 300.434 464.287 302.033 461.275 302.056C447.888 302.172 437.071 308.217 427.435 316.694C424.054 319.682 421.39 323.55 418.611 327.187C413.909 333.348 409.021 339.949 407.678 347.384C406.288 354.935 403.856 360.957 397.487 365.821Z" fill="white" fill-opacity="0.1"/>
<path d="M989.931 339.534C989.931 345.672 990.973 351.254 989.722 356.257C986.688 368.44 989.004 380.693 988.147 392.876C991.784 405.5 988.888 418.424 990.255 431.928C992.594 431.928 995.142 431.928 997.713 431.928C1017.84 431.928 1037.97 431.719 1058.1 432.02C1068.2 432.183 1076.7 429.565 1083.6 420.486C1084.06 428.315 1086.26 434.962 1085.98 442.142C1085.54 452.727 1085.87 463.359 1085.87 474.546C1075.89 474.546 1066.16 475.033 1056.5 474.43C1044.48 473.689 1032.76 476.469 1020.83 476.353C1008.99 476.237 997.088 475.635 985.321 476.561C977.423 477.187 969.386 478.785 961.927 482.074C957.943 483.834 953.913 485.433 949.559 487.239C948.771 478.947 947.798 471.003 947.335 463.035C946.988 456.85 947.057 450.597 947.335 444.389C947.474 441.054 948.655 437.788 948.98 434.453C949.281 431.233 949.559 427.851 948.957 424.701C945.644 407.26 947.706 389.657 947.335 372.146C946.965 354.404 947.266 336.638 947.266 318.873C947.266 301.107 947.266 283.365 947.266 265.6C947.266 247.834 947.266 230.092 947.266 212.327C947.266 202.83 950.068 199.912 958.638 202.992C964.545 205.1 970.15 204.405 975.755 204.127C978.21 204.011 981.106 202.483 983.908 202.761C987.545 203.108 991.112 203.965 994.725 204.451C998.338 204.938 1001.88 204.729 1005.66 205.841C1009.62 206.999 1014.76 207.648 1019.16 204.753C1020.41 203.919 1022.59 204.475 1024.35 204.475C1043.6 204.475 1062.82 204.475 1082.07 204.475C1082.95 204.475 1083.85 204.428 1084.73 204.475C1087.81 204.706 1089.39 206.142 1089.39 209.316C1089.37 224.672 1089.25 240.029 1089.13 255.362C1089.13 255.594 1088.76 255.802 1088.35 256.289C1085.78 254.714 1083.23 253.069 1080.59 251.61C1077.72 250.012 1074.87 248.02 1071.76 247.255C1067.11 246.12 1062.22 245.449 1057.45 245.425C1035.26 245.24 1013.05 245.356 990.672 245.356C988.958 254.968 987.383 264.604 988.24 274.448C988.657 279.242 990.787 283.852 989.977 288.808C989.745 290.198 990.093 292.051 989.305 292.931C987.058 295.479 990.208 296.452 990.811 296.591C992.733 297.1 994.887 296.869 996.925 296.869C1019.42 296.869 1041.91 296.869 1064.4 296.892C1067.5 296.892 1070.42 296.961 1073.52 298.49C1077.62 300.528 1077.72 299.926 1076.09 304.095C1072.67 312.874 1068.61 321.259 1062.89 328.856C1060.09 332.585 1057.24 335.295 1052.49 336.87C1047.53 338.515 1042.81 339.603 1037.62 339.58C1021.94 339.441 1006.28 339.534 989.931 339.534Z" fill="white" fill-opacity="0.1"/>
<path d="M604.324 246.052C593.877 241.975 583.431 237.899 572.313 233.544C575.046 230.348 578.22 227.221 580.675 223.607C582.412 221.06 586.049 221.245 587.183 217.585C588.017 214.898 590.936 212.768 592.812 210.243C595.452 206.676 599.529 204.082 603.212 201.395C604.138 200.723 606.246 200.723 607.265 201.302C613.334 204.8 620.329 205.425 626.745 207.88C632.906 210.243 638.928 212.814 644.811 215.686C649.837 218.164 655.443 218.512 660.585 220.457C674.667 225.785 689.051 230.301 703.273 235.304C713.117 238.756 721.247 245.264 727.292 254.622C730.465 259.555 733.893 264.257 735.816 269.793C737.344 274.217 738.271 278.849 739.429 283.389C739.846 284.987 740.101 286.655 740.587 288.23C741.907 292.376 741.398 295.712 738.224 299.232C735.051 302.753 732.897 307.038 728.195 309.146C726.713 309.817 725.717 311.392 723.655 311.114C719.046 310.512 716.498 312.666 714.367 316.882C712.352 320.866 709.411 324.826 705.867 327.49C696 334.948 688.402 344.792 678.975 352.575C671.749 358.528 665.24 365.152 658.477 371.521C656.879 373.027 654.655 373.907 653.034 375.39C652.084 376.247 651.551 377.706 651.134 379.003C650.162 381.875 648.262 384.4 648.772 387.828C650.162 397.139 645.877 406.381 647.289 415.437C649.583 430.307 648.1 445.154 648.98 459.978C649.258 464.68 651.482 469.266 650.277 474.339C632.165 474.339 614.191 474.339 595.823 474.339C598.51 470.702 601.405 467.436 603.536 463.73C606.478 458.612 608.261 453.122 608.053 446.938C607.728 436.005 607.798 425.049 608.029 414.117C608.145 408.72 606.987 403.277 609.535 397.903C610.67 395.494 610.832 391.372 609.466 389.287C607.427 386.183 610.369 384.261 609.813 381.69C609.419 379.837 609.35 377.822 611.11 375.992C611.782 375.32 611.18 372.633 610.369 371.383C608.053 367.816 607.867 363.994 607.891 359.94C607.983 347.224 607.566 334.485 608.006 321.792C608.632 303.934 604.856 286.261 606.153 268.403C603.351 261.177 604.717 253.579 604.324 246.052ZM651.389 319.939C655.813 316.395 659.959 312.458 664.684 309.4C674.366 303.1 683.168 295.827 691.066 287.466C696.695 281.49 695.884 278.131 688.194 275.607C682.45 273.731 677.007 271.136 671.378 269.052C665.449 266.875 659.357 265.253 653.868 261.987C652.246 261.038 649.374 262.103 649.027 263.84C648.216 267.986 646.27 272.572 647.313 276.255C649.861 285.242 648.378 294.183 648.726 303.123C648.957 308.868 648.679 314.566 651.389 319.939Z" fill="white" fill-opacity="0.1"/>
<path d="M342.752 222.269C346.782 215.204 349.839 208.649 354.008 202.905C359.567 195.285 365.613 187.873 374.947 184.375C376.476 183.796 378.283 183.032 379.719 183.379C388.659 185.441 393.083 185.557 400.634 183.565C402.001 183.217 403.483 183.194 404.919 183.194C445.105 183.171 485.292 183.171 526.382 183.171C525.895 185.255 525.756 187.132 525.038 188.73C521.031 197.671 516.932 206.588 509.404 213.305C506.879 221.597 498.935 221.481 492.704 223.983C491.94 224.284 490.573 224.4 490.11 223.96C486.844 220.74 482.86 222.755 479.247 222.269C472.437 221.365 465.372 223.936 458.609 220.647C457.358 220.045 454.973 221.528 453.235 222.292C450.711 223.404 448.672 225.234 445.546 222.755C444.063 221.574 441.052 222.269 438.736 222.269C409.158 222.246 379.603 222.246 350.025 222.246C347.986 222.269 345.948 222.269 342.752 222.269Z" fill="white" fill-opacity="0.1"/>
<path d="M327.652 29.7193C326.354 25.8744 326.586 21.1493 329.852 18.3698C333.952 14.8723 338.121 10.6568 344.421 10.8189C351.231 11.0042 358.295 9.68398 364.781 11.12C375.852 13.5984 386.854 12.4866 397.856 12.4403C404.666 12.4171 411.476 10.2399 418.447 10.8421C420.416 11.0042 422.13 11.12 424.099 12.3013C426.114 13.5289 427.782 13.4362 425.906 16.2389C424.863 17.7676 425.072 20.3154 423.844 21.5199C421.76 23.5581 421.459 27.4494 417.776 27.7737C413.468 28.1443 408.534 29.7656 404.921 28.2832C399.014 25.8744 393.942 26.8472 388.499 28.5844C387.966 28.7465 387.317 28.6075 386.113 28.6075C386.113 66.3388 386.113 104.07 386.113 141.94C378.562 141.94 371.614 141.94 364.225 141.94C365.614 137.586 367.213 133.764 367.977 129.757C368.579 126.607 368.093 123.272 368.093 120.006C368.093 96.9129 368.162 73.8202 368.023 50.7274C368 45.6317 369.251 40.3508 366.448 35.3941C365.892 34.4212 367.12 32.4293 367.699 30.2057C358.249 31.7807 349.146 27.3104 339.511 28.5612C335.666 29.0939 331.774 29.3256 327.652 29.7193Z" fill="white" fill-opacity="0.1"/>
<path d="M396.352 108.567C397.255 107.061 398.228 106.181 398.205 105.324C398.135 101.641 398.39 99.0935 402.884 97.4026C408.188 95.4107 410.041 84.2696 408.582 78.9423C408.373 78.178 407.145 77.5063 407.238 76.8809C408.535 66.1568 404.482 55.6643 405.524 44.5927C410.018 44.5927 414.117 44.5001 418.217 44.6159C421.483 44.7085 423.104 46.1446 423.127 49.202C423.22 62.5203 423.313 75.8617 423.081 89.18C422.988 94.1831 422.572 94.2525 426.81 94.322C432.415 94.4147 438.044 94.3452 444.483 94.3452C444.483 91.7279 444.367 89.1569 444.506 86.609C445.247 72.7117 446.035 58.8143 446.799 44.7548C451.756 44.7548 456.689 44.7548 462.248 44.7548C462.248 50.4064 463.221 56.1507 462.063 61.4548C459.33 73.9393 460.859 86.47 460.558 98.9545C460.257 111.393 460.488 123.831 460.488 136.269C460.488 137.45 460.766 138.724 460.419 139.813C459.747 141.92 460.094 144.584 455.763 142.615C452.335 141.063 447.633 142.291 442.885 142.291C443.51 140.924 444.251 139.928 444.437 138.817C444.691 137.381 444.506 135.875 444.506 134.393C444.506 127.583 444.321 120.773 444.576 113.964C444.761 108.729 445.016 108.636 441.101 108.567C435.774 108.474 430.424 108.312 425.119 108.683C423.521 108.798 419.468 109.331 423.035 112.829C423.081 121.978 423.266 131.15 423.058 140.299C423.012 141.874 422.502 145.858 418.912 142.523C418.564 142.222 417.545 142.083 417.291 142.337C415.715 143.889 413.029 145.163 411.94 143.912C409.74 141.388 408.512 144.491 407.053 143.982C406.312 143.727 405.408 141.781 405.501 141.712C407.956 139.651 406.891 136.871 407.215 134.37C408.118 127.838 409.462 121.352 408.998 114.658C408.651 109.679 407.887 108.706 402.837 108.567C400.845 108.52 398.853 108.567 396.352 108.567Z" fill="white" fill-opacity="0.1"/>
<path d="M490.947 94.3616C490.947 105.549 490.947 116.412 490.947 127.391C501.81 131.977 512.72 130.124 524.023 126.094C524.023 132.116 524.023 137.86 524.023 144.114C515.846 144.114 507.624 144.068 499.424 144.114C491.248 144.16 482.91 143.002 474.71 149.024C474.71 138.3 475.035 129.198 474.479 120.141C474.317 117.686 478.717 116.945 475.892 113.957C474.757 112.752 474.757 110.228 474.757 108.305C474.687 87.3434 474.71 66.3584 474.71 44.6091C478.208 44.6091 481.659 44.6091 485.133 44.6091C497.548 44.6091 509.963 44.6323 522.378 44.5859C524.162 44.5859 525.69 44.6091 527.08 46.2073C528.702 48.0834 527.011 49.0794 526.756 50.5849C526.131 54.2446 526.547 58.0664 526.547 62.1429C520.595 59.0855 514.619 61.0774 508.898 59.2013C503.594 57.4641 497.27 58.8307 491.063 58.8307C491.063 65.154 491.063 71.292 491.063 78.0785C495.834 78.2638 501.416 77.291 506.003 78.9818C510.959 80.8116 515.777 78.9587 520.433 80.5337C518.533 82.85 519.46 86.0463 517.213 88.5942C513.16 93.2035 507.717 93.2498 502.644 94.2226C498.915 94.9175 495.024 94.3616 490.947 94.3616Z" fill="white" fill-opacity="0.1"/>
<path d="M706.865 534.421C706.054 533.865 705.105 533.448 704.039 533.17C703.831 533.124 703.622 533.1 703.414 533.054C703.692 532.985 703.993 532.938 704.248 532.822C705.406 532.382 706.309 531.711 706.958 530.83C707.606 529.95 707.931 528.908 707.931 527.68C707.931 526.175 707.606 524.947 706.958 523.998C706.309 523.048 705.406 522.33 704.248 521.844C703.09 521.38 701.723 521.125 700.148 521.125H693.408V547.322H700.519C702.21 547.322 703.738 547.044 705.059 546.488C706.402 545.932 707.444 545.075 708.232 543.94C709.019 542.805 709.413 541.369 709.413 539.655C709.413 538.451 709.181 537.432 708.741 536.552C708.301 535.695 707.676 534.977 706.865 534.421ZM700.125 523.951C701.445 523.951 702.557 524.299 703.414 524.97C704.294 525.665 704.734 526.615 704.734 527.866C704.734 528.7 704.526 529.394 704.132 529.973C703.738 530.553 703.182 530.993 702.487 531.294C701.793 531.595 701.005 531.734 700.125 531.734H696.558V523.951H700.125ZM705.499 542.226C705.012 542.968 704.34 543.547 703.483 543.94C702.626 544.334 701.631 544.543 700.519 544.543H696.581V534.513H700.519C701.376 534.513 702.14 534.629 702.835 534.838C703.53 535.046 704.132 535.37 704.642 535.787C705.151 536.204 705.545 536.737 705.823 537.362C706.101 537.988 706.24 538.706 706.24 539.493C706.24 540.559 705.985 541.485 705.499 542.226Z" fill="white" fill-opacity="0.1"/>
<path d="M720.648 533.291L713.907 521.154H710.364L719.073 536.094V547.374H722.269V536.048L730.978 521.154H727.434L720.648 533.291Z" fill="white" fill-opacity="0.1"/>
<path d="M757.008 520.783C755.179 520.783 753.488 521.107 751.89 521.779C750.315 522.45 748.925 523.377 747.72 524.581C746.516 525.786 745.589 527.222 744.918 528.866C744.246 530.511 743.899 532.318 743.899 534.263C743.899 536.209 744.246 538.015 744.918 539.66C745.589 541.304 746.516 542.741 747.72 543.945C748.925 545.149 750.315 546.099 751.89 546.748C753.465 547.419 755.179 547.744 757.008 547.744C758.931 547.744 760.529 547.512 761.849 547.025C763.146 546.539 764.351 545.821 765.439 544.848V540.656C764.837 541.42 764.119 542.115 763.262 542.694C762.405 543.273 761.479 543.736 760.436 544.061C759.394 544.385 758.259 544.547 757.008 544.547C755.294 544.547 753.696 544.107 752.214 543.227C750.731 542.347 749.55 541.142 748.647 539.59C747.744 538.039 747.28 536.255 747.28 534.24C747.28 532.202 747.744 530.395 748.647 528.866C749.55 527.338 750.755 526.133 752.214 525.253C753.696 524.373 755.294 523.933 757.008 523.933C758.259 523.933 759.394 524.095 760.436 524.419C761.479 524.743 762.405 525.207 763.262 525.786C764.119 526.365 764.837 527.06 765.439 527.824V523.632C764.351 522.659 763.146 521.941 761.849 521.454C760.529 521.014 758.931 520.783 757.008 520.783Z" fill="white" fill-opacity="0.1"/>
<path d="M788.625 531.647H774.218V521.154H771.045V547.374H774.218V534.635H788.625V547.374H791.822V521.154H788.625V531.647Z" fill="white" fill-opacity="0.1"/>
<path d="M794.995 547.37H798.539L801.875 539.518H812.437L815.772 547.37H819.339L807.179 519.854L794.995 547.37ZM811.186 536.507H803.172L807.179 527.08L811.186 536.507Z" fill="white" fill-opacity="0.1"/>
<path d="M825.686 521.154H822.512V547.351H825.686V521.154Z" fill="white" fill-opacity="0.1"/>
<path d="M851.533 540.653L831.683 519.854V547.37H834.88V527.844L854.707 548.667V521.151H851.533V540.653Z" fill="white" fill-opacity="0.1"/>
<path d="M883.59 535.923C884.934 535.297 885.976 534.371 886.764 533.19C887.551 532.008 887.945 530.619 887.945 529.02C887.945 527.399 887.551 526.009 886.764 524.828C885.976 523.647 884.911 522.743 883.59 522.118C882.247 521.493 880.742 521.168 879.051 521.168H875.113H873.7H871.94V547.365H875.113V536.872H878.309L885.606 547.365H889.543L881.714 536.571C882.363 536.409 883.011 536.201 883.59 535.923ZM875.113 523.948H879.051C880.162 523.948 881.158 524.156 882.015 524.55C882.872 524.944 883.544 525.523 884.031 526.264C884.517 527.005 884.772 527.932 884.772 528.997C884.772 530.063 884.54 530.989 884.031 531.73C883.544 532.472 882.872 533.051 882.015 533.444C881.158 533.838 880.162 534.047 879.051 534.047H875.113V523.948Z" fill="white" fill-opacity="0.1"/>
<path d="M894.664 521.154H892.904V547.374H894.664H896.077H907.89V544.363H896.077V534.635H907.126V531.647H896.077V524.142H907.89V521.154H896.077H894.664Z" fill="white" fill-opacity="0.1"/>
<path d="M910.691 547.37H914.235L917.57 539.518H928.132L931.468 547.37H935.035L922.875 519.854L910.691 547.37ZM926.859 536.507H918.844L922.852 527.08L926.859 536.507Z" fill="white" fill-opacity="0.1"/>
<path d="M948.678 520.783C946.849 520.783 945.158 521.107 943.56 521.779C941.985 522.45 940.595 523.377 939.39 524.581C938.186 525.786 937.259 527.222 936.588 528.866C935.916 530.511 935.569 532.318 935.569 534.263C935.569 536.209 935.916 538.015 936.588 539.66C937.259 541.304 938.186 542.741 939.39 543.945C940.595 545.149 941.985 546.099 943.56 546.748C945.135 547.419 946.849 547.744 948.678 547.744C950.601 547.744 952.199 547.512 953.519 547.025C954.816 546.539 956.021 545.821 957.109 544.848V540.656C956.507 541.42 955.789 542.115 954.932 542.694C954.075 543.273 953.149 543.736 952.106 544.061C951.064 544.385 949.929 544.547 948.678 544.547C946.964 544.547 945.366 544.107 943.884 543.227C942.401 542.347 941.22 541.142 940.317 539.59C939.413 538.039 938.95 536.255 938.95 534.24C938.95 532.202 939.413 530.395 940.317 528.866C941.22 527.338 942.425 526.133 943.884 525.253C945.366 524.373 946.964 523.933 948.678 523.933C949.929 523.933 951.064 524.095 952.106 524.419C953.149 524.743 954.075 525.207 954.932 525.786C955.789 526.365 956.507 527.06 957.109 527.824V523.632C956.021 522.659 954.816 521.941 953.519 521.454C952.222 521.014 950.601 520.783 948.678 520.783Z" fill="white" fill-opacity="0.1"/>
<path d="M958.986 524.142H965.727V547.374H968.9V524.142H975.64V521.154H958.986V524.142Z" fill="white" fill-opacity="0.1"/>
<path d="M982.193 521.154H979.019V547.351H982.193V521.154Z" fill="white" fill-opacity="0.1"/>
<path d="M1009.48 524.651C1008.27 523.446 1006.88 522.497 1005.26 521.802C1003.64 521.107 1001.88 520.783 999.959 520.783C998.059 520.783 996.299 521.13 994.678 521.802C993.056 522.497 991.643 523.446 990.439 524.651C989.234 525.855 988.308 527.291 987.659 528.913C986.988 530.557 986.663 532.318 986.663 534.24C986.663 536.139 986.988 537.9 987.659 539.567C988.331 541.212 989.258 542.648 990.439 543.852C991.643 545.057 993.056 546.006 994.678 546.701C996.299 547.396 998.059 547.72 999.959 547.72C1001.88 547.72 1003.64 547.373 1005.26 546.701C1006.86 546.006 1008.27 545.057 1009.48 543.852C1010.68 542.648 1011.61 541.212 1012.26 539.567C1012.93 537.923 1013.25 536.139 1013.25 534.24C1013.25 532.318 1012.93 530.534 1012.26 528.913C1011.61 527.291 1010.68 525.855 1009.48 524.651ZM1008.6 539.544C1007.74 541.096 1006.56 542.324 1005.08 543.204C1003.6 544.107 1001.88 544.547 999.959 544.547C998.059 544.547 996.368 544.107 994.863 543.204C993.357 542.3 992.176 541.073 991.319 539.544C990.462 537.992 990.022 536.232 990.022 534.263C990.022 532.294 990.462 530.534 991.319 528.982C992.176 527.43 993.357 526.203 994.863 525.322C996.368 524.419 998.059 523.979 999.959 523.979C1001.88 523.979 1003.6 524.419 1005.08 525.322C1006.56 526.226 1007.74 527.453 1008.6 528.982C1009.46 530.534 1009.9 532.294 1009.9 534.263C1009.9 536.232 1009.48 537.992 1008.6 539.544Z" fill="white" fill-opacity="0.1"/>
<path d="M1037.6 540.653L1017.77 519.854V547.37H1020.94V527.844L1040.79 548.667V521.151H1037.6V540.653Z" fill="white" fill-opacity="0.1"/>
<path d="M1060.34 534.956C1059.67 534.354 1058.95 533.845 1058.19 533.451C1057.42 533.057 1056.68 532.733 1055.99 532.478C1054.46 531.945 1053.25 531.413 1052.37 530.88C1051.49 530.347 1050.87 529.768 1050.47 529.166C1050.1 528.564 1049.92 527.892 1049.92 527.174C1049.92 526.317 1050.24 525.552 1050.89 524.881C1051.54 524.186 1052.58 523.862 1053.99 523.862C1055.01 523.862 1055.89 524.07 1056.59 524.464C1057.31 524.858 1057.91 525.367 1058.4 525.993C1058.91 526.618 1059.3 527.243 1059.62 527.892L1062.36 526.317C1061.94 525.39 1061.34 524.51 1060.6 523.676C1059.85 522.842 1058.95 522.148 1057.89 521.615C1056.82 521.082 1055.59 520.804 1054.16 520.804C1052.67 520.804 1051.38 521.105 1050.22 521.684C1049.06 522.263 1048.18 523.074 1047.53 524.093C1046.88 525.112 1046.56 526.27 1046.56 527.568C1046.56 528.772 1046.79 529.768 1047.25 530.602C1047.72 531.436 1048.32 532.107 1049.04 532.686C1049.76 533.242 1050.52 533.706 1051.33 534.076C1052.12 534.447 1052.86 534.725 1053.51 534.956C1054.5 535.304 1055.45 535.698 1056.33 536.138C1057.21 536.578 1057.93 537.134 1058.49 537.852C1059.04 538.546 1059.32 539.496 1059.32 540.654C1059.32 541.859 1058.9 542.831 1058.05 543.619C1057.19 544.383 1056.08 544.777 1054.69 544.777C1053.65 544.777 1052.7 544.545 1051.89 544.105C1051.05 543.665 1050.31 543.04 1049.66 542.229C1048.99 541.442 1048.37 540.515 1047.76 539.45L1045.22 541.164C1045.8 542.322 1046.54 543.387 1047.44 544.407C1048.34 545.426 1049.41 546.236 1050.61 546.839C1051.82 547.441 1053.14 547.765 1054.57 547.765C1055.62 547.765 1056.64 547.58 1057.58 547.232C1058.53 546.885 1059.41 546.375 1060.18 545.727C1060.94 545.078 1061.55 544.291 1061.99 543.364C1062.43 542.438 1062.63 541.395 1062.63 540.26C1062.63 539.056 1062.43 538.037 1062.01 537.18C1061.55 536.3 1061.01 535.559 1060.34 534.956Z" fill="white" fill-opacity="0.1"/>
<path d="M1075.72 547.37H1079.27L1082.58 539.518H1093.14L1096.47 547.37H1100.04L1087.88 519.854L1075.72 547.37ZM1091.89 536.507H1083.87L1087.88 527.08L1091.89 536.507Z" fill="white" fill-opacity="0.1"/>
<path d="M1105 521.154H1103.24V547.374H1106.41V534.635H1116.33V531.647H1106.41V524.142H1116.72V521.154H1106.41H1105Z" fill="white" fill-opacity="0.1"/>
<path d="M1133.6 535.923C1134.95 535.297 1135.99 534.371 1136.78 533.19C1137.56 532.008 1137.96 530.619 1137.96 529.02C1137.96 527.399 1137.56 526.009 1136.78 524.828C1135.99 523.647 1134.92 522.743 1133.6 522.118C1132.26 521.493 1130.75 521.168 1129.06 521.168H1125.13H1123.71H1121.95V547.365H1125.13V536.872H1128.32L1135.62 547.365H1139.56L1131.73 536.571C1132.38 536.409 1133.02 536.201 1133.6 535.923ZM1125.13 523.948H1129.06C1130.18 523.948 1131.17 524.156 1132.03 524.55C1132.89 524.944 1133.56 525.523 1134.04 526.264C1134.53 527.005 1134.78 527.932 1134.78 528.997C1134.78 530.063 1134.55 530.989 1134.04 531.73C1133.56 532.472 1132.89 533.051 1132.03 533.444C1131.17 533.838 1130.18 534.047 1129.06 534.047H1125.13V523.948Z" fill="white" fill-opacity="0.1"/>
<path d="M1146.09 521.154H1142.92V547.351H1146.09V521.154Z" fill="white" fill-opacity="0.1"/>
<path d="M1163.69 520.783C1161.86 520.783 1160.17 521.107 1158.57 521.779C1157 522.45 1155.61 523.377 1154.4 524.581C1153.2 525.786 1152.27 527.222 1151.6 528.866C1150.93 530.511 1150.58 532.318 1150.58 534.263C1150.58 536.209 1150.93 538.015 1151.6 539.66C1152.27 541.304 1153.2 542.741 1154.4 543.945C1155.61 545.149 1157 546.099 1158.57 546.748C1160.15 547.419 1161.86 547.744 1163.69 547.744C1165.61 547.744 1167.21 547.512 1168.53 547.025C1169.83 546.539 1171.03 545.821 1172.12 544.848V540.656C1171.52 541.42 1170.8 542.115 1169.95 542.694C1169.09 543.273 1168.16 543.736 1167.12 544.061C1166.08 544.385 1164.94 544.547 1163.69 544.547C1161.98 544.547 1160.38 544.107 1158.9 543.227C1157.42 542.347 1156.23 541.142 1155.33 539.59C1154.43 538.039 1153.96 536.255 1153.96 534.24C1153.96 532.202 1154.43 530.395 1155.33 528.866C1156.23 527.338 1157.44 526.133 1158.9 525.253C1160.38 524.373 1161.98 523.933 1163.69 523.933C1164.94 523.933 1166.08 524.095 1167.12 524.419C1168.16 524.743 1169.09 525.207 1169.95 525.786C1170.8 526.365 1171.52 527.06 1172.12 527.824V523.632C1171.03 522.659 1169.83 521.941 1168.53 521.454C1167.24 521.014 1165.61 520.783 1163.69 520.783Z" fill="white" fill-opacity="0.1"/>
<path d="M1195.15 547.37H1198.71L1186.55 519.854L1174.39 547.37H1177.91L1181.23 539.518H1191.81L1195.15 547.37ZM1190.54 536.507H1182.52L1186.53 527.08L1190.54 536.507Z" fill="white" fill-opacity="0.1"/>
</svg>
