<svg width="86" height="40" viewBox="0 0 86 40" fill="none" xmlns="http://www.w3.org/2000/svg">
<g clip-path="url(#clip0_229_5373)">
<path d="M-2.2915 4.64815C-2.12691 4.58009 -2.03987 4.57059 -1.99239 4.51995C-1.6537 4.16386 -1.25488 3.88373 -0.841813 3.62735C-0.552192 3.44693 -0.316382 3.21428 -0.0821526 2.97689C0.323001 2.57015 0.720242 2.54483 1.20927 2.85661C1.71413 3.17946 2.26173 3.43585 2.79032 3.72231C3.15116 3.63526 3.30626 3.93596 3.54682 4.09897C3.83803 4.2968 4.16247 4.49779 4.49957 4.56743C4.95062 4.66081 5.33361 4.8349 5.65805 5.14193C5.78308 5.25904 5.89544 5.31443 6.0727 5.32393C6.29427 5.33659 6.53483 5.38249 6.72791 5.48852C7.18845 5.74333 7.70123 5.89842 8.11904 6.24344C8.26781 6.36688 8.49254 6.41911 8.69195 6.46184C9.15092 6.55838 9.48327 6.89073 9.89634 7.07115C10.3585 7.27531 10.7969 7.53011 11.259 7.73744C11.7844 7.97167 12.112 8.35942 12.3447 8.88168C12.5124 9.25677 12.7308 9.60336 12.8511 10.0069C13.022 10.5783 13.0917 11.1496 13.0568 11.7383C13.0505 11.8444 13.0094 12.001 12.9334 12.0422C12.6264 12.2068 12.5108 12.5581 12.2006 12.7306C11.9696 12.8604 11.7733 13.0709 11.5771 13.2687C11.164 13.685 10.6813 14.03 10.2414 14.4193C9.91058 14.7121 9.60355 15.0318 9.28544 15.3388C9.04805 15.5683 8.84072 15.8278 8.48621 15.9038C8.36435 15.9291 8.24882 16.0257 8.15069 16.1127C7.63317 16.5796 7.12357 17.0528 6.61238 17.526C6.0268 18.0673 5.44756 18.6149 4.85882 19.153C4.70214 19.2954 4.51539 19.4046 4.35555 19.5439C4.15455 19.718 4.06592 19.9459 4.07542 20.2165C4.08492 20.5188 4.09283 20.8242 4.07384 21.1265C4.04535 21.5965 3.90133 22.0792 3.97413 22.5287C4.1862 23.828 4.01528 25.1274 4.07225 26.4251C4.08017 26.6103 4.16563 26.8287 3.96147 26.987C3.9314 27.0091 3.93457 27.1168 3.95989 27.1611C4.17038 27.5124 4.05643 27.897 4.07384 28.2657C4.09283 28.6487 4.07859 29.0333 4.07859 29.4179C4.07859 29.9639 4.05801 30.5115 4.08491 31.0559C4.1134 31.6431 4.18462 32.2302 4.24318 32.8696C3.91557 32.8696 3.63861 32.8696 3.36165 32.8696C2.26964 32.8696 1.17762 32.8712 0.0856082 32.8665C0.000146389 32.8665 -0.0837333 32.8142 -0.169195 32.7857C-0.134377 32.7193 -0.11064 32.6433 -0.0647435 32.5863C0.397385 32.0229 0.715495 31.4025 0.679095 30.6508C0.655355 30.176 0.859514 29.7281 0.812035 29.2438C0.766139 28.7833 0.742399 28.3037 0.821531 27.8527C0.883253 27.5029 0.975046 27.15 0.913324 26.8097C0.698086 25.6148 0.83261 24.4152 0.807288 23.2187C0.781965 22.0064 0.80254 20.7926 0.80254 19.5787C0.80254 18.3648 0.797792 17.1525 0.807288 15.9386C0.80887 15.7313 0.720242 15.5082 0.914905 15.3119C0.975045 15.2502 0.960802 15.0634 0.918071 14.9606C0.698086 14.4193 0.83261 13.8591 0.807288 13.3099C0.785131 12.8256 0.818367 12.3381 0.797792 11.8539C0.778801 11.4044 0.705999 10.9581 0.685424 10.5086C0.66485 10.0655 0.745565 9.60653 0.661686 9.17763C0.582554 8.76615 0.660101 8.32934 0.533491 7.95901C0.387889 7.53486 0.503422 7.13129 0.435368 6.72772C0.400551 6.52198 0.277106 6.33681 0.302428 6.10891C0.308758 6.05669 0.136251 5.97281 0.0349629 5.92216C-0.533201 5.63571 -1.1077 5.36191 -1.6727 5.06596C-1.87686 4.96151 -2.05727 4.80957 -2.2915 4.64815ZM4.06751 15.4164C4.259 15.2945 4.40619 15.2217 4.52805 15.1173C4.88889 14.8102 5.2165 14.4605 5.59949 14.1882C5.94134 13.9445 6.20564 13.6217 6.53325 13.3732C7.03336 12.9949 7.51922 12.6056 7.97027 12.1704C8.4419 11.7162 8.93251 11.2825 9.4168 10.8426C9.45636 10.8077 9.51809 10.7982 9.57031 10.7777C9.69851 10.7239 9.70167 10.6289 9.61146 10.5529C9.49593 10.4548 9.41522 10.3345 9.24113 10.2807C8.82964 10.1541 8.4783 9.88191 8.09372 9.69199C6.88934 9.09692 5.70711 8.45121 4.45842 7.94635C4.34605 7.90045 4.22102 7.88779 4.09758 7.85772C4.00104 9.18555 4.20203 10.4659 3.96147 11.7336C3.91399 11.9868 3.97255 12.259 3.95197 12.5186C3.87601 13.4745 4.16563 14.4082 4.06751 15.4164Z" fill="white"/>
<path d="M44.1113 33.393C43.8818 33.681 43.6523 33.969 43.4228 34.2555C43.2851 34.428 43.0826 34.523 42.9465 34.7113C42.8167 34.8933 42.584 34.9977 42.41 35.1513C42.2279 35.3111 42.0918 35.5627 41.8845 35.6435C41.6376 35.74 41.6424 36.0407 41.3543 36.1056C41.1328 36.1562 40.9603 36.4063 40.7545 36.5535C40.5235 36.7196 40.2845 36.8795 40.0408 37.0251C39.6514 37.2577 39.2827 37.5205 38.887 37.7452C38.3426 38.0554 37.7633 38.2643 37.2015 38.5191C36.7093 38.7423 36.187 38.9163 35.6632 39.0477C35.2691 39.1458 34.8371 39.0889 34.4446 39.1917C33.8337 39.3531 33.2212 39.2835 32.6103 39.2978C31.9836 39.312 31.3553 39.3278 30.7301 39.293C30.1778 39.2614 29.6286 39.1553 29.0937 39.0002C28.6442 38.8689 28.1979 38.7201 27.7548 38.5713C27.3085 38.4226 26.8986 38.1978 26.4792 37.9873C25.5597 37.5268 24.7288 36.9349 23.8694 36.3826C23.6716 36.2559 23.5244 36.0534 23.3313 35.9173C23.0813 35.74 22.8344 35.5833 22.7663 35.2462C22.7505 35.1671 22.5907 35.118 22.4989 35.0516C22.214 34.849 21.8911 34.716 21.6791 34.3979C21.4923 34.1178 21.2027 33.9057 20.9621 33.6604C20.4541 33.1445 20.0078 32.5874 19.6137 31.9765C19.2592 31.4258 18.8208 30.9288 18.4331 30.4002C18.0738 29.9096 17.7209 29.4174 17.2794 28.9932C17.1369 28.8571 17.0815 28.6324 16.9707 28.4583C16.6036 27.8822 16.1414 27.3726 15.8392 26.7427C15.6682 26.3867 15.3201 26.116 15.0209 25.7742C14.8595 25.9293 14.7187 26.0654 14.5762 26.1999C14.3689 26.3977 14.2755 26.632 14.2771 26.9279C14.2866 28.1814 14.217 29.4411 14.3056 30.6882C14.3562 31.4004 14.3831 32.1079 14.4053 32.8106C13.9701 33.0432 13.4921 33.0685 13.0696 32.9704C12.3146 32.7963 11.5613 32.934 10.7795 32.847C10.9615 32.5288 11.2369 32.263 11.3113 31.8942C11.3176 31.8594 11.3619 31.8309 11.3651 31.7961C11.4094 31.3688 11.5028 30.9367 11.4743 30.5126C11.4379 29.9697 11.6531 29.4601 11.612 28.9236C11.6072 28.8698 11.6199 28.7922 11.6547 28.7622C11.9 28.5517 11.9396 28.3554 11.6721 28.1244C11.5866 28.0516 11.5819 27.5293 11.6072 27.3426C11.623 27.2239 11.6104 27.1004 11.6104 26.9786C11.6104 25.6033 11.6183 24.2279 11.6056 22.8526C11.6025 22.5456 11.5138 22.2402 11.4948 21.9315C11.4743 21.6087 11.4901 21.2843 11.4901 20.9614C11.4901 20.6385 11.555 20.2967 11.4774 19.9944C11.2701 19.1825 11.4173 18.3659 11.3714 17.5524C11.3524 17.2106 11.3445 17.2454 11.0058 17.0776C10.5358 16.845 10.0309 16.7152 9.49756 16.5237C9.85049 16.0679 10.2319 15.677 10.6481 15.3478C10.9283 15.1262 11.1989 14.8983 11.4379 14.6404C11.6768 14.384 11.919 14.3761 12.2308 14.4821C12.9224 14.7163 13.6045 14.9791 14.2977 15.2054C15.2773 15.5251 16.2237 15.935 17.2034 16.2531C17.5547 16.367 17.9298 16.4778 18.2479 16.6535C18.5581 16.8244 18.881 17.0001 19.1722 17.2106C19.5267 17.4669 19.7815 17.812 19.9857 18.1934C20.2563 18.6982 20.5317 19.2015 20.4826 19.8124C20.4715 19.9453 20.5633 20.102 20.644 20.2255C20.7643 20.4106 20.7358 20.5452 20.5791 20.6876C20.0062 21.213 19.4396 21.7464 18.8683 22.2734C18.3571 22.7466 17.8412 23.2151 17.3047 23.7073C17.4424 24.1425 17.7383 24.4986 17.9995 24.8547C18.8003 25.9483 19.4381 27.1447 20.231 28.2431C20.4114 28.4931 20.5934 28.7416 20.7786 28.9869C21.2423 29.6041 21.7076 30.2214 22.1729 30.837C22.2077 30.8829 22.2393 30.9335 22.2821 30.9731C23.0655 31.7359 23.6542 32.6697 24.4661 33.4088C25.1862 34.0624 25.9759 34.6195 26.7688 35.1782C27.4509 35.6593 28.2043 36.0059 28.9418 36.3826C29.3896 36.6104 29.8834 36.7402 30.3424 36.9555C30.5766 37.0662 30.8615 37.1042 31.1242 37.1058C31.33 37.1074 31.5009 37.177 31.6797 37.2419C31.9393 37.3353 32.2036 37.3701 32.4805 37.3638C33.006 37.3511 33.533 37.3749 34.0584 37.3559C34.4541 37.3416 34.8181 37.4524 35.1884 37.5632C35.4369 37.6376 35.6664 37.655 35.8958 37.4334C36.1886 37.1517 36.6144 37.0647 36.9879 37.0172C37.526 36.9491 38.0087 36.7181 38.5325 36.6247C38.8253 36.5725 39.1133 36.468 39.3871 36.3461C39.6609 36.2243 39.96 36.1277 40.2053 35.9853C40.5298 35.7954 40.8701 35.6213 41.1834 35.4076C41.6234 35.1085 42.0618 34.811 42.5176 34.534C42.9971 34.2428 43.4023 33.8329 43.8438 33.4768C43.9134 33.4199 43.9957 33.3771 44.0717 33.3281C44.078 33.3518 44.0939 33.3724 44.1113 33.393ZM14.4464 22.4681C14.6205 22.1769 14.8991 22.0502 15.1048 21.835C15.4261 21.5011 15.8249 21.2431 16.1826 20.944C16.3361 20.8142 16.4453 20.61 16.6178 20.5278C17.0499 20.3188 17.2857 19.9089 17.6307 19.6146C17.7177 19.5402 17.7114 19.4389 17.5737 19.3962C17.4487 19.3566 17.3237 19.317 17.2002 19.2743C17.0404 19.2205 16.8267 19.2126 16.7333 19.1018C16.4975 18.8264 16.2285 18.7489 15.8866 18.7805C15.7869 18.79 15.6777 18.7077 15.5733 18.6666C15.3644 18.5859 15.1491 18.4276 14.9481 18.445C14.7424 18.4624 14.6079 18.2013 14.4116 18.3501C14.1821 18.5241 14.4164 18.722 14.41 18.9087C14.3816 19.8773 14.3974 20.8474 14.3942 21.8176C14.3942 21.9331 14.4116 22.0866 14.3483 22.1579C14.179 22.3478 14.4559 22.3256 14.4464 22.4681Z" fill="white"/>
<path d="M85.2867 8.10718C85.331 8.9523 85.0272 9.64233 84.6173 10.296C84.5049 10.4748 84.3435 10.6251 84.239 10.8071C84.133 10.9907 83.8228 10.9559 83.8117 11.2265C83.5458 11.255 83.3132 11.3975 83.0283 11.3927C81.4314 11.3753 79.833 11.3848 78.2361 11.3848C78.1142 11.3848 77.9939 11.3801 77.8721 11.3864C77.6189 11.3991 77.5287 11.4893 77.5255 11.7504C77.5207 12.3565 77.5239 12.9643 77.5239 13.5704C77.5239 13.9946 77.5381 14.4203 77.5207 14.8444C77.4923 15.5566 77.4274 16.2672 77.4068 16.9778C77.3862 17.6853 77.3989 18.3927 77.4052 19.1017C77.4068 19.2473 77.334 19.3549 77.2928 19.48C77.1821 19.8107 77.3878 20.1257 77.4479 20.4438C77.4748 20.5878 77.5065 20.7413 77.5239 20.8917C77.5935 21.4693 77.4131 22.0312 77.4084 22.6009C77.3941 24.5016 77.41 26.4024 77.3973 28.3031C77.3941 28.7589 77.5745 29.1862 77.5334 29.6484C77.4938 30.0899 77.4464 30.5552 77.5461 30.9778C77.6489 31.413 77.6125 31.8387 77.6505 32.2676C77.6679 32.4528 77.736 32.6316 77.7898 32.8453C76.2309 32.8453 74.7052 32.8453 73.1543 32.8453C73.3964 32.5066 73.6639 32.2043 73.8459 31.8593C74.0215 31.5269 74.1244 31.1519 74.1244 30.7625C74.1244 29.4284 74.0326 28.0847 74.1497 26.7601C74.2748 25.3373 74.2178 23.9192 74.2415 22.5012C74.2653 21.0658 74.2415 19.6303 74.2526 18.1933C74.2542 17.9875 74.3666 17.7802 74.3602 17.5761C74.3492 17.2073 74.3523 16.8164 74.2273 16.4809C74.1165 16.1833 74.1418 15.9032 74.1276 15.6136C74.1149 15.3509 74.1276 15.0882 74.1244 14.8254C74.1149 13.9502 73.9392 13.0861 73.9931 12.2062C74.0057 11.9894 73.8949 11.7662 73.8316 11.5051C72.8694 11.5051 71.8834 11.5098 70.8974 11.5035C70.3736 11.5003 69.8355 11.589 69.348 11.2898C69.3053 11.2629 69.204 11.2978 69.1455 11.331C68.7308 11.5716 68.2893 11.657 67.8113 11.6317C67.4283 11.6111 67.0437 11.6269 66.6006 11.6269C66.6227 11.4972 66.6338 11.3737 66.6686 11.2566C66.7478 10.9812 66.7794 10.6837 66.8649 10.4257C67.0279 9.93353 67.2115 9.42709 67.566 9.01877C67.7053 8.85893 67.9253 8.75764 67.9537 8.51233C68.2386 8.41896 68.4728 8.2148 68.8068 8.22113C69.8371 8.24012 70.8689 8.22746 71.9008 8.22904C72.0749 8.22904 72.2617 8.18789 72.3962 8.34932C72.6541 8.10243 72.9976 8.29393 73.2935 8.17048C73.4914 8.08819 73.762 8.10243 73.9741 8.16099C74.0849 8.19264 74.1956 8.22588 74.308 8.22588C76.1692 8.22904 78.0288 8.22746 79.8899 8.22746C80.7746 8.00272 81.6767 8.13092 82.5693 8.11034C83.4572 8.09135 84.3466 8.10718 85.2867 8.10718Z" fill="white"/>
<path d="M48.8576 32.8864C49.2659 32.2628 49.5999 31.701 49.6094 30.9872C49.6157 30.5394 49.7565 30.101 49.7281 29.6404C49.6996 29.1767 49.6901 28.7067 49.7344 28.2461C49.7613 27.9692 49.622 27.7207 49.7059 27.4311C49.7819 27.1731 49.7217 26.8756 49.7217 26.5939C48.8513 26.5401 48.003 26.4862 47.1547 26.4388C46.9347 26.4261 46.7131 26.4372 46.49 26.4372C46.5565 26.0035 46.6957 25.611 46.9268 25.2486C47.161 24.883 47.3478 24.4842 47.6042 24.136C47.8574 23.7942 48.2689 23.704 48.6709 23.6502C48.8703 23.6233 49.0744 23.6517 49.277 23.6438C49.4891 23.6343 49.5888 23.5315 49.5983 23.3146C49.6062 23.1326 49.5888 22.9491 49.603 22.7686C49.6173 22.5993 49.5397 22.4205 49.6948 22.2575C49.7565 22.1926 49.7502 22.0169 49.7154 21.9109C49.4827 21.1876 49.641 20.4453 49.603 19.7142C49.5825 19.3106 49.5999 18.9054 49.5999 18.5003C49.5999 18.2471 49.5935 18.0049 49.4891 17.758C49.3941 17.5333 49.5049 17.2785 49.3846 17.011C49.277 16.7736 49.2817 16.446 49.2533 16.1612C49.2026 15.6405 49.1219 15.1309 48.9969 14.6244C48.9747 14.5342 48.9795 14.4535 49.1251 14.4124C49.6204 14.2715 50.532 14.2683 51.1002 14.3918C51.3502 14.4456 51.6193 14.4155 51.8788 14.4187C52.3695 14.425 52.39 14.4408 52.3916 14.9235C52.3932 16.6629 52.3821 18.4037 52.3979 20.1431C52.4027 20.7128 52.4897 21.2826 52.5087 21.8523C52.5293 22.4363 52.5135 23.0203 52.5135 23.6248C53.8413 23.6248 55.1501 23.6248 56.5191 23.6248C56.5191 23.4112 56.5334 23.1754 56.5175 22.9411C56.4352 21.7194 56.6821 20.5102 56.6489 19.2884C56.6157 18.0556 56.6204 16.8195 56.6536 15.5867C56.6631 15.2227 56.804 14.8602 56.7502 14.4408C56.9132 14.4329 57.0667 14.4139 57.2186 14.4203C57.9356 14.4535 58.6335 14.205 59.3536 14.2952C59.4533 14.3079 59.5736 14.2636 59.6527 14.3047C59.7572 14.3617 59.8569 14.463 59.9107 14.5706C59.9518 14.6513 59.9534 14.7874 59.9123 14.8666C59.7303 15.2242 59.8759 15.6167 59.7841 15.9697C59.6258 16.5806 59.7129 17.193 59.6686 17.8039C59.6496 18.0714 59.5245 18.3214 59.5467 18.6047C59.5673 18.8722 59.5942 19.146 59.4422 19.4087C59.3805 19.5148 59.4217 19.6873 59.4343 19.8281C59.5071 20.6463 59.322 21.4519 59.3125 22.2669C59.303 23.0757 59.3188 23.886 59.3046 24.6947C59.3014 24.8577 59.2444 25.035 59.1637 25.179C59.0133 25.4512 58.9944 25.687 59.2191 25.9292C59.2776 25.9925 59.3046 26.1032 59.3061 26.1919C59.314 26.6366 59.3014 27.0829 59.3125 27.5276C59.3235 27.9581 59.3077 28.3822 59.4106 28.8175C59.5103 29.2384 59.4327 29.7021 59.4327 30.1469C59.4327 31.0363 59.4327 31.9257 59.4327 32.8421C58.2252 32.8421 57.024 32.8421 55.7373 32.8421C56.0143 32.6363 56.1393 32.3641 56.4289 32.2565C56.4748 32.2391 56.5207 32.1315 56.5144 32.0729C56.4637 31.6741 56.6172 31.2974 56.6362 30.9081C56.6552 30.5251 56.6299 30.139 56.6426 29.756C56.6584 29.3017 56.4637 28.8744 56.508 28.4091C56.5539 27.9486 56.5318 27.4786 56.5144 27.0148C56.4985 26.5954 56.3134 26.4388 55.8877 26.4372C55.4429 26.434 54.9966 26.4214 54.5535 26.4419C54.2734 26.4546 53.9853 26.4388 53.7606 26.3042C53.2811 26.0194 52.9408 26.4483 52.5293 26.4942C52.3805 26.51 52.3885 26.7062 52.39 26.8518C52.3948 27.4786 52.3995 28.1069 52.3869 28.7336C52.3837 28.9219 52.4802 29.1371 52.2745 29.2954C52.2444 29.3176 52.2603 29.4125 52.2713 29.4711C52.3077 29.6578 52.3521 29.843 52.39 30.0282C52.4296 30.2165 52.2998 30.4254 52.4787 30.6011C52.5214 30.6438 52.5103 30.7498 52.5103 30.8274C52.5119 31.394 52.5151 31.9606 52.5087 32.5271C52.5056 32.755 52.4043 32.8848 52.2017 32.8658C51.442 32.793 50.6998 33.0193 49.9449 32.9893C49.603 32.975 49.258 32.9244 48.8576 32.8864Z" fill="white"/>
<path d="M29.6714 18.0349C30.2396 18.0839 30.8188 18.0824 31.3743 18.1963C32.0153 18.3277 32.6309 18.573 33.1849 18.9433C33.4222 19.1016 33.6707 19.2456 33.8955 19.4197C34.0142 19.5131 34.0901 19.6587 34.1851 19.7805C34.2326 19.8422 34.2705 19.915 34.3291 19.9625C35.1821 20.6225 34.9083 20.3408 35.7661 21.5895C36.0557 22.012 36.2425 22.4868 36.5005 22.922C36.6112 23.1088 36.5606 23.305 36.6334 23.4744C36.8027 23.8748 36.8708 24.2847 36.8581 24.7167C36.8518 24.9668 36.7901 25.2327 36.9737 25.4558C36.9832 25.4685 36.9753 25.4954 36.9753 25.516C36.9753 25.5967 37.0069 25.6964 36.9705 25.7549C36.7205 26.1664 36.9262 26.6349 36.7853 27.0717C36.6413 27.5164 36.5796 27.9896 36.3691 28.4169C36.2457 28.6686 36.1317 28.9265 35.9956 29.1719C35.8484 29.4362 35.6791 29.6878 35.5208 29.9458C35.5018 29.9774 35.5066 30.0265 35.4828 30.0502C34.9036 30.6136 34.3956 31.2657 33.6517 31.6328C33.2846 31.8148 32.9807 32.1409 32.5328 32.1519C32.3983 32.3387 32.2005 32.2564 32.0327 32.2564C31.77 32.258 31.5326 32.2975 31.3411 32.4938C31.1369 32.7043 30.8853 32.766 30.5972 32.7502C30.295 32.7344 29.9911 32.7407 29.6872 32.7486C29.5543 32.7518 29.4309 32.7565 29.2916 32.8182C29.1349 32.8879 28.9181 32.8277 28.7282 32.8119C28.6348 32.804 28.5446 32.7486 28.4528 32.7502C27.9258 32.7565 27.4051 32.6552 26.9366 32.4542C26.4935 32.2643 25.9728 32.1915 25.6357 31.7864C25.028 31.6392 24.6149 31.2008 24.2557 30.7482C23.9106 30.3129 23.5514 29.8856 23.2364 29.4219C23.0307 29.1196 22.787 28.8442 22.7078 28.485C22.6588 28.2634 22.6097 27.9785 22.7078 27.806C22.8376 27.5766 22.711 27.4737 22.5955 27.4262C22.1998 27.2616 22.1333 26.9419 22.0257 26.5716C21.8342 25.9148 21.9846 25.2643 21.9229 24.6155C22.1033 24.3923 22.0321 24.128 22.0463 23.878C22.051 23.8036 22.0542 23.7086 22.0985 23.6595C22.4815 23.237 22.6303 22.7021 22.7632 22.1766C22.8914 21.6702 23.1383 21.2603 23.5071 20.9058C23.8283 20.5972 24.1591 20.2965 24.4456 19.9594C24.8096 19.532 25.2939 19.2693 25.7291 18.9433C25.9807 18.755 26.321 18.7312 26.6027 18.5635C26.8527 18.4147 27.1693 18.3672 27.4636 18.3087C28.1917 18.1647 28.9197 18.019 29.6714 18.0349ZM24.4171 25.4416C24.7225 25.7771 24.9093 26.1649 25.0517 26.5352C25.2147 26.9578 25.4584 27.336 25.6135 27.757C25.8414 28.3774 26.3495 28.7857 26.8274 29.1798C27.0743 29.3839 27.3101 29.691 27.69 29.7131C27.8625 29.9822 28.16 29.7827 28.4006 29.903C28.6949 30.0502 29.0748 30.0296 29.4182 30.0739C29.7743 30.1198 30.124 30.0613 30.4564 29.9489C31.0246 29.759 31.645 29.672 32.0849 29.1988C32.4837 29.088 32.6024 28.6971 32.843 28.4296C33.0329 28.2191 33.1833 27.9691 33.3305 27.7253C33.6644 27.1746 33.829 26.5732 33.8179 25.9275C33.8084 25.3561 33.878 24.7801 33.6992 24.2198C33.6074 23.9333 33.4792 23.6421 33.4713 23.3509C33.4634 23.0819 33.3273 22.941 33.1611 22.8097C32.9997 22.6846 32.8034 22.6039 32.623 22.5042C32.6262 22.1924 32.3081 22.2004 32.1561 22.0437C31.4012 21.2666 30.4437 20.9833 29.3913 20.9754C29.1855 20.9738 28.9814 21.083 28.7756 21.0846C27.8609 21.0925 27.1218 21.5056 26.4634 22.0848C26.2324 22.289 26.0504 22.5533 25.8604 22.8018C25.5392 23.2227 25.2052 23.6738 25.1134 24.1818C25.0185 24.6978 24.8523 25.1092 24.4171 25.4416Z" fill="white"/>
<path d="M64.8976 23.6454C64.8976 24.0648 64.9688 24.4462 64.8834 24.788C64.6761 25.6205 64.8343 26.4577 64.7758 27.2902C65.0242 28.1527 64.8264 29.0358 64.9198 29.9585C65.0796 29.9585 65.2537 29.9585 65.4294 29.9585C66.8047 29.9585 68.18 29.9442 69.5553 29.9648C70.2453 29.9759 70.8262 29.7971 71.2978 29.1767C71.3294 29.7116 71.4798 30.1658 71.4608 30.6564C71.4307 31.3797 71.4529 32.1061 71.4529 32.8705C70.7708 32.8705 70.1061 32.9038 69.4461 32.8626C68.6247 32.812 67.8239 33.0019 67.0089 32.994C66.2001 32.9861 65.3867 32.9449 64.5827 33.0082C64.043 33.0509 63.4938 33.1602 62.9842 33.3849C62.712 33.5052 62.4366 33.6144 62.1391 33.7378C62.0853 33.1712 62.0188 32.6284 61.9872 32.084C61.9634 31.6614 61.9682 31.2341 61.9872 30.8099C61.9967 30.582 62.0774 30.3589 62.0995 30.131C62.1201 29.911 62.1391 29.6799 62.098 29.4647C61.8716 28.273 62.0125 27.0702 61.9872 25.8737C61.9619 24.6614 61.9824 23.4475 61.9824 22.2337C61.9824 21.0198 61.9824 19.8075 61.9824 18.5936C61.9824 17.3797 61.9824 16.1674 61.9824 14.9536C61.9824 14.3047 62.1739 14.1053 62.7595 14.3158C63.1631 14.4598 63.5461 14.4123 63.9291 14.3933C64.0968 14.3854 64.2946 14.2809 64.4861 14.2999C64.7346 14.3237 64.9783 14.3822 65.2252 14.4155C65.4721 14.4487 65.7143 14.4345 65.9722 14.5104C66.2429 14.5896 66.5942 14.6339 66.8949 14.436C66.9804 14.3791 67.1291 14.4171 67.2494 14.4171C68.5646 14.4171 69.8782 14.4171 71.1933 14.4171C71.2535 14.4171 71.3152 14.4139 71.3753 14.4171C71.5858 14.4329 71.6935 14.531 71.6935 14.7478C71.6919 15.7971 71.6839 16.8464 71.676 17.8941C71.676 17.9099 71.6507 17.9242 71.6222 17.9574C71.4466 17.8498 71.2725 17.7374 71.092 17.6377C70.8958 17.5285 70.7011 17.3924 70.4891 17.3402C70.171 17.2626 69.837 17.2167 69.511 17.2151C67.9948 17.2025 66.4771 17.2104 64.9483 17.2104C64.8312 17.8672 64.7235 18.5256 64.7821 19.1982C64.8106 19.5258 64.9562 19.8407 64.9008 20.1794C64.885 20.2744 64.9087 20.401 64.8549 20.4611C64.7014 20.6352 64.9166 20.7017 64.9578 20.7112C65.0891 20.746 65.2363 20.7302 65.3756 20.7302C66.9123 20.7302 68.4491 20.7302 69.9858 20.7317C70.1979 20.7317 70.3973 20.7365 70.6093 20.841C70.8895 20.9802 70.8958 20.9391 70.785 21.2239C70.5508 21.8238 70.2738 22.3967 69.8829 22.9158C69.6914 23.1706 69.4968 23.3558 69.1723 23.4634C68.8336 23.5757 68.5108 23.6501 68.1563 23.6485C67.0848 23.639 66.015 23.6454 64.8976 23.6454Z" fill="white"/>
<path d="M38.5497 17.258C37.836 16.9794 37.1222 16.7009 36.3625 16.4033C36.5493 16.1849 36.7661 15.9713 36.9339 15.7244C37.0526 15.5503 37.301 15.563 37.3786 15.3129C37.4356 15.1293 37.635 14.9837 37.7632 14.8112C37.9436 14.5675 38.2221 14.3902 38.4738 14.2066C38.5371 14.1607 38.6811 14.1607 38.7507 14.2003C39.1654 14.4393 39.6433 14.482 40.0817 14.6498C40.5027 14.8112 40.9142 14.9869 41.3162 15.1831C41.6596 15.3525 42.0426 15.3762 42.394 15.5091C43.3562 15.8732 44.339 16.1818 45.3107 16.5236C45.9834 16.7594 46.5389 17.2041 46.9519 17.8435C47.1688 18.1806 47.403 18.5019 47.5343 18.8802C47.6388 19.1824 47.7021 19.499 47.7812 19.8092C47.8097 19.9184 47.8271 20.0323 47.8604 20.1399C47.9506 20.4232 47.9158 20.6511 47.6989 20.8917C47.4821 21.1322 47.3349 21.425 47.0137 21.569C46.9124 21.6149 46.8443 21.7226 46.7035 21.7036C46.3885 21.6624 46.2144 21.8096 46.0688 22.0976C45.9311 22.3699 45.7301 22.6405 45.488 22.8225C44.8138 23.3321 44.2947 24.0047 43.6506 24.5365C43.1568 24.9432 42.7121 25.3958 42.2499 25.8311C42.1407 25.9339 41.9888 25.9941 41.878 26.0954C41.8131 26.1539 41.7767 26.2536 41.7482 26.3423C41.6818 26.5385 41.552 26.711 41.5868 26.9452C41.6818 27.5815 41.389 28.2129 41.4855 28.8317C41.6422 29.8478 41.5409 30.8622 41.6011 31.8751C41.62 32.1964 41.772 32.5098 41.6897 32.8564C40.4521 32.8564 39.2239 32.8564 37.9689 32.8564C38.1525 32.6079 38.3503 32.3847 38.4959 32.1315C38.6969 31.7818 38.8188 31.4067 38.8045 30.9841C38.7824 30.2371 38.7871 29.4885 38.803 28.7415C38.8109 28.3728 38.7317 28.0009 38.9058 27.6337C38.9834 27.4691 38.9945 27.1874 38.9011 27.0449C38.7618 26.8329 38.9628 26.7015 38.9248 26.5258C38.8979 26.3992 38.8932 26.2615 39.0135 26.1365C39.0594 26.0906 39.0182 25.907 38.9628 25.8216C38.8045 25.5778 38.7919 25.3167 38.7935 25.0398C38.7998 24.1709 38.7713 23.3004 38.8014 22.4332C38.8441 21.2129 38.5861 20.0054 38.6748 18.7852C38.4833 18.2914 38.5766 17.7723 38.5497 17.258ZM41.7656 22.3065C42.0679 22.0644 42.3512 21.7954 42.6741 21.5864C43.3356 21.156 43.937 20.659 44.4767 20.0877C44.8613 19.6794 44.8059 19.4499 44.2805 19.2774C43.888 19.1492 43.516 18.9719 43.1315 18.8295C42.7263 18.6807 42.3101 18.57 41.935 18.3468C41.8242 18.2819 41.628 18.3547 41.6042 18.4734C41.5488 18.7567 41.4159 19.0701 41.4871 19.3217C41.6612 19.9358 41.5599 20.5467 41.5836 21.1576C41.5995 21.55 41.5805 21.9394 41.7656 22.3065Z" fill="white"/>
<path d="M20.677 15.6329C20.9524 15.1502 21.1613 14.7023 21.4462 14.3098C21.826 13.7891 22.2391 13.2827 22.8769 13.0437C22.9813 13.0042 23.1048 12.9519 23.2029 12.9757C23.8138 13.1165 24.1161 13.1244 24.632 12.9883C24.7254 12.9646 24.8267 12.963 24.9248 12.963C27.6706 12.9614 30.4165 12.9614 33.2241 12.9614C33.1909 13.1039 33.1814 13.2321 33.1323 13.3413C32.8585 13.9522 32.5784 14.5615 32.064 15.0204C31.8915 15.587 31.3487 15.5791 30.923 15.75C30.8707 15.7706 30.7774 15.7785 30.7457 15.7484C30.5225 15.5285 30.2503 15.6661 30.0034 15.6329C29.5381 15.5712 29.0555 15.7469 28.5933 15.5221C28.5079 15.481 28.3448 15.5823 28.2262 15.6345C28.0536 15.7105 27.9144 15.8355 27.7007 15.6661C27.5994 15.5854 27.3937 15.6329 27.2354 15.6329C25.2144 15.6313 23.195 15.6313 21.174 15.6313C21.0347 15.6329 20.8954 15.6329 20.677 15.6329Z" fill="white"/>
<path d="M19.6453 2.47637C19.5567 2.21365 19.5725 1.89079 19.7956 1.70088C20.0758 1.4619 20.3606 1.17386 20.7911 1.18494C21.2564 1.1976 21.7391 1.10739 22.1822 1.20552C22.9387 1.37486 23.6905 1.29889 24.4422 1.29572C24.9075 1.29414 25.3728 1.14537 25.8492 1.18652C25.9837 1.1976 26.1008 1.20552 26.2354 1.28623C26.373 1.37011 26.487 1.36378 26.3588 1.55528C26.2876 1.65973 26.3018 1.83382 26.2179 1.91612C26.0755 2.05539 26.0549 2.32127 25.8033 2.34343C25.5089 2.36875 25.1718 2.47953 24.9249 2.37824C24.5214 2.21365 24.1748 2.28012 23.8028 2.39882C23.7664 2.4099 23.7221 2.4004 23.6398 2.4004C23.6398 4.97851 23.6398 7.55661 23.6398 10.1442C23.1239 10.1442 22.6491 10.1442 22.1443 10.1442C22.2392 9.84668 22.3484 9.58555 22.4006 9.31175C22.4418 9.09651 22.4086 8.86861 22.4086 8.64546C22.4086 7.06758 22.4133 5.4897 22.4038 3.91181C22.4022 3.56363 22.4877 3.2028 22.2962 2.86411C22.2582 2.79764 22.3421 2.66153 22.3816 2.5096C21.7359 2.61722 21.114 2.31177 20.4556 2.39724C20.1929 2.43364 19.927 2.44946 19.6453 2.47637Z" fill="white"/>
<path d="M24.3394 7.86386C24.4011 7.76099 24.4675 7.70085 24.466 7.64229C24.4612 7.39065 24.4786 7.21656 24.7857 7.10103C25.1481 6.96493 25.2747 6.20368 25.175 5.83967C25.1607 5.78745 25.0769 5.74155 25.0832 5.69882C25.1718 4.96606 24.8949 4.24913 24.9661 3.49263C25.2731 3.49263 25.5532 3.4863 25.8334 3.49421C26.0565 3.50054 26.1673 3.59867 26.1689 3.80757C26.1752 4.71759 26.1815 5.62918 26.1657 6.5392C26.1594 6.88105 26.1309 6.88579 26.4205 6.89054C26.8035 6.89687 27.1881 6.89212 27.6281 6.89212C27.6281 6.71329 27.6201 6.53761 27.6296 6.36352C27.6803 5.41395 27.7341 4.46437 27.7863 3.50371C28.125 3.50371 28.4621 3.50371 28.8419 3.50371C28.8419 3.88987 28.9084 4.28236 28.8293 4.64479C28.6425 5.49783 28.747 6.35403 28.7264 7.20707C28.7058 8.05694 28.7217 8.90681 28.7217 9.75669C28.7217 9.8374 28.7407 9.92444 28.7169 9.99883C28.671 10.1428 28.6948 10.3248 28.3988 10.1903C28.1646 10.0843 27.8433 10.1682 27.5189 10.1682C27.5616 10.0748 27.6122 10.0067 27.6249 9.93077C27.6423 9.83265 27.6296 9.72978 27.6296 9.62849C27.6296 9.1632 27.617 8.69791 27.6344 8.23261C27.6471 7.87494 27.6645 7.86861 27.397 7.86386C27.033 7.85753 26.6674 7.84645 26.305 7.87177C26.1958 7.87968 25.9188 7.91608 26.1625 8.15506C26.1657 8.7802 26.1784 9.40692 26.1641 10.0321C26.161 10.1397 26.1261 10.4119 25.8808 10.184C25.8571 10.1634 25.7875 10.1539 25.7701 10.1713C25.6624 10.2774 25.4788 10.3644 25.4045 10.279C25.2541 10.1064 25.1702 10.3185 25.0705 10.2837C25.0199 10.2663 24.9582 10.1334 24.9645 10.1286C25.1323 9.98775 25.0595 9.79783 25.0816 9.62691C25.1433 9.18061 25.2351 8.73747 25.2035 8.28009C25.1797 7.93983 25.1275 7.87335 24.7825 7.86386C24.6464 7.86069 24.5103 7.86386 24.3394 7.86386Z" fill="white"/>
<path d="M30.803 6.89326C30.803 7.65767 30.803 8.39993 30.803 9.15009C31.5453 9.46345 32.2907 9.33684 33.063 9.06147C33.063 9.47295 33.063 9.86544 33.063 10.2928C32.5044 10.2928 31.9425 10.2896 31.3823 10.2928C30.8236 10.2959 30.2539 10.2168 29.6936 10.6283C29.6936 9.89551 29.7158 9.27354 29.6778 8.65473C29.6667 8.48697 29.9674 8.43633 29.7743 8.23217C29.6968 8.14987 29.6968 7.97736 29.6968 7.846C29.692 6.41372 29.6936 4.97986 29.6936 3.49377C29.9326 3.49377 30.1684 3.49377 30.4058 3.49377C31.2541 3.49377 32.1024 3.49535 32.9507 3.49219C33.0725 3.49219 33.177 3.49377 33.2719 3.60297C33.3827 3.73116 33.2672 3.79922 33.2498 3.90209C33.2071 4.15214 33.2355 4.41328 33.2355 4.69182C32.8288 4.48291 32.4205 4.61902 32.0296 4.49083C31.6672 4.37213 31.2351 4.4655 30.811 4.4655C30.811 4.89756 30.811 5.31696 30.811 5.78067C31.137 5.79333 31.5184 5.72686 31.8318 5.84239C32.1704 5.96742 32.4996 5.84081 32.8177 5.94843C32.688 6.10669 32.7513 6.3251 32.5977 6.49919C32.3208 6.81413 31.9489 6.81729 31.6023 6.88376C31.3475 6.93124 31.0816 6.89326 30.803 6.89326Z" fill="white"/>
<path d="M45.5562 36.9617C45.5008 36.9237 45.4359 36.8952 45.3631 36.8762C45.3489 36.873 45.3347 36.8714 45.3204 36.8683C45.3394 36.8635 45.36 36.8604 45.3774 36.8525C45.4565 36.8224 45.5182 36.7765 45.5626 36.7163C45.6069 36.6562 45.629 36.585 45.629 36.5011C45.629 36.3982 45.6069 36.3144 45.5626 36.2495C45.5182 36.1846 45.4565 36.1355 45.3774 36.1023C45.2983 36.0706 45.2049 36.0532 45.0973 36.0532H44.6367V37.8432H45.1226C45.2381 37.8432 45.3426 37.8242 45.4328 37.7862C45.5246 37.7482 45.5958 37.6897 45.6496 37.6121C45.7034 37.5346 45.7303 37.4364 45.7303 37.3193C45.7303 37.237 45.7145 37.1674 45.6844 37.1073C45.6543 37.0487 45.6116 36.9996 45.5562 36.9617ZM45.0957 36.2463C45.1859 36.2463 45.2619 36.27 45.3204 36.3159C45.3806 36.3634 45.4106 36.4283 45.4106 36.5138C45.4106 36.5707 45.3964 36.6182 45.3695 36.6578C45.3426 36.6974 45.3046 36.7274 45.2571 36.748C45.2096 36.7686 45.1558 36.7781 45.0957 36.7781H44.852V36.2463H45.0957ZM45.4629 37.495C45.4296 37.5456 45.3837 37.5852 45.3252 37.6121C45.2666 37.639 45.1986 37.6533 45.1226 37.6533H44.8535V36.968H45.1226C45.1811 36.968 45.2334 36.9759 45.2809 36.9901C45.3283 37.0044 45.3695 37.0265 45.4043 37.055C45.4391 37.0835 45.466 37.1199 45.485 37.1626C45.504 37.2054 45.5135 37.2544 45.5135 37.3082C45.5135 37.381 45.4961 37.4444 45.4629 37.495Z" fill="white"/>
<path d="M46.4978 36.8845L46.0373 36.0552H45.7952L46.3902 37.076V37.8467H46.6086V37.0728L47.2037 36.0552H46.9616L46.4978 36.8845Z" fill="white"/>
<path d="M48.9824 36.0298C48.8574 36.0298 48.7419 36.0519 48.6327 36.0978C48.5251 36.1437 48.4301 36.207 48.3478 36.2893C48.2655 36.3716 48.2022 36.4698 48.1563 36.5821C48.1104 36.6945 48.0867 36.8179 48.0867 36.9509C48.0867 37.0838 48.1104 37.2073 48.1563 37.3196C48.2022 37.432 48.2655 37.5301 48.3478 37.6124C48.4301 37.6947 48.5251 37.7596 48.6327 37.8039C48.7403 37.8498 48.8574 37.872 48.9824 37.872C49.1138 37.872 49.223 37.8561 49.3132 37.8229C49.4018 37.7897 49.4841 37.7406 49.5585 37.6741V37.3877C49.5174 37.4399 49.4683 37.4874 49.4098 37.527C49.3512 37.5665 49.2879 37.5982 49.2167 37.6203C49.1455 37.6425 49.0679 37.6536 48.9824 37.6536C48.8653 37.6536 48.7561 37.6235 48.6548 37.5634C48.5535 37.5032 48.4728 37.4209 48.4111 37.3149C48.3494 37.2088 48.3177 37.087 48.3177 36.9493C48.3177 36.81 48.3494 36.6866 48.4111 36.5821C48.4728 36.4777 48.5551 36.3954 48.6548 36.3352C48.7561 36.2751 48.8653 36.245 48.9824 36.245C49.0679 36.245 49.1455 36.2561 49.2167 36.2783C49.2879 36.3004 49.3512 36.3321 49.4098 36.3716C49.4683 36.4112 49.5174 36.4587 49.5585 36.5109V36.2245C49.4841 36.158 49.4018 36.1089 49.3132 36.0757C49.223 36.0456 49.1138 36.0298 48.9824 36.0298Z" fill="white"/>
<path d="M51.1426 36.7721H50.1582V36.0552H49.9414V37.8467H50.1582V36.9763H51.1426V37.8467H51.361V36.0552H51.1426V36.7721Z" fill="white"/>
<path d="M51.5781 37.8465H51.8203L52.0482 37.31H52.7698L52.9977 37.8465H53.2415L52.4106 35.9663L51.5781 37.8465ZM52.6844 37.1042H52.1368L52.4106 36.4601L52.6844 37.1042Z" fill="white"/>
<path d="M53.6751 36.0552H53.4583V37.8451H53.6751V36.0552Z" fill="white"/>
<path d="M55.441 37.3875L54.0847 35.9663V37.8465H54.3031V36.5123L55.6579 37.9351V36.0549H55.441V37.3875Z" fill="white"/>
<path d="M57.6315 37.0643C57.7233 37.0216 57.7945 36.9583 57.8483 36.8775C57.9021 36.7968 57.929 36.7019 57.929 36.5927C57.929 36.4819 57.9021 36.3869 57.8483 36.3062C57.7945 36.2255 57.7217 36.1638 57.6315 36.121C57.5397 36.0783 57.4369 36.0562 57.3213 36.0562H57.0523H56.9557H56.8354V37.8461H57.0523V37.1292H57.2707L57.7692 37.8461H58.0382L57.5033 37.1086C57.5476 37.0975 57.5919 37.0833 57.6315 37.0643ZM57.0523 36.2461H57.3213C57.3973 36.2461 57.4653 36.2603 57.5239 36.2872C57.5825 36.3141 57.6283 36.3537 57.6616 36.4043C57.6948 36.455 57.7122 36.5183 57.7122 36.5911C57.7122 36.6639 57.6964 36.7272 57.6616 36.7778C57.6283 36.8285 57.5825 36.868 57.5239 36.8949C57.4653 36.9218 57.3973 36.9361 57.3213 36.9361H57.0523V36.2461Z" fill="white"/>
<path d="M58.3881 36.0552H58.2678V37.8467H58.3881H58.4846H59.2918V37.641H58.4846V36.9763H59.2396V36.7721H58.4846V36.2593H59.2918V36.0552H58.4846H58.3881Z" fill="white"/>
<path d="M59.4834 37.8465H59.7255L59.9534 37.31H60.6751L60.903 37.8465H61.1467L60.3159 35.9663L59.4834 37.8465ZM60.5881 37.1042H60.0405L60.3143 36.4601L60.5881 37.1042Z" fill="white"/>
<path d="M62.0789 36.0298C61.9539 36.0298 61.8383 36.0519 61.7291 36.0978C61.6215 36.1437 61.5265 36.207 61.4442 36.2893C61.3619 36.3716 61.2986 36.4698 61.2527 36.5821C61.2068 36.6945 61.1831 36.8179 61.1831 36.9509C61.1831 37.0838 61.2068 37.2073 61.2527 37.3196C61.2986 37.432 61.3619 37.5301 61.4442 37.6124C61.5265 37.6947 61.6215 37.7596 61.7291 37.8039C61.8367 37.8498 61.9539 37.872 62.0789 37.872C62.2102 37.872 62.3194 37.8561 62.4096 37.8229C62.4983 37.7897 62.5806 37.7406 62.655 37.6741V37.3877C62.6138 37.4399 62.5647 37.4874 62.5062 37.527C62.4476 37.5665 62.3843 37.5982 62.3131 37.6203C62.2419 37.6425 62.1643 37.6536 62.0789 37.6536C61.9618 37.6536 61.8526 37.6235 61.7513 37.5634C61.65 37.5032 61.5693 37.4209 61.5075 37.3149C61.4458 37.2088 61.4142 37.087 61.4142 36.9493C61.4142 36.81 61.4458 36.6866 61.5075 36.5821C61.5693 36.4777 61.6516 36.3954 61.7513 36.3352C61.8526 36.2751 61.9618 36.245 62.0789 36.245C62.1643 36.245 62.2419 36.2561 62.3131 36.2783C62.3843 36.3004 62.4476 36.3321 62.5062 36.3716C62.5647 36.4112 62.6138 36.4587 62.655 36.5109V36.2245C62.5806 36.158 62.4983 36.1089 62.4096 36.0757C62.321 36.0456 62.2102 36.0298 62.0789 36.0298Z" fill="white"/>
<path d="M62.7832 36.2593H63.2438V37.8467H63.4606V36.2593H63.9211V36.0552H62.7832V36.2593Z" fill="white"/>
<path d="M64.3689 36.0552H64.1521V37.8451H64.3689V36.0552Z" fill="white"/>
<path d="M66.2332 36.2941C66.1509 36.2118 66.056 36.1469 65.9452 36.0994C65.8344 36.0519 65.7141 36.0298 65.5827 36.0298C65.453 36.0298 65.3327 36.0535 65.2219 36.0994C65.1111 36.1469 65.0146 36.2118 64.9323 36.2941C64.85 36.3764 64.7867 36.4745 64.7424 36.5853C64.6965 36.6977 64.6743 36.8179 64.6743 36.9493C64.6743 37.0791 64.6965 37.1994 64.7424 37.3133C64.7883 37.4257 64.8516 37.5238 64.9323 37.6061C65.0146 37.6884 65.1111 37.7533 65.2219 37.8007C65.3327 37.8482 65.453 37.8704 65.5827 37.8704C65.7141 37.8704 65.8344 37.8466 65.9452 37.8007C66.0544 37.7533 66.1509 37.6884 66.2332 37.6061C66.3155 37.5238 66.3788 37.4257 66.4231 37.3133C66.469 37.2009 66.4912 37.0791 66.4912 36.9493C66.4912 36.8179 66.469 36.6961 66.4231 36.5853C66.3788 36.4745 66.3155 36.3764 66.2332 36.2941ZM66.1731 37.3117C66.1145 37.4178 66.0338 37.5016 65.9325 37.5618C65.8312 37.6235 65.7141 37.6536 65.5827 37.6536C65.453 37.6536 65.3374 37.6235 65.2346 37.5618C65.1317 37.5 65.051 37.4162 64.9924 37.3117C64.9339 37.2057 64.9038 37.0854 64.9038 36.9509C64.9038 36.8164 64.9339 36.6961 64.9924 36.59C65.051 36.484 65.1317 36.4001 65.2346 36.34C65.3374 36.2783 65.453 36.2482 65.5827 36.2482C65.7141 36.2482 65.8312 36.2783 65.9325 36.34C66.0338 36.4017 66.1145 36.4856 66.1731 36.59C66.2316 36.6961 66.2617 36.8164 66.2617 36.9509C66.2617 37.0854 66.2332 37.2057 66.1731 37.3117Z" fill="white"/>
<path d="M68.1543 37.3875L66.7996 35.9663V37.8465H67.0164V36.5123L68.3727 37.9351V36.0549H68.1543V37.3875Z" fill="white"/>
<path d="M69.7085 36.9982C69.6626 36.9571 69.6135 36.9223 69.5613 36.8954C69.5091 36.8685 69.4584 36.8463 69.411 36.8289C69.3065 36.7925 69.2242 36.7561 69.1641 36.7197C69.1039 36.6833 69.0612 36.6437 69.0343 36.6026C69.009 36.5614 68.9963 36.5155 68.9963 36.4665C68.9963 36.4079 69.0185 36.3557 69.0628 36.3098C69.1071 36.2623 69.1783 36.2402 69.2749 36.2402C69.3445 36.2402 69.4046 36.2544 69.4521 36.2813C69.5012 36.3082 69.5423 36.343 69.5756 36.3858C69.6104 36.4285 69.6373 36.4712 69.6594 36.5155L69.8462 36.4079C69.8177 36.3446 69.7766 36.2845 69.7259 36.2275C69.6753 36.1705 69.6135 36.123 69.5407 36.0866C69.4679 36.0502 69.3841 36.0312 69.2859 36.0312C69.1847 36.0312 69.096 36.0518 69.0169 36.0914C68.9378 36.131 68.8776 36.1863 68.8333 36.256C68.789 36.3256 68.7668 36.4047 68.7668 36.4934C68.7668 36.5757 68.7827 36.6437 68.8143 36.7007C68.846 36.7577 68.8871 36.8036 68.9362 36.8431C68.9852 36.8811 69.0375 36.9128 69.0929 36.9381C69.1467 36.9634 69.1973 36.9824 69.2416 36.9982C69.3097 37.022 69.3746 37.0489 69.4347 37.079C69.4948 37.109 69.5439 37.147 69.5819 37.1961C69.6199 37.2435 69.6389 37.3084 69.6389 37.3876C69.6389 37.4699 69.6104 37.5363 69.5518 37.5901C69.4933 37.6424 69.4173 37.6693 69.3223 37.6693C69.2511 37.6693 69.1862 37.6534 69.1308 37.6234C69.0739 37.5933 69.0232 37.5506 68.9789 37.4952C68.933 37.4414 68.8903 37.3781 68.8491 37.3053L68.675 37.4224C68.7146 37.5015 68.7653 37.5743 68.827 37.644C68.8887 37.7136 68.9615 37.769 69.0438 37.8101C69.1261 37.8513 69.2163 37.8734 69.3144 37.8734C69.3856 37.8734 69.4553 37.8608 69.5202 37.837C69.5851 37.8133 69.6452 37.7785 69.6974 37.7342C69.7496 37.6898 69.7908 37.636 69.8209 37.5727C69.8509 37.5094 69.8652 37.4382 69.8652 37.3607C69.8652 37.2784 69.8509 37.2087 69.8225 37.1502C69.7908 37.09 69.7544 37.0394 69.7085 36.9982Z" fill="white"/>
<path d="M70.7595 37.8465H71.0017L71.228 37.31H71.9497L72.1776 37.8465H72.4213L71.5904 35.9663L70.7595 37.8465ZM71.8642 37.1042H71.3166L71.5904 36.4601L71.8642 37.1042Z" fill="white"/>
<path d="M72.7602 36.0552H72.6399V37.8467H72.8567V36.9763H73.5341V36.7721H72.8567V36.2593H73.561V36.0552H72.8567H72.7602Z" fill="white"/>
<path d="M74.7145 37.0643C74.8063 37.0216 74.8775 36.9583 74.9313 36.8775C74.9851 36.7968 75.0121 36.7019 75.0121 36.5927C75.0121 36.4819 74.9851 36.3869 74.9313 36.3062C74.8775 36.2255 74.8047 36.1638 74.7145 36.121C74.6227 36.0783 74.5198 36.0562 74.4043 36.0562H74.1353H74.0387H73.9185V37.8461H74.1353V37.1292H74.3537L74.8522 37.8461H75.1213L74.5863 37.1086C74.6306 37.0975 74.6749 37.0833 74.7145 37.0643ZM74.1353 36.2461H74.4043C74.4803 36.2461 74.5483 36.2603 74.6069 36.2872C74.6655 36.3141 74.7114 36.3537 74.7446 36.4043C74.7778 36.455 74.7952 36.5183 74.7952 36.5911C74.7952 36.6639 74.7794 36.7272 74.7446 36.7778C74.7114 36.8285 74.6655 36.868 74.6069 36.8949C74.5483 36.9218 74.4803 36.9361 74.4043 36.9361H74.1353V36.2461Z" fill="white"/>
<path d="M75.5676 36.0552H75.3508V37.8451H75.5676V36.0552Z" fill="white"/>
<path d="M76.7703 36.0298C76.6452 36.0298 76.5297 36.0519 76.4205 36.0978C76.3129 36.1437 76.2179 36.207 76.1356 36.2893C76.0533 36.3716 75.99 36.4698 75.9441 36.5821C75.8983 36.6945 75.8745 36.8179 75.8745 36.9509C75.8745 37.0838 75.8983 37.2073 75.9441 37.3196C75.99 37.432 76.0533 37.5301 76.1356 37.6124C76.2179 37.6947 76.3129 37.7596 76.4205 37.8039C76.5281 37.8498 76.6452 37.872 76.7703 37.872C76.9016 37.872 77.0108 37.8561 77.1011 37.8229C77.1897 37.7897 77.272 37.7406 77.3464 37.6741V37.3877C77.3052 37.4399 77.2561 37.4874 77.1976 37.527C77.139 37.5665 77.0757 37.5982 77.0045 37.6203C76.9333 37.6425 76.8557 37.6536 76.7703 37.6536C76.6532 37.6536 76.544 37.6235 76.4427 37.5634C76.3414 37.5032 76.2607 37.4209 76.1989 37.3149C76.1372 37.2088 76.1056 37.087 76.1056 36.9493C76.1056 36.81 76.1372 36.6866 76.1989 36.5821C76.2607 36.4777 76.343 36.3954 76.4427 36.3352C76.544 36.2751 76.6532 36.245 76.7703 36.245C76.8557 36.245 76.9333 36.2561 77.0045 36.2783C77.0757 36.3004 77.139 36.3321 77.1976 36.3716C77.2561 36.4112 77.3052 36.4587 77.3464 36.5109V36.2245C77.272 36.158 77.1897 36.1089 77.1011 36.0757C77.0124 36.0456 76.9016 36.0298 76.7703 36.0298Z" fill="white"/>
<path d="M78.9195 37.8465H79.1632L78.3323 35.9663L77.5015 37.8465H77.742L77.9683 37.31H78.6916L78.9195 37.8465ZM78.6046 37.1042H78.057L78.3308 36.4601L78.6046 37.1042Z" fill="white"/>
</g>
<defs>
<clipPath id="clip0_229_5373">
<rect width="88.4848" height="40" fill="white" transform="translate(-2.74243 0.5)"/>
</clipPath>
</defs>
</svg>
