<svg width="18" height="18" viewBox="0 0 18 18" fill="none" xmlns="http://www.w3.org/2000/svg">
<g clip-path="url(#clip0_389_5384)">
<path d="M9 0C7.75781 0 6.5918 0.234375 5.50195 0.703125C4.40039 1.17188 3.44238 1.81348 2.62793 2.62793C1.81348 3.44238 1.17188 4.40039 0.703125 5.50195C0.234375 6.5918 0 7.75781 0 9C0 10.2422 0.234375 11.4082 0.703125 12.498C1.17188 13.5996 1.81348 14.5576 2.62793 15.3721C3.44238 16.1865 4.40039 16.8281 5.50195 17.2969C6.5918 17.7656 7.75781 18 9 18C10.2422 18 11.4082 17.7656 12.498 17.2969C13.5996 16.8281 14.5576 16.1865 15.3721 15.3721C16.1865 14.5576 16.8281 13.5996 17.2969 12.498C17.7656 11.4082 18 10.2422 18 9C18 7.75781 17.7656 6.5918 17.2969 5.50195C16.8281 4.40039 16.1865 3.44238 15.3721 2.62793C14.5576 1.81348 13.5996 1.17188 12.498 0.703125C11.4082 0.234375 10.2422 0 9 0ZM3.99023 6.04688C3.99023 5.69531 4.11621 5.39355 4.36816 5.1416C4.62012 4.88965 4.92188 4.76367 5.27344 4.76367C5.63672 4.76367 5.94141 4.88965 6.1875 5.1416C6.43359 5.39355 6.55664 5.69531 6.55664 6.04688C6.55664 6.39844 6.43359 6.7002 6.1875 6.95215C5.94141 7.2041 5.63672 7.33008 5.27344 7.33008C4.92188 7.33008 4.62012 7.2041 4.36816 6.95215C4.11621 6.7002 3.99023 6.39844 3.99023 6.04688ZM12.7969 12.9375H5.20312V11.4434H12.7969V12.9375ZM12.5156 7.34766C12.1523 7.34766 11.8477 7.22168 11.6016 6.96973C11.3555 6.71777 11.2324 6.41016 11.2324 6.04688C11.2324 5.69531 11.3555 5.39355 11.6016 5.1416C11.8477 4.88965 12.1523 4.76367 12.5156 4.76367C12.8672 4.76367 13.1689 4.88965 13.4209 5.1416C13.6729 5.39355 13.7988 5.69531 13.7988 6.04688C13.7988 6.41016 13.6729 6.71777 13.4209 6.96973C13.1689 7.22168 12.8672 7.34766 12.5156 7.34766Z" fill="#75869F"/>
</g>
<defs>
<clipPath id="clip0_389_5384">
<rect width="18" height="18" fill="white" transform="matrix(1 0 0 -1 0 18)"/>
</clipPath>
</defs>
</svg>
