<svg width="24" height="24" viewBox="0 0 24 24" fill="none" xmlns="http://www.w3.org/2000/svg">
<rect x="0.5" y="0.5" width="23" height="23" rx="5.5" fill="white"/>
<rect x="0.5" y="0.5" width="23" height="23" rx="5.5" stroke="#F0F2F5"/>
<path d="M18.1397 14.5934C17.7156 15.5964 17.0522 16.4802 16.2076 17.1676C15.363 17.855 14.3629 18.325 13.2947 18.5366C12.2264 18.7481 11.1226 18.6948 10.0798 18.3813C9.03695 18.0677 8.08678 17.5034 7.31238 16.7378C6.53797 15.9722 5.96291 15.0286 5.63746 13.9894C5.312 12.9501 5.24607 11.847 5.44543 10.7765C5.64479 9.70591 6.10336 8.70047 6.78106 7.84807C7.45876 6.99567 8.33495 6.32226 9.33303 5.88672" stroke="#F48A1F" stroke-width="1.33333" stroke-linecap="round" stroke-linejoin="round"/>
<path d="M18.6667 11.9997C18.6667 11.1242 18.4942 10.2573 18.1592 9.44845C17.8242 8.63961 17.3331 7.90469 16.714 7.28563C16.095 6.66657 15.3601 6.17551 14.5512 5.84048C13.7424 5.50545 12.8755 5.33301 12 5.33301V11.9997H18.6667Z" stroke="#F48A1F" stroke-width="1.33333" stroke-linecap="round" stroke-linejoin="round"/>
</svg>
