<svg width="20" height="21" viewBox="0 0 20 21" fill="none" xmlns="http://www.w3.org/2000/svg">
<circle cx="9.99996" cy="10.5999" r="8.33333" fill="#BD081C"/>
<path fill-rule="evenodd" clip-rule="evenodd" d="M10.3551 5.6001C7.62598 5.6001 6.25 7.55673 6.25 9.18835C6.25 10.1762 6.62408 11.0553 7.42629 11.3825C7.55786 11.4362 7.67567 11.3844 7.7138 11.2387C7.74036 11.1378 7.80318 10.8834 7.83099 10.7775C7.86943 10.6334 7.85443 10.5831 7.74818 10.4575C7.51692 10.1846 7.3691 9.83149 7.3691 9.33116C7.3691 7.87924 8.45539 6.57982 10.1973 6.57982C11.7399 6.57982 12.5874 7.52266 12.5874 8.78114C12.5874 10.4374 11.8543 11.8353 10.7664 11.8353C10.1654 11.8353 9.71575 11.3381 9.85981 10.7287C10.0323 10.0012 10.367 9.21554 10.367 8.69052C10.367 8.2205 10.1145 7.8283 9.5923 7.8283C8.97791 7.8283 8.48445 8.46363 8.48445 9.31491C8.48445 9.85712 8.66758 10.224 8.66758 10.224C8.66758 10.224 8.03881 12.8875 7.92881 13.3541C7.70943 14.2832 7.89599 15.422 7.91162 15.537C7.921 15.6051 8.0085 15.6214 8.04819 15.5695C8.10475 15.4958 8.83634 14.5923 9.0851 13.6897C9.15541 13.4344 9.48917 12.111 9.48917 12.111C9.68856 12.4916 10.272 12.8269 10.8923 12.8269C12.739 12.8269 13.9915 11.1434 13.9915 8.8899C13.9915 7.18672 12.5487 5.6001 10.3551 5.6001Z" fill="white"/>
</svg>
