<svg width="18" height="18" viewBox="0 0 18 18" fill="none" xmlns="http://www.w3.org/2000/svg">
<g clip-path="url(#clip0_389_5388)">
<path d="M9 0C7.75781 0 6.5918 0.234375 5.50195 0.703125C4.40039 1.17188 3.44238 1.81348 2.62793 2.62793C1.81348 3.44238 1.17188 4.40039 0.703125 5.50195C0.234375 6.5918 0 7.75781 0 9C0 10.2422 0.234375 11.4082 0.703125 12.498C1.17188 13.5996 1.81348 14.5576 2.62793 15.3721C3.44238 16.1865 4.40039 16.8281 5.50195 17.2969C6.5918 17.7656 7.75781 18 9 18C10.2422 18 11.4082 17.7656 12.498 17.2969C13.5996 16.8281 14.5576 16.1865 15.3721 15.3721C16.1865 14.5576 16.8281 13.5996 17.2969 12.498C17.7656 11.4082 18 10.2422 18 9C18 7.75781 17.7656 6.5918 17.2969 5.50195C16.8281 4.40039 16.1865 3.44238 15.3721 2.62793C14.5576 1.81348 13.5996 1.17188 12.498 0.703125C11.4082 0.234375 10.2422 0 9 0ZM3.99023 6.60938C3.99023 6.25781 4.11621 5.95605 4.36816 5.7041C4.62012 5.45215 4.92188 5.32617 5.27344 5.32617C5.63672 5.32617 5.94141 5.45215 6.1875 5.7041C6.43359 5.95605 6.55664 6.25781 6.55664 6.60938C6.55664 6.96094 6.43359 7.2627 6.1875 7.51465C5.94141 7.7666 5.63672 7.89258 5.27344 7.89258C4.92188 7.89258 4.62012 7.7666 4.36816 7.51465C4.11621 7.2627 3.99023 6.96094 3.99023 6.60938ZM13.4648 14.3438C13.4062 14.3906 13.3389 14.4287 13.2627 14.458C13.1865 14.4873 13.1016 14.502 13.0078 14.502C12.9023 14.502 12.8027 14.4814 12.709 14.4404C12.6152 14.3994 12.5391 14.3379 12.4805 14.2559C12.3867 14.1621 12.2959 14.0684 12.208 13.9746C12.1201 13.8809 12.0234 13.793 11.918 13.7109V13.6934C11.5195 13.3535 11.0625 13.0869 10.5469 12.8936C10.0312 12.7002 9.48633 12.6035 8.91211 12.6035C8.19727 12.6035 7.53223 12.7529 6.91699 13.0518C6.30176 13.3506 5.7832 13.752 5.36133 14.2559H5.34375C5.28516 14.3379 5.20898 14.3994 5.11523 14.4404C5.02148 14.4814 4.92188 14.502 4.81641 14.502C4.81641 14.502 4.81348 14.502 4.80762 14.502C4.80176 14.502 4.79883 14.502 4.79883 14.502C4.7168 14.502 4.6377 14.4873 4.56152 14.458C4.48535 14.4287 4.41797 14.3906 4.35938 14.3438C4.27734 14.2734 4.21582 14.1943 4.1748 14.1064C4.13379 14.0186 4.11328 13.916 4.11328 13.7988C4.11328 13.7168 4.12793 13.6377 4.15723 13.5615C4.18652 13.4854 4.22461 13.418 4.27148 13.3594C4.83398 12.6914 5.5166 12.1641 6.31934 11.7773C7.12207 11.3906 7.98633 11.1973 8.91211 11.1973C9.66211 11.1973 10.3711 11.3232 11.0391 11.5752C11.707 11.8271 12.3047 12.1758 12.832 12.6211H12.8145C12.9551 12.7383 13.084 12.8555 13.2012 12.9727C13.3184 13.0898 13.4355 13.2129 13.5527 13.3418V13.3594C13.5996 13.418 13.6377 13.4854 13.667 13.5615C13.6963 13.6377 13.7109 13.7227 13.7109 13.8164C13.7109 13.9219 13.6904 14.0186 13.6494 14.1064C13.6084 14.1943 13.5469 14.2734 13.4648 14.3438ZM12.5156 7.875C12.1641 7.875 11.8623 7.74902 11.6104 7.49707C11.3584 7.24512 11.2324 6.94336 11.2324 6.5918C11.2324 6.24023 11.3584 5.93848 11.6104 5.68652C11.8623 5.43457 12.1641 5.30859 12.5156 5.30859C12.8672 5.30859 13.1689 5.43457 13.4209 5.68652C13.6729 5.93848 13.7988 6.24023 13.7988 6.5918C13.7988 6.94336 13.6729 7.24512 13.4209 7.49707C13.1689 7.74902 12.8672 7.875 12.5156 7.875Z" fill="#FF4E4C"/>
</g>
<defs>
<clipPath id="clip0_389_5388">
<rect width="18" height="18" fill="white" transform="matrix(1 0 0 -1 0 18)"/>
</clipPath>
</defs>
</svg>
