<svg width="34" height="43" viewBox="0 0 34 43" fill="none" xmlns="http://www.w3.org/2000/svg">
<path d="M33 23.6322C33 33.6322 26 38.6322 17.68 41.5322C17.2443 41.6799 16.7711 41.6728 16.34 41.5122C8 38.6322 1 33.6322 1 23.6322V9.63225C1 9.10181 1.21071 8.59311 1.58579 8.21803C1.96086 7.84296 2.46957 7.63225 3 7.63225C7 7.63225 12 5.23225 15.48 2.19225C15.9037 1.83024 16.4427 1.63135 17 1.63135C17.5573 1.63135 18.0963 1.83024 18.52 2.19225C22.02 5.25225 27 7.63225 31 7.63225C31.5304 7.63225 32.0391 7.84296 32.4142 8.21803C32.7893 8.59311 33 9.10181 33 9.63225V23.6322Z" stroke="#F48A1F" stroke-width="2" stroke-linecap="round" stroke-linejoin="round"/>
</svg>
