<svg width="19" height="19" viewBox="0 0 19 19" fill="none" xmlns="http://www.w3.org/2000/svg">
<path fill-rule="evenodd" clip-rule="evenodd" d="M18.1666 1.85806C18.1666 0.700655 17.0159 -0.104378 15.9286 0.292381L9.847 2.51164L3.7401 2.98917C2.00523 3.12483 0.666626 4.57219 0.666626 6.31236V7.52141C0.666626 9.26157 2.00523 10.7089 3.7401 10.8446L4.08393 10.8715L4.67036 15.9659C4.81474 17.2202 5.87664 18.1669 7.13919 18.1669C8.6285 18.1669 9.78337 16.8659 9.60678 15.3871L9.11454 11.2649L9.847 11.3221L15.9286 13.5414C17.0159 13.9381 18.1666 13.1331 18.1666 11.9757V1.85806ZM3.87003 4.65076L9.19227 4.23459V9.59918L3.87003 9.183C3.0026 9.11517 2.33329 8.39149 2.33329 7.52141V6.31236C2.33329 5.44228 3.00259 4.71859 3.87003 4.65076ZM16.5 11.9757L10.8589 9.91722V3.91654L16.5 1.85806L16.5 11.9757ZM6.3261 15.7754L5.77684 11.0039L7.42022 11.1324L7.95188 15.5847C8.01003 16.0717 7.62968 16.5002 7.13919 16.5002C6.72337 16.5002 6.37365 16.1884 6.3261 15.7754Z" fill="white"/>
</svg>
