<svg width="48" height="49" viewBox="0 0 48 49" fill="none" xmlns="http://www.w3.org/2000/svg">
<path d="M24 44.6323C35.0457 44.6323 44 35.678 44 24.6323C44 13.5866 35.0457 4.63232 24 4.63232C12.9543 4.63232 4 13.5866 4 24.6323C4 35.678 12.9543 44.6323 24 44.6323Z" stroke="#F48A1F" stroke-width="2" stroke-linecap="round" stroke-linejoin="round"/>
<path d="M24 36.6323C30.6274 36.6323 36 31.2597 36 24.6323C36 18.0049 30.6274 12.6323 24 12.6323C17.3726 12.6323 12 18.0049 12 24.6323C12 31.2597 17.3726 36.6323 24 36.6323Z" stroke="#F48A1F" stroke-width="2" stroke-linecap="round" stroke-linejoin="round"/>
<path d="M24 28.6323C26.2091 28.6323 28 26.8415 28 24.6323C28 22.4232 26.2091 20.6323 24 20.6323C21.7909 20.6323 20 22.4232 20 24.6323C20 26.8415 21.7909 28.6323 24 28.6323Z" stroke="#F48A1F" stroke-width="2" stroke-linecap="round" stroke-linejoin="round"/>
</svg>
