<svg width="20" height="21" viewBox="0 0 20 21" fill="none" xmlns="http://www.w3.org/2000/svg">
<circle cx="9.99996" cy="10.5999" r="8.33333" fill="#1DA1F2"/>
<path fill-rule="evenodd" clip-rule="evenodd" d="M15 7.39553C14.6324 7.55885 14.2367 7.66884 13.8217 7.71851C14.2454 7.46452 14.5707 7.06255 14.7237 6.58358C14.3277 6.8189 13.8881 6.98922 13.4211 7.08155C13.0468 6.68291 12.5132 6.43359 11.9235 6.43359C10.7906 6.43359 9.87201 7.3522 9.87201 8.48512C9.87201 8.64578 9.89034 8.80244 9.92534 8.95276C8.22012 8.86743 6.70855 8.05049 5.69662 6.80923C5.51997 7.11221 5.41897 7.46453 5.41897 7.8405C5.41897 8.55212 5.78061 9.18008 6.33158 9.54806C5.99493 9.53739 5.67895 9.44506 5.40197 9.2914V9.31707C5.40197 10.3113 6.10959 11.1403 7.04753 11.3293C6.87554 11.3759 6.69422 11.4013 6.50723 11.4013C6.37491 11.4013 6.24625 11.3883 6.12092 11.3643C6.38191 12.1792 7.13986 12.7725 8.03746 12.7892C7.33551 13.3391 6.4509 13.6674 5.48963 13.6674C5.32364 13.6674 5.16032 13.6578 5 13.6384C5.90794 14.2204 6.9862 14.5604 8.14479 14.5604C11.9182 14.5604 13.9817 11.4343 13.9817 8.72344C13.9817 8.63445 13.9801 8.54579 13.9757 8.45813C14.377 8.16815 14.725 7.80684 15 7.39553Z" fill="white"/>
</svg>
