<svg width="57" height="57" viewBox="0 0 57 57" fill="none" xmlns="http://www.w3.org/2000/svg">
<circle cx="28.5" cy="28.5" r="28" fill="#F0F2F5"/>
<path d="M21.4998 25.5835C21.4998 22.0397 24.3727 19.1668 27.9165 19.1668C31.0557 19.1668 33.6705 21.4222 34.2247 24.4013C34.3024 24.819 34.6011 25.1615 35.0044 25.2953C37.327 26.0656 38.9998 28.2557 38.9998 30.8335C38.9998 34.0552 36.3882 36.6668 33.1665 36.6668C32.5222 36.6668 31.9998 37.1892 31.9998 37.8335C31.9998 38.4778 32.5222 39.0002 33.1665 39.0002C37.6768 39.0002 41.3332 35.3438 41.3332 30.8335C41.3332 27.459 39.2871 24.565 36.3705 23.3197C35.3725 19.5845 31.9669 16.8335 27.9165 16.8335C23.084 16.8335 19.1665 20.751 19.1665 25.5835C19.1665 25.7005 19.1688 25.817 19.1734 25.933C17.0787 27.1415 15.6665 29.4048 15.6665 32.0002C15.6665 35.8662 18.8005 39.0002 22.6665 39.0002C23.3108 39.0002 23.8332 38.4778 23.8332 37.8335C23.8332 37.1892 23.3108 36.6668 22.6665 36.6668C20.0892 36.6668 17.9998 34.5775 17.9998 32.0002C17.9998 30.0666 19.176 28.4051 20.8566 27.6971C21.3429 27.4923 21.6312 26.9865 21.5596 26.4637C21.5202 26.1765 21.4998 25.8827 21.4998 25.5835Z" fill="#475367"/>
<path d="M27.7247 31.1282C28.1668 30.7353 28.8329 30.7353 29.2749 31.1282L31.0249 32.6837C31.5065 33.1118 31.5499 33.8492 31.1218 34.3308C30.7473 34.7521 30.1361 34.838 29.6665 34.5663V40.1668C29.6665 40.8112 29.1442 41.3335 28.4998 41.3335C27.8555 41.3335 27.3332 40.8112 27.3332 40.1668V34.5663C26.8636 34.838 26.2523 34.7521 25.8779 34.3308C25.4498 33.8492 25.4932 33.1118 25.9747 32.6837L27.7247 31.1282Z" fill="#475367"/>
</svg>
